<svg xmlns="http://www.w3.org/2000/svg" xmlns:xlink="http://www.w3.org/1999/xlink" width="964.566" height="379.754" viewBox="0 0 964.566 379.754">
  <defs>
    <linearGradient id="linear-gradient" x1="1.248" y1="0.179" x2="-0.247" y2="0.822" gradientUnits="objectBoundingBox">
      <stop offset="0" stop-color="#f1b400"/>
      <stop offset="0.315" stop-color="#65ba00"/>
      <stop offset="0.555" stop-color="#00bf00"/>
      <stop offset="1" stop-color="#007f46"/>
    </linearGradient>
    <linearGradient id="linear-gradient-2" x1="0.792" y1="-0.09" x2="0.292" y2="0.776" xlink:href="#linear-gradient"/>
  </defs>
  <g id="Group_3069" data-name="Group 3069" transform="translate(-17.717 -310.123)">
    <path id="Path_13061" data-name="Path 13061" d="M603.57,432.1l0-.008,0-.008Z" fill="url(#linear-gradient)"/>
    <g id="Group_3067" data-name="Group 3067">
      <path id="Path_13062" data-name="Path 13062" d="M912.1,452.914,724.674,503.135A22.964,22.964,0,0,0,707.6,525.424l4.655,13.852a24.147,24.147,0,0,0,2.092,2.4L851.556,678.878a23.031,23.031,0,0,0,38.533-10.325l50.225-187.428A23.036,23.036,0,0,0,912.1,452.914Z" fill="#005f3f"/>
      <path id="Path_13063" data-name="Path 13063" d="M828.3,475.368,724.674,503.135a22.955,22.955,0,0,0-17.064,22.311l4.636,13.8a23.739,23.739,0,0,0,1.927,2.251l.06.061,63.838,63.838a22.711,22.711,0,0,0,16.194,6.76A22.97,22.97,0,0,0,816.6,595.065l27.769-103.629Z" fill="#329837"/>
      <g id="Group_3066" data-name="Group 3066">
        <path id="Path_13064" data-name="Path 13064" d="M712.41,539.73l1.763,1.763a23.739,23.739,0,0,1-1.927-2.251Z" fill="#4db539"/>
        <path id="Path_13065" data-name="Path 13065" d="M766.005,364.209,848.871,342l-.245.064L623.84,402.3a23.594,23.594,0,0,0-3.981,1.455,23.045,23.045,0,0,0-6.343,37.078L685.05,512.37l3.27,3.27L695.928,493h.779l10.9,32.444a22.955,22.955,0,0,1,17.064-22.311L828.3,475.368,755.68,402.742A23.031,23.031,0,0,1,766.005,364.209Z" fill="#4db539"/>
      </g>
      <path id="Path_13066" data-name="Path 13066" d="M933.463,506.687l-5.3,19.785c.008-.028.015-.054.022-.083l5.279-19.7m21.616-192.325a23.412,23.412,0,0,0-6.067.809h0L848.871,342.005a23.321,23.321,0,0,1,5.822-.746,23.061,23.061,0,0,1,22.144,29.021l-26.583,99.206L912.1,452.914a23.381,23.381,0,0,1,6.066-.81,23.063,23.063,0,0,1,22.185,28.872l36.867-137.6a23.4,23.4,0,0,0,.81-6.086,23.115,23.115,0,0,0-22.951-22.932" fill="#3ba243"/>
      <path id="Path_13067" data-name="Path 13067" d="M918.168,452.1a23.381,23.381,0,0,0-6.066.81l-61.848,16.572-5.882,21.95,45.277,45.278a22.719,22.719,0,0,0,16.2,6.76,22.975,22.975,0,0,0,22.317-17l5.3-19.785,6.89-25.711A23.063,23.063,0,0,0,918.168,452.1" fill="#1b8541"/>
      <path id="Path_13068" data-name="Path 13068" d="M854.693,341.259a23.321,23.321,0,0,0-5.822.746l-82.866,22.2a23.03,23.03,0,0,0-10.325,38.533L828.3,475.368l21.951-5.882,26.583-99.206a23.061,23.061,0,0,0-22.144-29.021" fill="#329640"/>
      <path id="Path_13069" data-name="Path 13069" d="M850.254,469.486,828.3,475.368l16.069,16.069,5.882-21.95" fill="#2c903f"/>
      <path id="Path_13070" data-name="Path 13070" d="M982.26,337h-.005c-.01-.771-.047-1.523-.116-2.241-.024-.245-.048-.431-.062-.556-.08-.678-.186-1.368-.323-2.065h0l-.046-.254-.009-.048-.013-.066c-.169-.8-.374-1.56-.6-2.285v0c-.071-.231-.133-.413-.178-.551l0,0c-.211-.641-.45-1.288-.719-1.936h0l-.075-.188-.025-.063-.022-.051c-.32-.741-.664-1.432-1.013-2.082l-.024-.046-.239-.432-.017-.029c-.33-.587-.694-1.188-1.1-1.79l0,0-.066-.1-.025-.039-.041-.061c-.454-.667-.922-1.274-1.378-1.836l-.349-.421-.024-.028c-.468-.554-.978-1.128-1.551-1.7l-.05-.05-.1-.092,0,0c-.525-.516-1.052-.992-1.564-1.424l-.057-.048-.347-.289-.042-.033c-.564-.456-1.172-.924-1.841-1.379l-.056-.038-.171-.109v0c-.595-.395-1.187-.754-1.765-1.08l-.452-.251-.042-.023-.011-.005c-.651-.348-1.343-.693-2.084-1.011l-.043-.019-.27-.107v0c-.647-.268-1.292-.505-1.929-.715l-.477-.153-.022-.007-.038-.012c-.725-.222-1.485-.426-2.281-.6l-.056-.011-.342-.063v0q-1.027-.2-2.042-.318c-.122-.014-.309-.038-.557-.062-.719-.068-1.462-.1-2.22-.114v-.005l-.095-.005-.111-.005h-.11c-.431,0-.72.022-.871.026s-.407.005-.787.027c-.449.028-.809.071-1.081.1-.114.013-.361.028-.741.075h0c-.482.063-.888.138-1.221.2-.035.009-.243.033-.616.1h0c-.607.12-1.222.261-1.841.427l-99.211,26.583L622.744,398.207c-.78.209-1.505.447-2.181.688-.284.1-.495.187-.634.24q-.7.268-1.385.579v0l-.319.134-.207.087-.35.191,0,.005c-.822.4-1.621.837-2.381,1.311l-.048.03-.339.217-.025.016a26.709,26.709,0,0,0-2.342,1.7l-.013.011-.306.259h0a26.914,26.914,0,0,0-2.134,1.994l-.037.038-.176.2,0,0a26.808,26.808,0,0,0-1.811,2.155l-.005,0-.032.041-.044.056-.027.037a26.989,26.989,0,0,0-1.6,2.43h0l-.137.227-.03.049-.02.035a27.233,27.233,0,0,0-1.266,2.52l-.144.325-.024.055a27.577,27.577,0,0,0-.951,2.594l-.02.063-.1.334-.007.024c-.257.876-.478,1.775-.651,2.7l-.065.374h0v.005a27.9,27.9,0,0,0-.35,2.828l0,.049-.011.254h0c-.03.527-.047,1.055-.047,1.583a27.184,27.184,0,0,0,.344,4.3h0l.03.208,0,.027.013.074a26.723,26.723,0,0,0,.656,2.843l.085.3.022.076a26.8,26.8,0,0,0,.994,2.732l.156.36.011.024a26.7,26.7,0,0,0,1.358,2.654l.2.326,0-.007a27.443,27.443,0,0,0,1.761,2.583l.047.061.14.171h0a28.091,28.091,0,0,0,2.179,2.465l76.3,76.295,3.016-8.974L616.51,437.837a19.535,19.535,0,0,1-1.553-1.764l-.023-.029-.088-.107a19.139,19.139,0,0,1-1.2-1.77l0-.007-.127-.209a18.244,18.244,0,0,1-.925-1.81l-.117-.267a18.857,18.857,0,0,1-.676-1.854l-.068-.244,0-.016a18.066,18.066,0,0,1-.448-1.927l-.019-.129-.007-.044,0-.019a18.663,18.663,0,0,1-.243-3.007c0-.382.012-.764.035-1.144l0-.038.005-.129c.046-.636.128-1.286.244-1.954v-.006l.044-.254c.116-.62.268-1.244.452-1.872l.092-.3q.284-.907.648-1.769l.126-.284a18.538,18.538,0,0,1,.866-1.727l.092-.154.028-.045a18.505,18.505,0,0,1,1.11-1.693l.034-.044a18.571,18.571,0,0,1,1.32-1.568l.029-.031.1-.108a18.2,18.2,0,0,1,1.45-1.351l.225-.191a18.607,18.607,0,0,1,1.591-1.154l.282-.181a18.376,18.376,0,0,1,1.768-.972l.1-.047.065-.035.109-.046.065-.027.052-.024q.5-.227,1.04-.434c.217-.084.359-.14.437-.167.534-.191,1.038-.354,1.528-.485L850.9,345.848l99.21-26.582c.429-.115.86-.214,1.295-.3h.006l.011,0c.041-.008.179-.026.412-.066.358-.063.643-.113.846-.139.043-.006.211-.019.516-.049.337-.035.588-.061.744-.07.067-.005.243-.008.541-.016l.53-.02.044,0h.1c.541,0,1.092.033,1.656.086.064.006.191.022.38.044q.751.087,1.44.223l.02,0,.227.041c.5.106,1,.24,1.529.4l.379.122c.482.159.941.327,1.373.508l.033.014.15.059c.454.2.922.426,1.41.687l.355.2c.46.259.888.518,1.28.782l.045.03.077.049c.4.271.809.583,1.244.935l.326.271c.426.36.813.708,1.154,1.047l.051.051c.339.341.687.727,1.051,1.157l.26.315c.354.436.669.851.942,1.25l.015.023.016.024.037.056c.265.392.524.822.785,1.284l.208.376c.258.484.486.947.68,1.395l.038.1.013.031.019.046q.275.652.511,1.38v0c.057.17.1.293.12.371l0,.005c.161.529.3,1.038.4,1.535l.029.16.014.072q.138.69.226,1.451c.022.189.038.314.044.38.054.573.086,1.124.087,1.66v.1l0,.036c0,.085-.008.247-.017.518-.01.308-.012.495-.018.566-.008.153-.035.4-.069.744v-.005c-.031.319-.044.489-.049.52-.024.19-.074.474-.138.839v0c-.027.157-.045.274-.056.348l-.016.1c-.086.434-.185.865-.3,1.294l-36.868,137.6-.037.138-.031.117-.005.022-4.2,15.659-5.182,19.335L886,667.456a18.477,18.477,0,0,1-6.875,10.2,19.174,19.174,0,0,1-11.127,3.741l-.242,0a18.471,18.471,0,0,1-13.2-5.519l-72.625-72.624-8.026-8.028-25.878-25.876-30.23-30.231,0-.007-.566-.563.005.005-7.854-7.854,3.261,9.7H707.09l3.814,3.815h0l.332.333,0,0,.087.086,30.7,30.7,25.877,25.876,8.025,8.028,72.626,72.625a26.954,26.954,0,0,0,19.194,8l.355,0a27.63,27.63,0,0,0,16.063-5.408,26.977,26.977,0,0,0,10.016-14.816L935,517.345l5.18-19.335,4.267-15.924,0-.014,36.867-137.6c.166-.619.307-1.234.428-1.843l0-.009c.071-.372.1-.585.106-.631v0c.053-.314.128-.711.191-1.2.05-.4.064-.645.076-.748v-.005c.027-.268.07-.627.1-1.081.022-.388.021-.659.027-.807,0-.109.012-.3.018-.521l.021-.162Zm-8.835,3.992-.058.3.058-.3Z" fill="url(#linear-gradient-2)"/>
      <path id="Path_13071" data-name="Path 13071" d="M783.042,402.055l7.535,28.122,29.194-7.823v171.5h29.115V384.413Z" fill="#fff"/>
    </g>
    <g id="Group_3068" data-name="Group 3068">
      <path id="Path_13072" data-name="Path 13072" d="M116.024,635.141a18.575,18.575,0,0,1,5.872-13.757,19.321,19.321,0,0,1,14.052-5.749,19.838,19.838,0,0,1,19.727,19.727,18.653,18.653,0,0,1-5.847,13.881,20.042,20.042,0,0,1-27.367.638A18.636,18.636,0,0,1,116.024,635.141Zm5.773.074a13.714,13.714,0,0,0,4.225,10.343,14,14,0,0,0,19.777-.074,14.723,14.723,0,0,0,.049-20.341,14.144,14.144,0,0,0-19.973,0A13.681,13.681,0,0,0,121.8,635.215Z" fill="#212a34"/>
      <path id="Path_13073" data-name="Path 13073" d="M194.982,612.786h5.552v41.493h-5.552v-2.506a10.313,10.313,0,0,1-7.395,3.194,10.53,10.53,0,0,1-8.156-3.587,13.337,13.337,0,0,1-3.218-9.139,12.891,12.891,0,0,1,3.218-8.942,10.337,10.337,0,0,1,15.551-.172Zm-13.118,29.455a8.335,8.335,0,0,0,1.842,5.6,6.034,6.034,0,0,0,4.766,2.187,6.341,6.341,0,0,0,4.962-2.113,9.092,9.092,0,0,0,0-11.1,6.253,6.253,0,0,0-4.913-2.138,6.112,6.112,0,0,0-4.766,2.162A7.972,7.972,0,0,0,181.864,642.241Z" fill="#212a34"/>
      <path id="Path_13074" data-name="Path 13074" d="M229.3,643.617H212.154a7.26,7.26,0,0,0,1.917,4.692,5.838,5.838,0,0,0,4.348,1.72,5.655,5.655,0,0,0,3.414-.983,13.965,13.965,0,0,0,3.022-3.636l4.668,2.6a18.587,18.587,0,0,1-2.285,3.157,12.115,12.115,0,0,1-2.579,2.162,10.333,10.333,0,0,1-2.973,1.24,14.472,14.472,0,0,1-3.464.394,11.263,11.263,0,0,1-8.6-3.439,12.9,12.9,0,0,1-3.243-9.189,13.254,13.254,0,0,1,3.145-9.188,11.985,11.985,0,0,1,16.754-.1q3.047,3.341,3.046,9.262Zm-5.675-4.521q-1.155-4.421-5.577-4.422a5.746,5.746,0,0,0-1.892.307,5.421,5.421,0,0,0-1.609.885,5.58,5.58,0,0,0-1.24,1.388,6.417,6.417,0,0,0-.786,1.842Z" fill="#212a34"/>
      <path id="Path_13075" data-name="Path 13075" d="M249.25,634.429l-4.569,2.432Q243.6,634.65,242,634.65a1.84,1.84,0,0,0-1.3.5,1.683,1.683,0,0,0-.541,1.289q0,1.377,3.193,2.727a19.022,19.022,0,0,1,5.921,3.489,5.969,5.969,0,0,1,1.523,4.3,7.533,7.533,0,0,1-2.554,5.8,8.7,8.7,0,0,1-6,2.211q-6.02,0-8.524-5.872l4.716-2.186a10.221,10.221,0,0,0,1.5,2.186,3.415,3.415,0,0,0,2.407.934q2.8,0,2.8-2.555,0-1.474-2.162-2.752-.835-.417-1.671-.811t-1.694-.81a10.369,10.369,0,0,1-3.391-2.358,5.812,5.812,0,0,1-1.253-3.857,6.824,6.824,0,0,1,2.137-5.159,7.5,7.5,0,0,1,5.307-2.039Q247.015,629.688,249.25,634.429Z" fill="#212a34"/>
      <path id="Path_13076" data-name="Path 13076" d="M273.4,630.35h5.552v23.929H273.4v-2.506a10.616,10.616,0,0,1-15.551-.393,13.337,13.337,0,0,1-3.218-9.139,12.927,12.927,0,0,1,3.218-8.967,10.373,10.373,0,0,1,8.058-3.586,10.175,10.175,0,0,1,7.493,3.439Zm-13.119,11.891a8.335,8.335,0,0,0,1.842,5.6,6.036,6.036,0,0,0,4.766,2.187,6.343,6.343,0,0,0,4.963-2.113,9.1,9.1,0,0,0,0-11.1,6.254,6.254,0,0,0-4.913-2.138,6.111,6.111,0,0,0-4.766,2.162A7.968,7.968,0,0,0,260.281,642.241Z" fill="#212a34"/>
      <path id="Path_13077" data-name="Path 13077" d="M291.652,635.509v18.77H286.1v-18.77h-1.965V630.35H286.1v-9.237q0-4.52,1.572-6.387a7.709,7.709,0,0,1,6.29-2.6,10.812,10.812,0,0,1,3.709.86v5.65l-.564-.3a6.941,6.941,0,0,0-2.949-.908,2,2,0,0,0-1.989,1.056,10.164,10.164,0,0,0-.517,3.98v7.885h6.019v5.159Z" fill="#212a34"/>
      <path id="Path_13078" data-name="Path 13078" d="M301.087,620.4a3.606,3.606,0,0,1,3.587-3.562,3.48,3.48,0,0,1,2.554,1.056,3.4,3.4,0,0,1,1.057,2.531,3.483,3.483,0,0,1-1.057,2.555,3.4,3.4,0,0,1-2.53,1.056,3.606,3.606,0,0,1-3.611-3.636Zm6.362,9.949v23.929h-5.527V630.35Z" fill="#212a34"/>
      <path id="Path_13079" data-name="Path 13079" d="M313.321,642.143a11.889,11.889,0,0,1,3.71-8.82,13.088,13.088,0,0,1,18.13.025,12.811,12.811,0,0,1-.025,18.007,12.677,12.677,0,0,1-9.164,3.612,12.163,12.163,0,0,1-9.016-3.685A12.4,12.4,0,0,1,313.321,642.143Zm5.65.1a8.073,8.073,0,0,0,1.916,5.675,7.446,7.446,0,0,0,10.367.025,8.981,8.981,0,0,0,0-11.153,7.352,7.352,0,0,0-10.318,0A7.687,7.687,0,0,0,318.971,642.241Z" fill="#212a34"/>
      <path id="Path_13080" data-name="Path 13080" d="M377.859,667.3V651.6a10.46,10.46,0,0,1-15.552-.2,12.925,12.925,0,0,1-3.218-8.967,13.3,13.3,0,0,1,3.218-9.115,10.442,10.442,0,0,1,8.132-3.635,10.231,10.231,0,0,1,7.42,3.267V630.35h5.551V667.3ZM364.74,642.192a8.3,8.3,0,0,0,1.867,5.626,5.935,5.935,0,0,0,4.741,2.211,6.315,6.315,0,0,0,4.938-2.113,8.005,8.005,0,0,0,1.916-5.552,8.187,8.187,0,0,0-1.891-5.552,6.256,6.256,0,0,0-4.914-2.138,6.112,6.112,0,0,0-4.766,2.162A7.9,7.9,0,0,0,364.74,642.192Z" fill="#212a34"/>
      <path id="Path_13081" data-name="Path 13081" d="M396.48,630.35v13.734q0,5.946,4.692,5.945t4.692-5.945V630.35h5.528v13.857a15.411,15.411,0,0,1-.713,4.962,8.31,8.31,0,0,1-2.383,3.365,11.61,11.61,0,0,1-14.223,0,8.448,8.448,0,0,1-2.433-3.365,13.7,13.7,0,0,1-.687-4.962V630.35Z" fill="#212a34"/>
      <path id="Path_13082" data-name="Path 13082" d="M440.16,643.617H423.012a7.265,7.265,0,0,0,1.916,4.692,5.841,5.841,0,0,0,4.348,1.72,5.658,5.658,0,0,0,3.415-.983,13.966,13.966,0,0,0,3.022-3.636l4.668,2.6a18.587,18.587,0,0,1-2.285,3.157,12.1,12.1,0,0,1-2.58,2.162,10.315,10.315,0,0,1-2.972,1.24,14.472,14.472,0,0,1-3.464.394,11.263,11.263,0,0,1-8.6-3.439,12.9,12.9,0,0,1-3.243-9.189,13.258,13.258,0,0,1,3.144-9.188,11.986,11.986,0,0,1,16.755-.1q3.047,3.341,3.046,9.262Zm-5.675-4.521q-1.155-4.421-5.577-4.422a5.746,5.746,0,0,0-1.892.307,5.421,5.421,0,0,0-1.609.885,5.58,5.58,0,0,0-1.24,1.388,6.447,6.447,0,0,0-.787,1.842Z" fill="#212a34"/>
      <path id="Path_13083" data-name="Path 13083" d="M461.73,630.35h5.527v2.212a11.49,11.49,0,0,1,2.727-2.26,6.606,6.606,0,0,1,3.022-.614,7.335,7.335,0,0,1,6.412,3.537,8.3,8.3,0,0,1,7.051-3.537q8.082,0,8.082,9.8v14.79H489V640.988a10.265,10.265,0,0,0-.835-4.864,3.031,3.031,0,0,0-2.826-1.45,3.607,3.607,0,0,0-3.329,1.72,11.076,11.076,0,0,0-1.043,5.528v12.357h-5.553V641.062q0-6.387-3.685-6.388a3.692,3.692,0,0,0-3.4,1.745,10.871,10.871,0,0,0-1.069,5.5v12.357H461.73Z" fill="#212a34"/>
      <path id="Path_13084" data-name="Path 13084" d="M507.055,630.35v13.734q0,5.946,4.693,5.945t4.692-5.945V630.35h5.528v13.857a15.412,15.412,0,0,1-.713,4.962,8.32,8.32,0,0,1-2.383,3.365,11.611,11.611,0,0,1-14.224,0,8.455,8.455,0,0,1-2.432-3.365,13.672,13.672,0,0,1-.688-4.962V630.35Z" fill="#212a34"/>
      <path id="Path_13085" data-name="Path 13085" d="M546.583,612.786h5.552v41.493h-5.552v-2.506a10.311,10.311,0,0,1-7.394,3.194,10.527,10.527,0,0,1-8.156-3.587,13.337,13.337,0,0,1-3.219-9.139,12.892,12.892,0,0,1,3.219-8.942,10.336,10.336,0,0,1,15.55-.172Zm-13.118,29.455a8.334,8.334,0,0,0,1.842,5.6,6.035,6.035,0,0,0,4.767,2.187,6.34,6.34,0,0,0,4.961-2.113,9.1,9.1,0,0,0,0-11.1,6.251,6.251,0,0,0-4.912-2.138,6.114,6.114,0,0,0-4.767,2.162A7.972,7.972,0,0,0,533.465,642.241Z" fill="#212a34"/>
      <path id="Path_13086" data-name="Path 13086" d="M576.752,630.35H582.3v23.929h-5.551v-2.506a10.617,10.617,0,0,1-15.552-.393,13.337,13.337,0,0,1-3.218-9.139,12.927,12.927,0,0,1,3.218-8.967,10.376,10.376,0,0,1,8.059-3.586,10.178,10.178,0,0,1,7.493,3.439Zm-13.119,11.891a8.335,8.335,0,0,0,1.842,5.6,6.035,6.035,0,0,0,4.766,2.187,6.344,6.344,0,0,0,4.963-2.113,9.1,9.1,0,0,0,0-11.1,6.258,6.258,0,0,0-4.914-2.138,6.112,6.112,0,0,0-4.766,2.162A7.972,7.972,0,0,0,563.633,642.241Z" fill="#212a34"/>
      <path id="Path_13087" data-name="Path 13087" d="M603.677,642.143a11.893,11.893,0,0,1,3.71-8.82,13.089,13.089,0,0,1,18.131.025,12.813,12.813,0,0,1-.025,18.007,12.681,12.681,0,0,1-9.164,3.612,12.161,12.161,0,0,1-9.016-3.685A12.394,12.394,0,0,1,603.677,642.143Zm5.651.1a8.073,8.073,0,0,0,1.916,5.675,7.446,7.446,0,0,0,10.367.025,8.981,8.981,0,0,0,0-11.153,7.352,7.352,0,0,0-10.318,0A7.687,7.687,0,0,0,609.328,642.241Z" fill="#212a34"/>
      <path id="Path_13088" data-name="Path 13088" d="M649.74,620.4a3.606,3.606,0,0,1,3.586-3.562,3.479,3.479,0,0,1,2.555,1.056,3.4,3.4,0,0,1,1.057,2.531,3.483,3.483,0,0,1-1.057,2.555,3.4,3.4,0,0,1-2.53,1.056,3.606,3.606,0,0,1-3.611-3.636Zm6.362,9.949V667.3h-5.527V630.35Z" fill="#212a34"/>
      <path id="Path_13089" data-name="Path 13089" d="M661.974,642.143a11.893,11.893,0,0,1,3.71-8.82,13.089,13.089,0,0,1,18.131.025,12.813,12.813,0,0,1-.025,18.007,12.679,12.679,0,0,1-9.164,3.612,12.163,12.163,0,0,1-9.016-3.685A12.394,12.394,0,0,1,661.974,642.143Zm5.651.1a8.073,8.073,0,0,0,1.916,5.675,7.447,7.447,0,0,0,10.368.025,8.985,8.985,0,0,0,0-11.153,7.352,7.352,0,0,0-10.318,0A7.683,7.683,0,0,0,667.625,642.241Z" fill="#212a34"/>
      <path id="Path_13090" data-name="Path 13090" d="M716.487,653.714q0,1.7-.11,2.985a20.566,20.566,0,0,1-.307,2.272,10.12,10.12,0,0,1-2.309,4.643,11.2,11.2,0,0,1-8.919,3.735,11.9,11.9,0,0,1-7.885-2.58,10.539,10.539,0,0,1-3.685-7.345h5.552a6.291,6.291,0,0,0,1.056,2.726,5.936,5.936,0,0,0,5.012,2.236q6.067,0,6.068-7.444V651.6a10.322,10.322,0,0,1-7.591,3.366,10.194,10.194,0,0,1-8.009-3.538,13.106,13.106,0,0,1-3.144-8.967,13.808,13.808,0,0,1,2.922-8.893,10.162,10.162,0,0,1,8.3-3.881,9.644,9.644,0,0,1,7.517,3.365v-2.7h5.527Zm-5.306-11.35a8.054,8.054,0,0,0-1.866-5.576,6.173,6.173,0,0,0-4.841-2.138,5.95,5.95,0,0,0-4.962,2.334,9.615,9.615,0,0,0,0,10.76,5.956,5.956,0,0,0,4.962,2.285,6.069,6.069,0,0,0,5.012-2.309A8.222,8.222,0,0,0,711.181,642.364Z" fill="#212a34"/>
      <path id="Path_13091" data-name="Path 13091" d="M722.335,642.143a11.889,11.889,0,0,1,3.71-8.82,13.088,13.088,0,0,1,18.13.025,12.814,12.814,0,0,1-.024,18.007,12.683,12.683,0,0,1-9.165,3.612,12.163,12.163,0,0,1-9.016-3.685A12.393,12.393,0,0,1,722.335,642.143Zm5.65.1a8.073,8.073,0,0,0,1.916,5.675,7.447,7.447,0,0,0,10.368.025,8.981,8.981,0,0,0,0-11.153,7.352,7.352,0,0,0-10.318,0A7.683,7.683,0,0,0,727.985,642.241Z" fill="#212a34"/>
      <path id="Path_13092" data-name="Path 13092" d="M755.157,651.528a3.415,3.415,0,0,1,6.829.024,3.314,3.314,0,0,1-1.007,2.432,3.47,3.47,0,0,1-4.84,0A3.331,3.331,0,0,1,755.157,651.528Zm.638-5.7v-29.48h5.552v29.48Z" fill="#212a34"/>
    </g>
    <path id="Path_13093" data-name="Path 13093" d="M64.344,467.745h36.913l45.462,126.089H116.024l-11.269-33.222H58.711L47.635,593.834H17.717Zm33.805,72.66L82.219,493H81.44l-15.93,47.4Z" fill="#212a34"/>
    <path id="Path_13094" data-name="Path 13094" d="M160.708,467.745h50.513q18.455,0,29.239,2.525t15.737,8.84q4.955,6.317,4.954,17.583v23.9q0,12.435-5.342,19.428t-16.9,9.908q-11.563,2.913-31.184,2.914H191.016v40.994H160.708Zm49.542,64.308q11.846,0,16.707-2.819t4.857-9.616v-20.2q0-6.217-4.661-8.161-4.475-1.939-17.292-1.943H191.016v42.743Z" fill="#212a34"/>
    <path id="Path_13095" data-name="Path 13095" d="M320.116,594.417a104.273,104.273,0,0,1-18.36-4.664,32.375,32.375,0,0,1-16.124-11.365q-5.83-7.869-5.829-19.136V504.075a33.328,33.328,0,0,1,4.176-16.707,32.863,32.863,0,0,1,10.784-11.658,57.156,57.156,0,0,1,14.377-6.217,78.3,78.3,0,0,1,15.93-3.108q6.8-.584,14.377-.583a154.619,154.619,0,0,1,15.543.679,99.4,99.4,0,0,1,14.765,2.819A58.772,58.772,0,0,1,385.1,475.9a31.574,31.574,0,0,1,10.1,10.88q4.272,7.188,4.274,17.29v55.177a29.791,29.791,0,0,1-5.536,18.068,33.991,33.991,0,0,1-15.252,11.463q-17.484,6.993-39.245,6.993A127.826,127.826,0,0,1,320.116,594.417Zm30.5-20.692a52.894,52.894,0,0,0,9.033-1.845,13.2,13.2,0,0,0,7.092-4.565,12.979,12.979,0,0,0,2.428-8.063V503.881q0-8.934-7.189-12.726t-22.342-3.787q-15.154,0-22.342,3.691t-7.189,12.822v55.371a12.621,12.621,0,0,0,2.526,8.063,13.767,13.767,0,0,0,7.383,4.565,52.9,52.9,0,0,0,9.034,1.845,120.1,120.1,0,0,0,21.566,0Z" fill="#212a34"/>
    <path id="Path_13096" data-name="Path 13096" d="M420.073,592.279V569.16q33.027,5.055,45.074,5.05,25.252,0,25.257-13.015v-8.161q0-6.215-3.6-9.519t-12.92-3.3H459.124q-41.578,0-41.576-33.029v-9.324q0-16.512,13.794-24.285t43.713-7.772a389.079,389.079,0,0,1,39.44,2.526v22.536q-29.338-3.5-40.411-3.5-15.35,0-20.6,2.525-5.636,2.723-5.633,8.548v8.938q0,9.908,16.708,9.907h15.154q21.566,0,31.28,7.966t9.714,24.286v8.353q0,22.542-16.126,30.5a58.431,58.431,0,0,1-17.194,5.731,133.431,133.431,0,0,1-22.634,1.651Q446.689,595.776,420.073,592.279Z" fill="#212a34"/>
    <path id="Path_13097" data-name="Path 13097" d="M570.833,489.31H531.976V467.745H639.8V489.31H601.14V593.834H570.833Z" fill="#212a34"/>
    <path id="Path_13098" data-name="Path 13098" d="M678.832,467.745h36.913l45.462,126.089H730.512l-11.269-33.222H673.2l-11.075,33.222H632.205Zm33.805,72.66L696.707,493h-.779L680,540.405Z" fill="#212a34"/>
  </g>
</svg>
