<svg xmlns="http://www.w3.org/2000/svg" xmlns:xlink="http://www.w3.org/1999/xlink" width="196" height="220" viewBox="0 0 196 220">
  <defs>
    <clipPath id="clip-path">
      <rect id="Rectangle_4786" data-name="Rectangle 4786" width="196" height="220" transform="translate(1994 3238)" fill="#fff" stroke="#707070" stroke-width="1"/>
    </clipPath>
    <filter id="Path_24395" x="-117.223" y="-104.797" width="426.778" height="426.76" filterUnits="userSpaceOnUse">
      <feOffset input="SourceAlpha"/>
      <feGaussianBlur stdDeviation="48.18" result="blur"/>
      <feFlood flood-color="#480056"/>
      <feComposite operator="in" in2="blur"/>
      <feComposite in="SourceGraphic"/>
    </filter>
    <clipPath id="clip-path-2">
      <circle id="Ellipse_36" data-name="Ellipse 36" cx="56.478" cy="56.478" r="56.478" transform="translate(0 0)" fill="none"/>
    </clipPath>
    <filter id="Path_349" x="-1.235" y="81.498" width="60.907" height="79.018" filterUnits="userSpaceOnUse">
      <feOffset input="SourceAlpha"/>
      <feGaussianBlur stdDeviation="3" result="blur-2"/>
      <feFlood flood-opacity="0.396"/>
      <feComposite operator="in" in2="blur-2"/>
      <feComposite in="SourceGraphic"/>
    </filter>
    <filter id="Path_350" x="24.833" y="80.262" width="59.023" height="75.359" filterUnits="userSpaceOnUse">
      <feOffset input="SourceAlpha"/>
      <feGaussianBlur stdDeviation="3" result="blur-3"/>
      <feFlood flood-opacity="0.396"/>
      <feComposite operator="in" in2="blur-3"/>
      <feComposite in="SourceGraphic"/>
    </filter>
    <filter id="Path_351" x="56.511" y="74.942" width="54.563" height="73.924" filterUnits="userSpaceOnUse">
      <feOffset input="SourceAlpha"/>
      <feGaussianBlur stdDeviation="3" result="blur-4"/>
      <feFlood flood-opacity="0.396"/>
      <feComposite operator="in" in2="blur-4"/>
      <feComposite in="SourceGraphic"/>
    </filter>
    <filter id="Path_352" x="77.196" y="70.161" width="63.021" height="73.294" filterUnits="userSpaceOnUse">
      <feOffset input="SourceAlpha"/>
      <feGaussianBlur stdDeviation="3" result="blur-5"/>
      <feFlood flood-opacity="0.396"/>
      <feComposite operator="in" in2="blur-5"/>
      <feComposite in="SourceGraphic"/>
    </filter>
    <filter id="Path_353" x="110.732" y="64.646" width="59.991" height="70.588" filterUnits="userSpaceOnUse">
      <feOffset input="SourceAlpha"/>
      <feGaussianBlur stdDeviation="3" result="blur-6"/>
      <feFlood flood-opacity="0.396"/>
      <feComposite operator="in" in2="blur-6"/>
      <feComposite in="SourceGraphic"/>
    </filter>
    <filter id="Path_354" x="135.491" y="62.242" width="60.962" height="68.372" filterUnits="userSpaceOnUse">
      <feOffset input="SourceAlpha"/>
      <feGaussianBlur stdDeviation="3" result="blur-7"/>
      <feFlood flood-opacity="0.396"/>
      <feComposite operator="in" in2="blur-7"/>
      <feComposite in="SourceGraphic"/>
    </filter>
    <linearGradient id="linear-gradient" x1="0.5" x2="0.5" y2="1" gradientUnits="objectBoundingBox">
      <stop offset="0" stop-color="#fff" stop-opacity="0"/>
      <stop offset="0.088" stop-color="#fff" stop-opacity="0.027"/>
      <stop offset="0.216" stop-color="#fff" stop-opacity="0.102"/>
      <stop offset="0.369" stop-color="#fff" stop-opacity="0.227"/>
      <stop offset="0.542" stop-color="#fff" stop-opacity="0.404"/>
      <stop offset="0.729" stop-color="#fff" stop-opacity="0.627"/>
      <stop offset="0.928" stop-color="#fff" stop-opacity="0.894"/>
      <stop offset="1" stop-color="#fff"/>
    </linearGradient>
    <linearGradient id="linear-gradient-6" x1="0.5" x2="0.5" y2="1" gradientUnits="objectBoundingBox">
      <stop offset="0" stop-color="#fff" stop-opacity="0"/>
      <stop offset="0.102" stop-color="#fefcfa" stop-opacity="0.02"/>
      <stop offset="0.227" stop-color="#fef5ec" stop-opacity="0.082"/>
      <stop offset="0.364" stop-color="#feead5" stop-opacity="0.18"/>
      <stop offset="0.509" stop-color="#fddbb5" stop-opacity="0.318"/>
      <stop offset="0.662" stop-color="#fdc78c" stop-opacity="0.498"/>
      <stop offset="0.821" stop-color="#fcae5a" stop-opacity="0.718"/>
      <stop offset="0.982" stop-color="#fb9220" stop-opacity="0.969"/>
      <stop offset="1" stop-color="#fb8f19"/>
    </linearGradient>
  </defs>
  <g id="logo" transform="translate(-1994 -3238)" clip-path="url(#clip-path)">
    <g id="Group_2458" data-name="Group 2458" transform="translate(2889.234 2590.445)">
      <g id="Facilino_Logo" transform="translate(-888.78 648)" style="isolation: isolate">
        <g id="Camada_1" data-name="Camada 1" transform="translate(23.388 41.798)">
          <g id="Group_10964" data-name="Group 10964">
            <circle id="Ellipse_28" data-name="Ellipse 28" cx="66.388" cy="66.388" r="66.388" transform="translate(0 0)" fill="none" stroke="rgba(255,255,255,0.3)" stroke-miterlimit="10" stroke-width="5"/>
            <g id="Group_10958" data-name="Group 10958">
              <circle id="Ellipse_29" data-name="Ellipse 29" cx="66.388" cy="66.388" r="66.388" transform="translate(0 0)" fill="#ddb100"/>
              <g id="Group_10957" data-name="Group 10957">
                <g id="Group_10956" data-name="Group 10956" opacity="0.8" style="mix-blend-mode: multiply;isolation: isolate">
                  <path id="Ellipse_30" data-name="Ellipse 30" d="M66.388,0A66.388,66.388,0,1,1,0,66.388,66.388,66.388,0,0,1,66.388,0Z" transform="translate(0 0)" fill="#fff"/>
                </g>
              </g>
            </g>
            <g transform="matrix(1, 0, 0, 1, -29.84, -42.24)" filter="url(#Path_24395)">
              <path id="Path_24395-2" data-name="Path 24395" d="M66.388,0a66.333,66.333,0,1,1-7.113.377A66.237,66.237,0,0,1,66.388,0Z" transform="translate(29.84 42.24)" fill="none" stroke="rgba(255,255,255,0.3)" stroke-width="5"/>
            </g>
            <path id="Ellipse_32" data-name="Ellipse 32" d="M61.129,0A61.129,61.129,0,1,1,0,61.129,61.129,61.129,0,0,1,61.129,0Z" transform="translate(5.258 5.258)" fill="#52329d"/>
            <g id="Group_10961" data-name="Group 10961" transform="translate(7.22 7.22)">
              <circle id="Ellipse_33" data-name="Ellipse 33" cx="59.168" cy="59.168" r="59.168" transform="translate(0 0)" fill="#6a007d"/>
              <g id="Group_10960" data-name="Group 10960">
                <g id="Group_10959" data-name="Group 10959" opacity="0.8" style="mix-blend-mode: multiply;isolation: isolate">
                  <circle id="Ellipse_34" data-name="Ellipse 34" cx="59.168" cy="59.168" r="59.168" transform="translate(0 0)" fill="#070056"/>
                </g>
              </g>
            </g>
            <circle id="Ellipse_35" data-name="Ellipse 35" cx="56.478" cy="56.478" r="56.478" transform="translate(9.909 9.909)" fill="#2e136b"/>
            <g id="Group_10963" data-name="Group 10963" transform="translate(9.909 9.909)" clip-path="url(#clip-path-2)">
              <g id="Group_10962" data-name="Group 10962" transform="translate(-22.205 -28.492)">
                <path id="Path_24194" data-name="Path 24194" d="M453.235,553.787l9.329-9.329,4.168-11.908H418.9l4.564,13.1,9.329,7.94ZM463.843,534.1l-2.756,9.068L444.9,533.655l18.937.444Zm-4,10.579-7.558,7.112-8.269-16.98,15.825,9.868Zm-9.779,7.29-15.2-.267,7.423-16.847Zm-29.249-18.315h18.892l-14.8,10.757Zm19.649,1.333L433,551.525l-6.934-5.511Z" transform="translate(-365.157 -447.347)" fill="#581db4"/>
                <path id="Path_24195" data-name="Path 24195" d="M584.635,550.57l1.24-4.267-8.535-.413Z" transform="translate(-490.744 -457.921)" fill="#581db4"/>
                <path id="Path_24196" data-name="Path 24196" d="M568.116,571.347l-7.446-5.167,4.711,8.358Z" transform="translate(-477.53 -474.004)" fill="#581db4"/>
                <path id="Path_24197" data-name="Path 24197" d="M523.889,579.187l-3.824-8.717-2.756,8.564Z" transform="translate(-443.161 -477.404)" fill="#581db4"/>
                <path id="Path_24198" data-name="Path 24198" d="M471,570.781l2.553,2.38,4.738-9.121Z" transform="translate(-406.453 -472.308)" fill="#581db4"/>
                <path id="Path_24199" data-name="Path 24199" d="M443.65,545.948l1.816,4.894,8.389-5.171Z" transform="translate(-384.775 -457.747)" fill="#581db4"/>
                <path id="Path_24200" data-name="Path 24200" d="M829.035,764.6l-4.595,7.373,6.726-5.945Z" transform="translate(-686.607 -631.281)" fill="#581db4"/>
                <path id="Path_24201" data-name="Path 24201" d="M816.43,760.231l4.294-7.8L817.9,750.34Z" transform="translate(-680.258 -619.978)" fill="#581db4"/>
                <path id="Path_24202" data-name="Path 24202" d="M791.58,762.4l3.428,2.93,1.1-7.626Z" transform="translate(-660.561 -625.812)" fill="#581db4"/>
                <path id="Path_24203" data-name="Path 24203" d="M613.36,641.506l-19.918-.056L611.7,656.406l-2.142,1.476-5.9-5.812-1.483.444,5.764,6.48-.015.01.649.7.2.226h0l.57.616,3.89-2.876,3.485,2.855-2.159,1.889.829,1.068L617.9,661.5l2.152,1.765-6.364,5.905L592.38,642.437l10.952,29.653,11.8-1.132-.015-.019,6.389-6.5,3.117,2.553-3.413,3.129,1.215,1.512,3.54-3.54,2.476,2.028-6.726,7.023,1.333,1.808,8.269-8.387-34.771-27.916,16.364.288,25.1,17.229-2.119.921-23.008-16.37-10.988-.734,30.251,24.975,3.784-3.921-5.762-3.718L629.1,662.83l3.836,2.747-.991.691-25.834-20.5,7.239.815,24.013,17.685,2.629-2.53,9.88,6.608-9.837,7.732,1.333.889,10.133-6.689,6.639,3.989,1.055-.728L636.728,657.87l-23.364-16.364Zm-17.849,6.05,8.613,11.917-4.077.773c-2.218-6.129-4.536-12.69-4.536-12.69Zm5.4,15.074,4.609-1.223,2.407,3.33-5.833,1.109c-.363-.986-.763-2.075-1.179-3.215Zm3.119,8.02a15.642,15.642,0,0,1-1.082-2.544l6.585-1.147,2.069,2.861Z" transform="translate(-502.665 -533.666)" fill="#581db4"/>
                <path id="Path_24204" data-name="Path 24204" d="M675.334,617.426l11.371-5.14L643.24,595.15l32.1,22.276Zm7.879-5.049-7.823,3.674-3.558-2.47,4.454-4.012,6.93,2.807Zm-15.678-6.353,5.588,2.264-2.66,4.342-5.644-3.919,2.718-2.689Zm-4.464,1.476L651.7,599.608l13.063,5.294Z" transform="translate(-542.979 -496.967)" fill="#581db4"/>
                <path id="Path_24205" data-name="Path 24205" d="M405.643,645.382l-20.393,29.45,11.379,5.511,9.014-34.964ZM403.37,650.4s-1.184,4.547-2.874,10.722l-2.882-1.922Zm-7.1,10.861,3.662,1.933c-.452,1.642-.933,3.37-1.431,5.132l-4.993-2.845,2.762-4.222ZM387.74,674.3l4.392-6.712,5.719,3.031c-.69,2.422-1.4,4.873-2.109,7.237Z" transform="translate(-338.484 -536.782)" fill="#581db4"/>
                <path id="Path_24206" data-name="Path 24206" d="M270.645,602.09,227.75,626.769l12.92,10.55Zm-5.576,4.836-6.048,6.8-1.632-2.387Zm-9.188,5.279,2.053,2.741-3.345,3.761-3.965-3.481Zm-7.535,4.33,4.429,4.213-4.124,4.636-5.947-5.607,5.644-3.243Zm-8.19,4.707,6.778,6.071-2.944,3.309-8.24-6.849,4.406-2.532Zm-6.059,3.481,8.734,7.205-2.159,2.428-9.721-7.823,3.146-1.808Z" transform="translate(-213.642 -502.468)" fill="#581db4"/>
                <path id="Path_24207" data-name="Path 24207" d="M287.431,817.375,266.71,808.16l-3.631,15.184-3.1,2.428,1.105,5.414,14.96,4.989-1.167-11.941,12.555-6.857ZM267.2,810.229l16.673,7.311-3.09,2.239-14.116-6.3.535-3.251Zm-.525,4.7,11.45,5.866-2.984,2.4-9.3-4.728.836-3.544Zm-1.435,4.879,8.336,4.106.164,4.744-10-4.286,1.505-4.564Zm-3.1,10.009-.62-4.236,12.711,4.566.313,3.662-12.4-3.991Z" transform="translate(-239.189 -665.809)" fill="#581db4"/>
                <path id="Path_24208" data-name="Path 24208" d="M274.727,901.572l1.184.616.41-1.279-2.071-.8Z" transform="translate(-250.5 -738.693)" fill="#581db4"/>
                <path id="Path_24209" data-name="Path 24209" d="M313.18,914.27l.1,1.273,1.342.4-.048-1.147Z" transform="translate(-281.358 -749.917)" fill="#581db4"/>
                <path id="Path_24210" data-name="Path 24210" d="M290.87,908.935l3.081,1,.114-1.3-2.851-.8Z" transform="translate(-263.674 -744.812)" fill="#581db4"/>
                <path id="Path_24211" data-name="Path 24211" d="M313.88,887.388l1.078.429.015-2.347-.993-.521Z" transform="translate(-281.913 -726.676)" fill="#581db4"/>
                <path id="Path_24212" data-name="Path 24212" d="M296.872,880.317l2.26,1.014c.023-.093.421-2.241.421-2.241l-1.908-1.06-.775,2.287Z" transform="translate(-268.43 -721.191)" fill="#581db4"/>
                <path id="Path_24213" data-name="Path 24213" d="M286.6,874.873l.97.228.931-2.177-1.209-.554Z" transform="translate(-260.289 -716.705)" fill="#581db4"/>
                <path id="Path_24214" data-name="Path 24214" d="M325.39,863.64l-.68,1.25.881.554,1.509-.914Z" transform="translate(-290.497 -709.785)" fill="#581db4"/>
                <path id="Path_24215" data-name="Path 24215" d="M307.42,855.781l2.268,1.209.7-1.29-2.53-1.35Z" transform="translate(-276.792 -702.421)" fill="#581db4"/>
                <path id="Path_24216" data-name="Path 24216" d="M296.87,849.985l.836.363c0-.079.338-1.337.338-1.337l-.858-.57-.313,1.545Z" transform="translate(-268.43 -697.737)" fill="#581db4"/>
                <path id="Path_24217" data-name="Path 24217" d="M343.63,846.92l1.9.869,1.387-.657-2.494-1.182Z" transform="translate(-305.494 -695.763)" fill="#581db4"/>
                <path id="Path_24218" data-name="Path 24218" d="M319.36,836.186l3.608,1.57.7-.906-3.651-1.609Z" transform="translate(-286.256 -687.274)" fill="#581db4"/>
                <path id="Path_24219" data-name="Path 24219" d="M304.39,828.327l1.57.635.618-1.08-1.968-.941Z" transform="translate(-274.39 -680.695)" fill="#581db4"/>
                <path id="Path_24220" data-name="Path 24220" d="M593.24,854.618l2.665,11.96,1.169-1.093-2.2-9.341,9.542-2.882,3.6,13.094,1.192-.342L605.72,851.86Z" transform="translate(-503.347 -700.448)" fill="#581db4"/>
                <path id="Path_24221" data-name="Path 24221" d="M611.88,870.563l2.142,8.738,1.439-.4-2.271-7.4,3.643-1.4,2.76,8.852.966-.411-3.108-10.2Z" transform="translate(-518.122 -713.511)" fill="#581db4"/>
                <path id="Path_24222" data-name="Path 24222" d="M605.921,601.585l-2.358,1.555.846.579,1.512-.711,4.357,2.667-11.914.089,6.225-4.979-1.6-1.155-7.647,7.288H614.1Z" transform="translate(-505.011 -500.518)" fill="#581db4"/>
                <path id="Path_24223" data-name="Path 24223" d="M815.93,686.232l-10.49,4.8,19.56,12.8-.178-3.734-8.535-5.868-.357-8Zm-1.955,8-6.046-3.023,6.046-1.779v4.8Z" transform="translate(-671.547 -569.161)" fill="#581db4"/>
                <path id="Path_24224" data-name="Path 24224" d="M454.681,615.7l-6.4-6c.711.979,5.422,7.512,5.422,7.512Z" transform="translate(-388.444 -508.5)" fill="#581db4"/>
                <path id="Path_24225" data-name="Path 24225" d="M330.663,615.463l-6.181-8.763L294.36,642.041l14.936,5.69Zm-6.811-5.762,2.648,3.268-2.312,2.237-2.957-2.546Zm-3.239,3.981,3.558,3.583,2.837-3.056,1.491,2.144-5.209,7.774-2.441-1.92,2.4-3.1-4.3-3.324,1.665-2.1Zm-3.2,3.583,3.72,2.536-2.627,3.386,3.585,2.447-1.041,1.655-3.971-2.787-3.345,4.2-3.915-2.179Zm-9.059,10.546,5.215,2.8,3.222-3.786,3.17,2.055-6.2,9.484-3.276-1.808,2.571-4.1-6.285-2.727Zm-10.621,13.08,7.886-9.52,5.285,2.32-2.465,3.855,4.363,2.223-1.091,1.874-4.157-2.629-3.029,4.483-6.793-2.6Zm7.946,2.959,2.028-3.042,2.874,1.522-1.607,2.536-3.3-1.014Z" transform="translate(-266.44 -506.122)" fill="#581db4"/>
                <path id="Path_24226" data-name="Path 24226" d="M829.8,634.308l.533,9.067,1.957.711-1.068-11.023-7.645-3.556,11.025-3.734.176-2.134-14.757,6.044Z" transform="translate(-683.104 -519.549)" fill="#581db4"/>
                <path id="Path_24227" data-name="Path 24227" d="M542.208,675.913l4.446,4.8,3.2-.357-7.112-6.579-9.068,7.112-9.424-8-9.25,9.96-7.288-9.246-14.166,1.659-10.432-32.007-16.565-.326,4.089,16,5.719,26.879-18.966-3.081,5.1-21.16,5.69.118,3.378,19.678-10.9-1.719-.178,1.661,12.742,1.777-2.963-18.2-1.008-4.327L461.9,660.2l-6.046,23.472,22.168,3.556L472.061,658.7l-3.913-14.434,14.469.178-.006.014,11.765,40.527,2.134-.593-2.134-7.112,12.269-1.9,19.738,27.74,2.31-.711-13.156-17.782,8.889-9.246,22.761,22.761.89-1.779-14.048-14.048Z" transform="translate(-394.445 -534.84)" fill="#581db4"/>
                <path id="Path_24228" data-name="Path 24228" d="M720.532,784.85l-1.422,1.483,1.3,1.748,1.3-1.541Z" transform="translate(-603.117 -647.332)" fill="#581db4"/>
                <path id="Path_24229" data-name="Path 24229" d="M688.938,746.55l-1.408,1.207.91,1.246,1.327-1.267Z" transform="translate(-578.086 -616.974)" fill="#581db4"/>
                <path id="Path_24230" data-name="Path 24230" d="M766.206,845.369l-1.422-1.244-3.467,2.667-2.845-3.2-.622.89,6.579,8.891,1.244-1.068-3.38-3.822Z" transform="translate(-633.825 -693.893)" fill="#581db4"/>
                <path id="Path_24231" data-name="Path 24231" d="M790.149,829.3l3.645,4,1.244-1.422L784.816,821.3l-1.246.977,5.246,5.868-3.378,3.2.977.89Z" transform="translate(-654.212 -676.224)" fill="#581db4"/>
                <path id="Path_24232" data-name="Path 24232" d="M802.359,893.405l-2.312,2.134-2.9-3.349-1.422,1.155,5.217,5.75.533-2.134,2.073-2.194Z" transform="translate(-663.842 -732.415)" fill="#581db4"/>
                <path id="Path_24233" data-name="Path 24233" d="M833.177,879.655l2.756,2.756-3.913,3.645,2.134,1.066L837,883.655l3.556,3.378,1.6-1.333-7.734-7.38Z" transform="translate(-692.615 -721.421)" fill="#581db4"/>
                <path id="Path_24234" data-name="Path 24234" d="M861.2,847.7l2.963-3.911L851.6,838.81Z" transform="translate(-708.135 -690.104)" fill="#581db4"/>
                <path id="Path_24235" data-name="Path 24235" d="M855.61,818.547l9.275,3.183-5.968-5.87Z" transform="translate(-711.314 -671.912)" fill="#581db4"/>
                <path id="Path_24236" data-name="Path 24236" d="M665.942,809.72l-8,1.955,17.069,10.847Zm-1.068,1.6,6.579,7.469-10.847-6.4Z" transform="translate(-554.631 -667.046)" fill="#581db4"/>
                <path id="Path_24237" data-name="Path 24237" d="M659.37,832.02,662.808,845l14.581-1.6Zm2.194,2.845,12.091,7.823-9.957.89Z" transform="translate(-555.765 -684.722)" fill="#581db4"/>
                <path id="Path_24238" data-name="Path 24238" d="M677.662,897.516l.829,5.393,1.717.031c-.278-1.79-.591-3.944-.591-3.944l11.558-.89,2.6,5.078,4.329.079-5.157-6.934-15.292,1.186Z" transform="translate(-570.262 -735.697)" fill="#581db4"/>
                <path id="Path_24239" data-name="Path 24239" d="M223.655,681.745l2.37-4.624,13.04,6.994,10.314-40.185-1.9.118-9.364,37.933-12.329-6.637-3.2,4.267-16.953-6.519L184.3,702.252l1.659.829L205.875,674.4Z" transform="translate(-179.201 -535.632)" fill="#581db4"/>
                <path id="Path_24240" data-name="Path 24240" d="M493.39,663.584l3.734.245-1.868-7.228Z" transform="translate(-424.201 -545.675)" fill="#581db4"/>
                <path id="Path_24241" data-name="Path 24241" d="M488.3,702.244l6.252.487-1.029-3.979-4.493-.243Z" transform="translate(-420.166 -578.895)" fill="#581db4"/>
                <path id="Path_24242" data-name="Path 24242" d="M483.58,767.411l6.341,1.008L485.3,756.45Z" transform="translate(-416.425 -624.821)" fill="#581db4"/>
                <path id="Path_24243" data-name="Path 24243" d="M499.7,741.05h-2.19l4.016,10.061Z" transform="translate(-427.467 -612.614)" fill="#581db4"/>
                <path id="Path_24244" data-name="Path 24244" d="M449.154,848.012l-1.3,9.957,11.379,1.541.236-5.572-8.771-1.422v-2.727l24.063,3.913,2.608,12.091h1.779l-2.963-13.752-27.026-4.031Zm8.773,7.112-.236,3.2-7.469-1.3.236-2.845Z" transform="translate(-388.104 -697.396)" fill="#581db4"/>
                <path id="Path_24245" data-name="Path 24245" d="M557.329,775.984l-4.622-19.338,7.823-.176,1.777,7.467-6.283.711.593,2.49,8.713-1.244-3.556-11.914-11.025.89,3.956,20.493Z" transform="translate(-469.667 -622.863)" fill="#581db4"/>
                <path id="Path_24246" data-name="Path 24246" d="M535.069,660.814H532.4l3.467,14.846,6.936-.533-4.178-18.048-11.025.357,4.622,18.67,1.512-.267-4.267-17.069,7.913-.446,3.556,15.025-2.845.446Z" transform="translate(-451.317 -546.056)" fill="#581db4"/>
                <path id="Path_24247" data-name="Path 24247" d="M586.813,827.744l7.647-1.955-1.69-5.779-7.29,1.511.267,1.69,5.957-1.6.977,3.112-6.312,1.422Z" transform="translate(-497.196 -675.202)" fill="#581db4"/>
                <path id="Path_24248" data-name="Path 24248" d="M221.3,831.316l2.221-11.736-14.49,21.428,2.31.265,8.566-13.542-.711,5.1Z" transform="translate(-198.803 -674.861)" fill="#581db4"/>
                <path id="Path_24249" data-name="Path 24249" d="M355.7,822.56l-1.429-1.031,1.845-2.266-1.6-.829-1.58,2.134-2.345-1.692.249.091.711-1.779-1.6-.888-.709,1.6h0l-.068.164-.11.251h.006l-.363.885,4.86,4.385-14.342,8.3,1.066,8.062,1.779-.357-1.661-6.994,13.065-7.042-.025.048,7.38-3.5-1.926-1.126Z" transform="translate(-302.006 -672.261)" fill="#581db4"/>
                <path id="Path_24250" data-name="Path 24250" d="M368.247,878.886l1.439-.332-1.329-3.376,13.725-5.534.166-1.715-15.218,6.53Z" transform="translate(-324.042 -713.185)" fill="#581db4"/>
                <path id="Path_24251" data-name="Path 24251" d="M426.92,894.2l1.217.332.885-6.583-2.212.719Z" transform="translate(-371.426 -729.054)" fill="#581db4"/>
                <path id="Path_24252" data-name="Path 24252" d="M559.33,883.04l.89,8.535,2.756,1.69-1.69-9.868Z" transform="translate(-476.468 -725.163)" fill="#581db4"/>
                <path id="Path_24253" data-name="Path 24253" d="M533.259,879.18l-.089,9.157,2.4-.087-.178-8.624Z" transform="translate(-455.732 -722.103)" fill="#581db4"/>
                <path id="Path_24254" data-name="Path 24254" d="M223.007,752.871l12-15.825L222.74,726.11Zm4.535-19.381,4.356,4-4.8,6.49Zm-1.422-.89.267,13.069-1.866,2.4-.267-17.87,1.866,2.4Z" transform="translate(-209.671 -600.772)" fill="#581db4"/>
                <path id="Path_24255" data-name="Path 24255" d="M176.131,727.83l-7.691,31.094,6.092-7.179-.089,4.535-6.668,7.38-.243-1.062-1.8,7.286,10.4-13.337V727.832Zm-2.045,21.87-2.845,3.467,3.289-13.781Z" transform="translate(-164.482 -602.135)" fill="#581db4"/>
                <path id="Path_24256" data-name="Path 24256" d="M170.024,727.392l-10.314,11.2,3.645,12.8,6.668-24.005Zm-2.845,5.422L163.8,742.95l-.711-5.422,4.089-4.711Z" transform="translate(-159.71 -601.787)" fill="#581db4"/>
                <path id="Path_24257" data-name="Path 24257" d="M172.29,668.149l6.521-3.081-4.624-9.128-1.422.948,3.795,7.587-3.2,1.3Z" transform="translate(-169.681 -545.152)" fill="#581db4"/>
                <path id="Path_24258" data-name="Path 24258" d="M280.232,534.61l-6.952,10.28,9.615-4.141Z" transform="translate(-249.731 -448.98)" fill="#581db4"/>
                <path id="Path_24259" data-name="Path 24259" d="M285.734,634.551l1.955-1.066-1.066-2.136-2.134.711Z" transform="translate(-258.617 -525.661)" fill="#581db4"/>
                <path id="Path_24260" data-name="Path 24260" d="M307.389,625.054l2.074-1.333-.711-1.661L306.5,623.1Z" transform="translate(-276.063 -518.297)" fill="#581db4"/>
                <path id="Path_24261" data-name="Path 24261" d="M348.891,546.668l-3.2-8.358-8.445,2.312,2.667,6.136,1.69-.668-2.044-4.356,5.068-1.644,2.134,6.133-17.248,8.358.622,1.688Z" transform="translate(-294.302 -451.913)" fill="#581db4"/>
                <path id="Path_24262" data-name="Path 24262" d="M193.3,592.821l-1.068-3.2-4.5,1.779,2.015,3.792Z" transform="translate(-181.92 -492.583)" fill="#581db4"/>
                <path id="Path_24263" data-name="Path 24263" d="M173.44,557.12l1.777,4.385,4.742-1.659-2.134-5.1Z" transform="translate(-170.593 -464.944)" fill="#581db4"/>
                <path id="Path_24264" data-name="Path 24264" d="M170.475,570.588l45.874-24.774-.593-1.659-42.082,23.827-5.69-13.513,9.246-4.979-6.337-16.93h-1.551l5.99,16.812-9.482,4.978,6.283,14.224-3.674,1.541-6.4,4.979-1.779,4.031c.357-.355,10.2-8.535,10.2-8.535Z" transform="translate(-160.162 -447.355)" fill="#581db4"/>
                <path id="Path_24265" data-name="Path 24265" d="M227.631,548.69l19.47-7.734-3.971-8.4h-1.553l3.212,7.774-16.625,6.758-5.225-14.529H221.73c1.507,4.236,5.9,16.13,5.9,16.13Z" transform="translate(-208.87 -447.355)" fill="#581db4"/>
                <path id="Path_24266" data-name="Path 24266" d="M239.868,543l2.283-10.453H236.09Z" transform="translate(-220.252 -447.347)" fill="#581db4"/>
                <path id="Path_24267" data-name="Path 24267" d="M271.489,532.55h-3.282l-2.227,8.545Z" transform="translate(-243.945 -447.347)" fill="#581db4"/>
                <path id="Path_24268" data-name="Path 24268" d="M235.945,532.55h-1.978l4.589,9.464-21.871,8.713,3.826,8.414-8.647,3.983-2.488-6.521,4.74-2.37,1.543,3.2-4.388,2.015.711,1.186,5.453-2.727-2.488-6.4-7.587,4.149,4.267,10.075,10.683-6.125h.025l-4.05-7.993,23.116-8.889Z" transform="translate(-197.48 -447.347)" fill="#581db4"/>
                <path id="Path_24269" data-name="Path 24269" d="M657.736,532.55l13.047,20.132-26.139-8.891.925-2.847,16.144,4.981L658.69,542.9l-12.59-3.572.846-2.6,9.615,2.445-1.956-2.312-7.056-1.995.753-2.312h-1.7l-4.093,11.6L674.871,555.7l-15.107-23.15Z" transform="translate(-542.401 -447.347)" fill="#581db4"/>
                <path id="Path_24270" data-name="Path 24270" d="M751.115,554.282,737.181,532.55H735.11l15.29,23.866L773.163,546.1l-1.066-1.6Z" transform="translate(-615.8 -447.347)" fill="#581db4"/>
                <path id="Path_24271" data-name="Path 24271" d="M783.437,551.089l13.573-6.223-6.9-12.306h-2.664l1.329,2.26-9.246,4.357-2.312-4.089,7.514-2.527H780.6l-5.611,1.549,3.824,6.668,10.668-4.624,2.577,4.889-11.825,4.178,3.2,5.868Zm9.335-8.356,1.333,2.134-10.314,4.624-1.6-3.023,10.579-3.734Z" transform="translate(-647.41 -447.355)" fill="#581db4"/>
                <path id="Path_24272" data-name="Path 24272" d="M432.793,430.129l-9.329,7.939-4.564,13.1h47.832l-4.168-11.908-9.329-9.329Zm-11.981,19.933L424.9,439.3l14.8,10.757Zm5.246-12.358,6.934-5.511,7.469,16.536Zm8.8-5.69,15.2-.268-7.78,17.115Zm28.984,17.6-18.937.444,16.182-9.513,2.756,9.068Zm-19.825-.711,8.269-16.98,7.558,7.112L444.019,448.9Z" transform="translate(-365.157 -366.006)" fill="#581db4"/>
                <path id="Path_24273" data-name="Path 24273" d="M585.875,500.7l-1.24-4.267-7.295,4.682Z" transform="translate(-490.744 -418.717)" fill="#581db4"/>
                <path id="Path_24274" data-name="Path 24274" d="M568.116,461.6l-2.735-3.191-4.711,8.358Z" transform="translate(-477.53 -388.58)" fill="#581db4"/>
                <path id="Path_24275" data-name="Path 24275" d="M517.31,452.543l2.756,8.564,3.824-8.717Z" transform="translate(-443.161 -383.808)" fill="#581db4"/>
                <path id="Path_24276" data-name="Path 24276" d="M471,459.242l7.291,6.741-4.738-9.123Z" transform="translate(-406.453 -387.352)" fill="#581db4"/>
                <path id="Path_24277" data-name="Path 24277" d="M453.856,499.461l-8.389-5.171-1.816,4.891Z" transform="translate(-384.775 -417.02)" fill="#581db4"/>
                <path id="Path_24278" data-name="Path 24278" d="M831.166,270.685l-6.726-5.945,4.595,7.373Z" transform="translate(-686.607 -235.068)" fill="#581db4"/>
                <path id="Path_24279" data-name="Path 24279" d="M817.9,276.751l2.826-2.094-4.294-7.8Z" transform="translate(-680.258 -236.748)" fill="#581db4"/>
                <path id="Path_24280" data-name="Path 24280" d="M795.008,270.42l-3.428,2.93,4.533,4.7Z" transform="translate(-660.561 -239.57)" fill="#581db4"/>
                <path id="Path_24281" data-name="Path 24281" d="M651.468,251.276l-10.133-6.689-1.333.89,9.837,7.732-9.88,6.608-2.629-2.53-24.013,17.685-7.239.815,25.834-20.5.991.69-3.836,2.747,1.068,1.512,5.762-3.718-3.784-3.921L601.861,277.57l10.988-.734,23.008-16.37,2.119.921-25.1,17.229-16.364.288,34.771-27.916-8.269-8.387-1.333,1.808,6.727,7.023-2.476,2.028-3.539-3.54-1.215,1.512,3.413,3.129-3.116,2.552-6.389-6.5.015-.019-11.8-1.132L592.35,279.115l21.322-26.728,6.364,5.9-2.152,1.765-2.511-1.986-.829,1.068,2.159,1.889-3.486,2.855L609.327,261l-.57.616h0l-.2.226-.649.7.015.01-5.764,6.48,1.482.444,5.9-5.812,2.142,1.476L593.412,280.1l19.918-.056,23.364-16.364,22.464-15.667-1.055-.728-6.639,3.989Zm-55.981,22.717s2.318-6.563,4.537-12.69l4.077.773ZM605.5,260.142l-4.609-1.223c.417-1.14.817-2.229,1.184-3.216l5.833,1.109Zm4.014-5.553-6.586-1.147a15.612,15.612,0,0,1,1.082-2.544c.355.037,7.572.829,7.572.829Z" transform="translate(-502.641 -217.519)" fill="#581db4"/>
                <path id="Path_24282" data-name="Path 24282" d="M643.232,384.6,686.7,367.46l-11.371-5.14-32.1,22.28Zm8.466-4.458,11.367-7.892,1.7,2.6Zm15.831-6.415-2.719-2.689,5.644-3.919,2.66,4.342-5.588,2.264Zm15.678-6.353-6.93,2.808-4.454-4.012,3.558-2.47,7.823,3.674Z" transform="translate(-542.971 -312.415)" fill="#581db4"/>
                <path id="Path_24283" data-name="Path 24283" d="M385.25,256.393l20.393,29.45-9.014-34.964L385.25,256.39Zm18.12,24.428-5.756-8.8L400.5,270.1c1.688,6.173,2.874,10.722,2.874,10.722Zm-3.442-12.794-3.662,1.932-2.762-4.222,5-2.837c.5,1.759.974,3.486,1.428,5.128Zm-7.8-4.39-4.392-6.712,8-3.556c.707,2.364,1.418,4.815,2.109,7.237Z" transform="translate(-338.484 -224.082)" fill="#581db4"/>
                <path id="Path_24284" data-name="Path 24284" d="M227.75,303.46l42.895,24.679L240.67,292.91Zm37.319,19.846-7.68-4.415,1.632-2.387Zm-7.135-8.02-2.053,2.741-5.256-3.021,3.965-3.481Zm-5.161-5.8-4.429,4.213-5.644-3.243,5.947-5.607,4.124,4.636Zm-5.841-6.567-6.778,6.071-4.406-2.532,8.24-6.849Zm-12.837,2.59-3.146-1.808,9.721-7.823,2.159,2.428-8.734,7.2Z" transform="translate(-213.642 -257.397)" fill="#581db4"/>
                <path id="Path_24285" data-name="Path 24285" d="M266.7,149.653l20.721-9.215-12.555-6.857,1.167-11.941-14.96,4.989-1.105,5.414,3.1,2.428,3.631,15.184Zm-2.975-16.213,10-4.286-.164,4.744-8.33,4.1-1.505-4.564Zm20.138,6.832-16.673,7.311-.535-3.251,14.117-6.3,3.09,2.239Zm-8.734-5.659,2.984,2.4-11.45,5.866-.836-3.544,9.3-4.728ZM262.137,128l12.4-3.992-.313,3.662-12.711,4.566.62-4.236Z" transform="translate(-239.181 -121.64)" fill="#581db4"/>
                <path id="Path_24286" data-name="Path 24286" d="M274.727,155.386l-.477,1.462,2.071-.8-.41-1.279Z" transform="translate(-250.5 -147.9)" fill="#581db4"/>
                <path id="Path_24287" data-name="Path 24287" d="M313.18,144.225l1.389-.531.048-1.145-1.342.4Z" transform="translate(-281.358 -138.214)" fill="#581db4"/>
                <path id="Path_24288" data-name="Path 24288" d="M290.87,147.927l.344,1.1,2.851-.8-.114-1.3Z" transform="translate(-263.674 -141.686)" fill="#581db4"/>
                <path id="Path_24289" data-name="Path 24289" d="M313.88,166.547l.1,2.44.993-.52-.015-2.347Z" transform="translate(-281.913 -156.897)" fill="#581db4"/>
                <path id="Path_24290" data-name="Path 24290" d="M296.88,171.964l.775,2.287,1.908-1.06s-.4-2.146-.421-2.241l-2.26,1.014Z" transform="translate(-268.438 -160.725)" fill="#581db4"/>
                <path id="Path_24291" data-name="Path 24291" d="M286.6,179.588l.693,2.5,1.209-.554-.931-2.177Z" transform="translate(-260.289 -167.392)" fill="#581db4"/>
                <path id="Path_24292" data-name="Path 24292" d="M327.1,193.474l-1.509-.914-.881.554.68,1.25Z" transform="translate(-290.497 -177.855)" fill="#581db4"/>
                <path id="Path_24293" data-name="Path 24293" d="M310.393,199.1l-.7-1.292-2.268,1.211.444,1.431Z" transform="translate(-276.792 -182.016)" fill="#581db4"/>
                <path id="Path_24294" data-name="Path 24294" d="M298.044,208.6s-.34-1.259-.338-1.337l-.836.363.313,1.545.858-.57Z" transform="translate(-268.43 -189.507)" fill="#581db4"/>
                <path id="Path_24295" data-name="Path 24295" d="M346.917,210.735l-1.387-.655-1.9.869.792.97Z" transform="translate(-305.494 -191.742)" fill="#581db4"/>
                <path id="Path_24296" data-name="Path 24296" d="M323.667,218.434l-.7-.9-3.608,1.57.655.946Z" transform="translate(-286.256 -197.647)" fill="#581db4"/>
                <path id="Path_24297" data-name="Path 24297" d="M306.578,229.282l-.618-1.082-1.57.637.22,1.387Z" transform="translate(-274.39 -206.105)" fill="#581db4"/>
                <path id="Path_24298" data-name="Path 24298" d="M605.725,156.776l3.488-14.154-1.192-.34-3.6,13.094-9.542-2.884,2.2-9.339L595.9,142.06l-2.665,11.96Z" transform="translate(-503.347 -137.826)" fill="#581db4"/>
                <path id="Path_24299" data-name="Path 24299" d="M620.56,144.465l-.966-.411-2.76,8.852-3.643-1.4,2.271-7.4-1.439-.4-2.142,8.738,5.572,2.221Z" transform="translate(-518.122 -139.126)" fill="#581db4"/>
                <path id="Path_24300" data-name="Path 24300" d="M602.987,437.4l1.6-1.155-6.225-4.979,11.914.089-4.357,2.667-1.512-.711-.846.578,2.358,1.555,8.178-5.335H595.34Z" transform="translate(-505.011 -366.148)" fill="#581db4"/>
                <path id="Path_24301" data-name="Path 24301" d="M825,293.762l-19.559,12.8,10.49,4.8.357-8,8.535-5.868L825,293.76Zm-11.025,14.4-6.046-1.779,6.046-3.023v4.8Z" transform="translate(-671.547 -258.071)" fill="#581db4"/>
                <path id="Path_24302" data-name="Path 24302" d="M448.28,426.482l6.4-6-.979-1.512S448.991,425.5,448.28,426.482Z" transform="translate(-388.444 -357.318)" fill="#581db4"/>
                <path id="Path_24303" data-name="Path 24303" d="M294.35,266.01l30.122,35.341,6.181-8.763L309.286,260.32Zm29.494,32.339-2.621-2.959,2.957-2.546,2.312,2.237Zm4.647-6.652L327,293.84l-2.837-3.056-3.558,3.583-1.665-2.1,4.3-3.324-2.4-3.1,2.44-1.92,5.209,7.774Zm-6.407-9.281-3.585,2.447,2.627,3.386-3.72,2.536-7.593-9.256,3.915-2.179,3.345,4.2,3.971-2.787,1.041,1.655Zm-2.127-3.249-3.17,2.055-3.222-3.786-5.215,2.8-1.578-1.922,6.285-2.727-2.571-4.1,3.276-1.808ZM312.8,268.28l-4.363,2.223,2.465,3.855-5.285,2.32-7.886-9.52,6.793-2.6,3.029,4.483,4.157-2.629,1.091,1.874Zm-5.1-1.039-2.028-3.042,3.3-1.014,1.607,2.536-2.874,1.522Z" transform="translate(-266.432 -231.564)" fill="#581db4"/>
                <path id="Path_24304" data-name="Path 24304" d="M832.289,342.65l-1.957.711-.533,9.067-9.779,4.624,14.757,6.044-.176-2.134-11.025-3.734,7.645-3.556Z" transform="translate(-683.104 -296.823)" fill="#581db4"/>
                <path id="Path_24305" data-name="Path 24305" d="M494.376,157.532l2.134-7.112-2.134-.593-11.765,40.527.006.015-14.469.178,3.913-14.434,5.957-28.538-22.168,3.556L461.9,174.6l7.349-.355,1.008-4.327,2.963-18.2L460.474,153.5l.178,1.661,10.9-1.719-3.378,19.678-5.69.118-5.1-21.16L476.357,149l-5.719,26.879-4.089,16,16.565-.328,10.432-32,14.166,1.659L515,151.961l9.248,9.957,9.424-8,9.068,7.114,7.112-6.579-3.2-.357-4.446,4.8-8.18-6.4,14.048-14.046-.89-1.779-22.761,22.761-8.889-9.246L528.693,132.4l-2.31-.711-19.738,27.74Z" transform="translate(-394.445 -129.606)" fill="#581db4"/>
                <path id="Path_24306" data-name="Path 24306" d="M720.414,264.47l-1.3,1.748,1.422,1.483,1.186-1.69Z" transform="translate(-603.117 -234.854)" fill="#581db4"/>
                <path id="Path_24307" data-name="Path 24307" d="M689.767,307.787l-1.327-1.267-.91,1.244,1.408,1.209Z" transform="translate(-578.086 -268.185)" fill="#581db4"/>
                <path id="Path_24308" data-name="Path 24308" d="M762.293,179.029l3.38-3.822-1.244-1.068-6.579,8.891.622.887,2.845-3.2,3.467,2.667,1.422-1.244Z" transform="translate(-633.825 -163.254)" fill="#581db4"/>
                <path id="Path_24309" data-name="Path 24309" d="M795.039,187.142l-1.244-1.422-3.645,4-3.734-2.934-.977.89,3.378,3.2-5.246,5.866,1.246.979Z" transform="translate(-654.212 -172.433)" fill="#581db4"/>
                <path id="Path_24310" data-name="Path 24310" d="M797.142,146.315l2.9-3.349,2.312,2.134,1.184-1.362-2.073-2.194-.533-2.134-5.217,5.75Z" transform="translate(-663.842 -135.725)" fill="#581db4"/>
                <path id="Path_24311" data-name="Path 24311" d="M833.177,151.6l1.244,1.333,7.734-7.378-1.6-1.333L837,147.6l-2.845-3.467L832.02,145.2l3.913,3.645Z" transform="translate(-692.615 -139.467)" fill="#581db4"/>
                <path id="Path_24312" data-name="Path 24312" d="M851.6,192.109l12.565-4.979-2.965-3.91Z" transform="translate(-708.135 -170.451)" fill="#581db4"/>
                <path id="Path_24313" data-name="Path 24313" d="M864.885,220.73l-9.275,3.183,3.307,2.685Z" transform="translate(-711.314 -200.184)" fill="#581db4"/>
                <path id="Path_24314" data-name="Path 24314" d="M657.94,204.277l8,1.955,9.068-12.8Zm6.934.357-4.267-1.068,10.847-6.4Z" transform="translate(-554.631 -178.544)" fill="#581db4"/>
                <path id="Path_24315" data-name="Path 24315" d="M677.389,171.881l-14.581-1.6-3.438,12.98ZM663.7,171.7l9.957.89-12.091,7.823Z" transform="translate(-555.765 -160.194)" fill="#581db4"/>
                <path id="Path_24316" data-name="Path 24316" d="M698.117,135.12l-4.33.079-2.6,5.078-11.558-.89s.313-2.154.591-3.944l-1.717.031-.83,5.393,15.292,1.186,5.157-6.934Z" transform="translate(-570.27 -132.325)" fill="#581db4"/>
                <path id="Path_24317" data-name="Path 24317" d="M222.59,159.162l3.2,4.267,12.329-6.639,9.364,37.933,1.9.12-10.314-40.187-13.04,6.994-2.37-4.622-17.78,7.349-19.92-28.687-1.659.831,21.337,29.16Z" transform="translate(-179.201 -132.777)" fill="#581db4"/>
                <path id="Path_24318" data-name="Path 24318" d="M497.124,373.44l-3.734.245,1.866,6.984Z" transform="translate(-424.201 -321.229)" fill="#581db4"/>
                <path id="Path_24319" data-name="Path 24319" d="M494.552,346.03l-6.252.487.73,3.734,4.493-.243Z" transform="translate(-420.166 -299.502)" fill="#581db4"/>
                <path id="Path_24320" data-name="Path 24320" d="M485.3,262.69l4.62-11.97-6.341,1.01Z" transform="translate(-416.425 -223.955)" fill="#581db4"/>
                <path id="Path_24321" data-name="Path 24321" d="M501.526,275.33l-4.016,10.061h2.19Z" transform="translate(-427.467 -243.462)" fill="#581db4"/>
                <path id="Path_24322" data-name="Path 24322" d="M476.172,144.872l2.963-13.752h-1.779l-2.609,12.091-24.063,3.913V144.4l8.771-1.422-.236-5.572-11.38,1.541,1.3,9.957,27.026-4.031Zm-18.492-6.283.236,3.2-7.469.948-.236-2.845Z" transform="translate(-388.096 -129.154)" fill="#581db4"/>
                <path id="Path_24323" data-name="Path 24323" d="M552.707,224.136l4.622-19.336-2.623.622-3.956,20.493,11.025.89,3.556-11.914-8.713-1.244-.593,2.488,6.283.711-1.777,7.469Z" transform="translate(-469.667 -187.557)" fill="#581db4"/>
                <path id="Path_24324" data-name="Path 24324" d="M529.466,333.4l4.267-17.069-1.512-.267L527.6,334.73l11.025.357,4.178-18.048-6.936-.533L532.4,331.352h2.669l3.021-12.98,2.845.444-3.556,15.027Z" transform="translate(-451.317 -275.747)" fill="#581db4"/>
                <path id="Path_24325" data-name="Path 24325" d="M585.747,212.115l-.267,1.69,7.29,1.512,1.69-5.779-7.647-1.957-.444,1.6,6.312,1.422-.977,3.112Z" transform="translate(-497.196 -189.76)" fill="#581db4"/>
                <path id="Path_24326" data-name="Path 24326" d="M221.3,150.657l-2.1-1.512.711,5.1L211.34,140.7l-2.31.265,14.49,21.428Z" transform="translate(-198.803 -136.748)" fill="#581db4"/>
                <path id="Path_24327" data-name="Path 24327" d="M348.712,155.3l.363.885h-.006l.11.253.068.162h0l.709,1.6,1.6-.89-.711-1.777-.249.091,2.345-1.692,1.58,2.134,1.6-.829-1.845-2.266,1.429-1.031,3.2,1.578,1.926-1.126-7.38-3.5.025.05L340.414,141.9l1.661-6.994-1.779-.357-1.066,8.062,14.342,8.3Z" transform="translate(-302.006 -131.873)" fill="#581db4"/>
                <path id="Path_24328" data-name="Path 24328" d="M382.082,153.37l-13.725-5.532,1.329-3.376-1.439-.332-1.217,4.427,15.218,6.53Z" transform="translate(-324.042 -139.467)" fill="#581db4"/>
                <path id="Path_24329" data-name="Path 24329" d="M428.137,145.19l-1.217.334-.11,5.532,2.212.72Z" transform="translate(-371.426 -140.307)" fill="#581db4"/>
                <path id="Path_24330" data-name="Path 24330" d="M562.975,132.55l-2.756,1.69-.89,8.535,1.955-.357Z" transform="translate(-476.468 -130.288)" fill="#581db4"/>
                <path id="Path_24331" data-name="Path 24331" d="M535.393,150.263l.178-8.624-2.4-.089.089,9.159Z" transform="translate(-455.732 -137.422)" fill="#581db4"/>
                <path id="Path_24332" data-name="Path 24332" d="M222.75,236.491l12.269-10.936-12-15.825Zm9.157-11.379-4.356,4-.444-10.49Zm-7.38-10.579,1.866,2.4L226.126,230l-1.866,2.4.267-17.87Z" transform="translate(-209.679 -191.464)" fill="#581db4"/>
                <path id="Path_24333" data-name="Path 24333" d="M167.757,140.5l6.668,7.38.089,4.535-6.092-7.179,7.691,31.094V147.615l-10.4-13.335,1.8,7.286.243-1.062Zm3.467,10.49,2.845,3.467.444,10.314Z" transform="translate(-164.466 -131.659)" fill="#581db4"/>
                <path id="Path_24334" data-name="Path 24334" d="M163.365,221.722l-3.645,12.8,10.314,11.2-6.668-24.005Zm.444,8.445,3.378,10.135-4.089-4.711.711-5.422Z" transform="translate(-159.718 -200.968)" fill="#581db4"/>
                <path id="Path_24335" data-name="Path 24335" d="M174.187,362.289l4.624-9.128-6.521-3.081,1.068,2.37,3.2,1.3-3.795,7.587Z" transform="translate(-169.681 -302.713)" fill="#581db4"/>
                <path id="Path_24336" data-name="Path 24336" d="M273.28,480.71l6.952,10.281,2.662-6.14Z" transform="translate(-249.731 -406.256)" fill="#581db4"/>
                <path id="Path_24337" data-name="Path 24337" d="M285.734,418.11l-1.244,2.49,2.134.711,1.066-2.134Z" transform="translate(-258.617 -356.636)" fill="#581db4"/>
                <path id="Path_24338" data-name="Path 24338" d="M307.389,428.4l-.89,1.955,2.252,1.037.711-1.659Z" transform="translate(-276.063 -364.793)" fill="#581db4"/>
                <path id="Path_24339" data-name="Path 24339" d="M330.132,439.98l-.622,1.688,17.248,8.358-2.134,6.133-5.068-1.644,2.044-4.356-1.69-.668-2.667,6.136,8.445,2.312,3.2-8.358Z" transform="translate(-294.302 -373.972)" fill="#581db4"/>
                <path id="Path_24340" data-name="Path 24340" d="M193.3,450.78l-3.556-2.37-2.014,3.79,4.5,1.779Z" transform="translate(-181.92 -380.654)" fill="#581db4"/>
                <path id="Path_24341" data-name="Path 24341" d="M175.217,477.56l-1.777,4.388,4.385,2.37,2.134-5.1Z" transform="translate(-170.593 -403.759)" fill="#581db4"/>
                <path id="Path_24342" data-name="Path 24342" d="M160.29,307.77l1.779,4.031,6.4,4.979,3.674,1.541-6.283,14.224,9.482,4.979-5.99,16.812H170.9l6.337-16.93L168,332.426l5.69-13.513,42.082,23.827.593-1.659-45.874-24.774s-9.839-8.18-10.2-8.535Z" transform="translate(-160.17 -269.176)" fill="#581db4"/>
                <path id="Path_24343" data-name="Path 24343" d="M222.947,470.7l5.225-14.529,16.625,6.758-3.212,7.774h1.553l3.971-8.4-19.47-7.734s-4.392,11.894-5.9,16.13h1.209Z" transform="translate(-208.878 -385.536)" fill="#581db4"/>
                <path id="Path_24344" data-name="Path 24344" d="M239.868,481.94l-3.778,10.453h6.061Z" transform="translate(-220.252 -407.231)" fill="#581db4"/>
                <path id="Path_24345" data-name="Path 24345" d="M271.489,499.685l-5.509-8.545,2.227,8.545Z" transform="translate(-243.945 -414.524)" fill="#581db4"/>
                <path id="Path_24346" data-name="Path 24346" d="M222.31,378.455l-10.683-6.125L207.36,382.4l7.587,4.149,2.488-6.4-5.453-2.727-.711,1.184,4.388,2.016-1.543,3.2-4.74-2.37,2.488-6.521,8.647,3.983-3.826,8.414,21.871,8.713-4.589,9.464h1.978L241.4,395.33l-23.116-8.891,4.05-7.991Z" transform="translate(-197.48 -320.349)" fill="#581db4"/>
                <path id="Path_24347" data-name="Path 24347" d="M642.51,432.238l4.093,11.6h1.7l-.753-2.312,7.056-1.995,1.956-2.312-9.615,2.445-.846-2.6,12.594-3.575,3.023-3.021-16.144,4.981-.925-2.847,26.139-8.891-13.047,20.132h2.028l15.108-23.155Z" transform="translate(-542.401 -358.674)" fill="#581db4"/>
                <path id="Path_24348" data-name="Path 24348" d="M773.163,427.564,750.4,417.25l-15.29,23.866h2.071l13.934-21.733,20.982,9.781Z" transform="translate(-615.8 -355.955)" fill="#581db4"/>
                <path id="Path_24349" data-name="Path 24349" d="M783.445,442.98l-3.2,5.868,11.825,4.178-2.577,4.889-10.668-4.624L775,459.96l5.611,1.549h4.126l-7.514-2.528,2.312-4.089,9.246,4.356-1.329,2.26h2.665l6.9-12.306-13.573-6.223ZM782.2,447.6l1.6-3.023,10.314,4.624-1.333,2.134Z" transform="translate(-647.419 -376.35)" fill="#581db4"/>
              </g>
            </g>
          </g>
        </g>
        <g id="LIGHTINING" transform="translate(34.533)">
          <g id="Group_10965" data-name="Group 10965">
            <path id="Path_24350" data-name="Path 24350" d="M302.612,228.9a3.143,3.143,0,0,1-3.058-3.853l17.573-75.586H275.9a3.141,3.141,0,0,1-2.712-4.726l78.028-133.5a3.14,3.14,0,0,1,5.766,2.312L339.011,89.023h41.2a3.14,3.14,0,0,1,2.716,4.717L314.888,210.873l-9.561,16.459a3.139,3.139,0,0,1-2.716,1.563Z" transform="translate(-272.76 -9.68)" fill="#4219a1"/>
            <path id="Path_24351" data-name="Path 24351" d="M336.745,95.7l18.893-79.34L277.61,149.86h45.18L304.323,229.3l77.6-133.6Z" transform="translate(-276.604 -14.975)" fill="#f8e74d"/>
            <path id="Path_24352" data-name="Path 24352" d="M333.175,182.982a1.359,1.359,0,0,0-1.325-1.667H289.04L361.254,57.76,344.48,128.2a1.358,1.358,0,0,0,1.323,1.675h42.816l-71.86,123.71,16.414-70.607Z" transform="translate(-285.664 -47.791)" fill="#e9ad00"/>
          </g>
        </g>
        <g id="LEttering" transform="translate(-15.66 -220.182)">
          <path id="Path_348" data-name="Path 348" d="M174.183,354.411s.03,2.243.692,2.243c1.914,0,3.38-5.049,4.124-5.155a27.814,27.814,0,0,1,5.175.386c.677.213,4.035.295,5.068.892a20.6,20.6,0,0,1,2.309,1.661s-3.026,16.083,2.079,14.6a20.818,20.818,0,0,1,11.044.073c.957.319,4.743-20.835,5.381-19.559s8.788-4.114,11.553-5.071a23.121,23.121,0,0,1,6.27-1.215c1.383-.107,8.339-2.436,9.3-2.329a28.515,28.515,0,0,1,6.7,1.17,15.648,15.648,0,0,1,3.48,1.9,65.066,65.066,0,0,0,8.138-.633c2.62-.526,18.287-6.64,18.287-6.64a5.636,5.636,0,0,1,2.955-1.118,16.673,16.673,0,0,1,5.66,0c1.359.32,5.081-2.446,7.634-3.3s6.215-.638,7.255,0,1.359,5,1.359,5l-25.955,34.767-11.8,2.985-46.332,5.589-16.494,6.613-11.19.985-7.08,2.324-19.95.105-8.719.727,3.313-27.065,3.829-6.4,3.4-4.041Z" transform="translate(-114.325 -37.556)" fill="#4219a1"/>
          <g id="Group_39" data-name="Group 39" transform="translate(12.081 286.081)">
            <g id="Group_38" data-name="Group 38" transform="translate(4.89 4.898)">
              <g id="Group_35" data-name="Group 35">
                <g transform="matrix(1, 0, 0, 1, -7.76, -71.24)" filter="url(#Path_349)">
                  <path id="Path_349-2" data-name="Path 349" d="M48.022,482.97c-2.43,0-7.578-2.26-8.36-5.805a3.189,3.189,0,0,1-.036-1.183c.744-4.735,3.972-18.067,6.565-28.779,1.556-6.428,3.164-13.072,3.349-14.265.2-2.773,2.473-4.9,5.7-5.32l.021,0a7.051,7.051,0,0,1,.859-.05,14.051,14.051,0,0,1,8.413,3.124c.305-1.338.6-2.542.879-3.577.359-2.621,2.546-4.6,5.677-5.081a7.488,7.488,0,0,1,1.112-.079c3.2,0,9.483,1.857,10.222,6.33a5.413,5.413,0,0,1-.8,3.686,135.5,135.5,0,0,0-13.971,41.256c-.278,1.576-1.177,4.3-4.071,4.842a4.784,4.784,0,0,1-.881.081c-2.131,0-4.1-1.371-6.1-2.907a6.7,6.7,0,0,1-2.327-3.453c-.661,2.6-1.342,5.27-1.989,7.449a4.3,4.3,0,0,1-3.55,3.679,4.574,4.574,0,0,1-.716.055Z" transform="translate(-31.82 -331.45)" fill="#4219a1"/>
                </g>
                <g transform="matrix(1, 0, 0, 1, -7.76, -71.24)" filter="url(#Path_350)">
                  <path id="Path_350-2" data-name="Path 350" d="M194.116,472.356c-3.526,0-7.25-3.8-7.824-6.911a5.46,5.46,0,0,1,.448-3.026l.015-.036c6.142-14.526,12.343-26.663,20.359-41.539,1.544-2.832,2.871-5.265,5.62-5.763a5.324,5.324,0,0,1,.95-.084,9.148,9.148,0,0,1,4.192,1.252,8.452,8.452,0,0,0,.9.031l.8,0a10.494,10.494,0,0,1,4.066.617,5.763,5.763,0,0,1,3.571,4.686c0,.015,0,.031.006.046a4.113,4.113,0,0,1-.774,3.013c-2.292,3.193-7.405,23.412-7.5,37.579a5.622,5.622,0,0,1-.419,2.42,4.47,4.47,0,0,1-3.195,2.517,7.4,7.4,0,0,1-1.693.193c-3.1,0-5.458-1.8-5.86-4.468q-.017-.115-.026-.231c-.067-.873-.142-3.162-.214-5.7-1.689.6-3.7,1.337-4.437,1.66-1.008,1.186-2.9,5.98-3.729,8.066-.413,1.044-.77,1.946-1.073,2.645q-.047.107-.1.211c-.015.031-.031.07-.048.107a4.2,4.2,0,0,1-3.015,2.608A4.887,4.887,0,0,1,194.116,472.356Z" transform="translate(-152.39 -325.74)" fill="#4219a1"/>
                </g>
                <g transform="matrix(1, 0, 0, 1, -7.76, -71.24)" filter="url(#Path_351)">
                  <path id="Path_351-2" data-name="Path 351" d="M374.327,441c-4.272,0-9.15-2.469-9.773-7.047s1.088-10.684,2.6-16.064c.48-1.7.933-3.316,1.256-4.693a5.044,5.044,0,0,1,4.142-3.688,8.787,8.787,0,0,1,1.822-.184,8.355,8.355,0,0,1,4.382,1.106c2.027-6.8,4.338-15.087,5.273-20.059.34-2.038,2.024-4.444,5.76-5.163a8.168,8.168,0,0,1,1.521-.133c2.973,0,9.243,1.506,9.651,6.16a5.328,5.328,0,0,1-1,3.488c-2.17,4-5.227,11.458-8.458,19.35-3.491,8.522-7.1,17.334-10.116,23.063a7.256,7.256,0,0,1-4.919,3.617A8.909,8.909,0,0,1,374.327,441Z" transform="translate(-298.91 -301.13)" fill="#4219a1"/>
                </g>
                <g transform="matrix(1, 0, 0, 1, -7.76, -71.24)" filter="url(#Path_352)">
                  <path id="Path_352-2" data-name="Path 352" d="M488.576,413.471c-2.439,0-7.39-1.633-7.781-5.409a3.186,3.186,0,0,1,.113-1.228c1.417-4.818,6.655-18.346,10.864-29.217,2.161-5.582,4.394-11.348,4.727-12.426.638-2.94,3.4-4.465,5.8-4.912a7.871,7.871,0,0,1,1.432-.122,12.9,12.9,0,0,1,2.573.282,20.016,20.016,0,0,1,5.726-2.044,13.565,13.565,0,0,1,2.373-.217,10.138,10.138,0,0,1,9.281,5.649,6.543,6.543,0,0,1,2.106,4.457v.028c.136,3.906-3.1,8.245-10.334,13.709a7.916,7.916,0,0,1,3.708,6.515c.166,3.832-1.778,8.34-5.331,12.383a27.042,27.042,0,0,1-13.708,8.48,18.479,18.479,0,0,1-4.169.523,11.626,11.626,0,0,1-2.658-.287l-.1.283a4.744,4.744,0,0,1-3.392,3.414A5.2,5.2,0,0,1,488.576,413.471Zm12.565-23.089c-.842,1.84-1.659,3.685-2.458,5.553a24.632,24.632,0,0,0,2.548-2.164,17.343,17.343,0,0,0,3.128-3.9,14.429,14.429,0,0,0-2.215.322C501.833,390.262,501.495,390.33,501.141,390.382Z" transform="translate(-394.58 -279.02)" fill="#4219a1"/>
                </g>
                <g transform="matrix(1, 0, 0, 1, -7.76, -71.24)" filter="url(#Path_353)">
                  <path id="Path_353-2" data-name="Path 353" d="M678.283,379.741c-2.316,0-4.513-1.521-5.616-2.427-1.413-1.161-3.12-2.98-3.227-5.052v-.022a7.73,7.73,0,0,1,.959-4.063c4.766-10.162,8.165-17.77,10.393-23.26,3.023-7.453,3.4-9.836,3.413-10.532-.031-2.658,2.2-3.745,3.591-4.163,3.244-1.071,14.694-2.781,17.013-3.033a5.284,5.284,0,0,1,.608-.036,5.487,5.487,0,0,1,3.893,1.685,7.616,7.616,0,0,1,2.113,5.331A6.267,6.267,0,0,1,708.6,339.5a3.189,3.189,0,0,1-1.312.469c-.789.1-1.87.2-2.916.3-1.154.112-2.347.228-3.022.322a12.4,12.4,0,0,0-2.742.572c-.732,1.071-2.367,3.7-3.759,6.026h.072c2.981,0,5,3.107,5.024,6.009a5.762,5.762,0,0,1-4.33,5.726,61.434,61.434,0,0,0-8.4,2.959c-.183.31-.4.708-.632,1.149.8-.223,1.66-.437,2.576-.608a7.5,7.5,0,0,1,1.368-.127c3.932,0,6.8,3.006,6.827,7.147a4.377,4.377,0,0,1-3.518,4.629,41.58,41.58,0,0,0-11.6,4.509,7.532,7.532,0,0,1-2.88,1.043A5.041,5.041,0,0,1,678.283,379.741Z" transform="translate(-549.7 -253.51)" fill="#4219a1"/>
                </g>
                <g transform="matrix(1, 0, 0, 1, -7.76, -71.24)" filter="url(#Path_354)">
                  <path id="Path_354-2" data-name="Path 354" d="M815.5,364.007a7.7,7.7,0,0,1-4.024-1.548c-1.835-1.292-2.768-2.741-2.777-4.305a7.475,7.475,0,0,1,.6-2.752l.016-.041c1.813-4.468,8-17.329,12.331-26.156a10.787,10.787,0,0,1-3.866-1.793c-1.45-1.04-3.181-2.74-3.2-4.931a3.927,3.927,0,0,1,.468-1.863c.021-.041.044-.083.067-.123.687-1.2,1.986-2,4.633-2.838a64.755,64.755,0,0,1,6.671-1.637,144.123,144.123,0,0,1,18.773-2.373c.1-.007.216-.01.327-.01a5.764,5.764,0,0,1,4.187,1.867,7.2,7.2,0,0,1,1.95,5.228,5.857,5.857,0,0,1-2.984,4.871,3.185,3.185,0,0,1-1.142.392c-.874.123-1.947.22-3.083.322a38.37,38.37,0,0,0-5.607.764c-4.389,5.06-9.922,15.9-14.386,24.649-1.747,3.423-3.4,6.657-4.871,9.351a4.824,4.824,0,0,1-3.416,2.872A3.926,3.926,0,0,1,815.5,364.007Z" transform="translate(-664.21 -242.39)" fill="#4219a1"/>
                </g>
              </g>
              <g id="Group_36" data-name="Group 36" transform="translate(3.72 1.487)">
                <path id="Path_355" data-name="Path 355" d="M73.681,463.848a.427.427,0,0,0-.487-.225c-1.627.24-4.144,12.924-6.265,20.017-.178.939-.54,1.24-.954,1.3-1.236.2-5.081-1.56-5.463-3.289,1.233-7.834,9.653-40.692,9.941-43.228.067-1.627,1.707-2.309,2.939-2.47,2.076-.256,7.285,1.392,7.749,3.866.121.636-.314,1.057-.382,1.6-1.653,14-1.922,14.72-1.479,26.246,2.106-10.318,5.013-27.529,7.016-34.785.11-1.611,1.778-2.334,3.022-2.527,2.1-.313,7.3,1.184,7.7,3.62a2.306,2.306,0,0,1-.427,1.593c-9.118,16.767-12.733,33.177-14.337,42.274-.262,1.485-.789,2.125-1.519,2.262-1.147.215-2.768-.924-4.492-2.25a4.305,4.305,0,0,1-1.415-2.767C74.39,472.88,73.95,467.954,73.681,463.848Z" transform="translate(-60.513 -411.063)" fill="#f8e74d"/>
                <path id="Path_356" data-name="Path 356" d="M227.652,427.53c1.4-2.57,2.191-3.923,3.381-4.138a5.55,5.55,0,0,1,3.28.952c1.813.929,6.9-1,7.468,2.873a.933.933,0,0,1-.193.722c-3.079,4.267-8.02,25.57-8.1,39.453.006.808,0,1.56-1.153,1.831-1.419.334-3.435-.071-3.672-1.645-.114-1.486-.271-8.018-.3-8.939-.068-.45-.324-.684-1.45-.443-.326.075-6.772,2.314-7.776,2.868-1.939,1.039-4.729,9.157-6.034,12.164-.244.466-.321.956-.9,1.076-1.82.388-4.705-2.421-5.046-4.265a2.378,2.378,0,0,1,.264-1.242C213.5,454.42,219.516,442.63,227.652,427.53Zm.921,25.144q.48-5.148.986-10.285c-.059-.393-.092-.618-.257-.585-.583.1-6.739,10.467-6.589,11.21.045.283.3.465.909.457a42.459,42.459,0,0,0,4.953-.8Z" transform="translate(-181.078 -405.34)" fill="#f8e74d"/>
                <path id="Path_357" data-name="Path 357" d="M408.128,393.517c2.12-.4,7.19.841,7.394,3.175a2.382,2.382,0,0,1-.553,1.547c-4.624,8.435-12.909,31.648-18.671,42.589a4.2,4.2,0,0,1-2.859,2.007c-2.523.628-7.523-.679-7.994-4.137-.724-5.295,2.49-13.988,3.809-19.62.14-.658.819-1.087,1.7-1.275,1.816-.386,4.487.229,4.643,1.552a1.6,1.6,0,0,1-.373,1.1c-1.284,2.135-4.8,13.576-4.452,16.189.062.5.257.738.523.674.856-.2,2.764-3.632,5.476-11.829,1.94-5.953,6.674-21.579,8.137-29.394C405.145,394.538,406.87,393.759,408.128,393.517Z" transform="translate(-327.596 -380.742)" fill="#f8e74d"/>
                <path id="Path_358" data-name="Path 358" d="M506.8,415.4c-1.271.314-4.924-.912-5.088-2.5,2.247-7.643,15-39.433,15.631-41.78.28-1.537,2.024-2.3,3.287-2.538a9.084,9.084,0,0,1,3.871.429,17.817,17.817,0,0,1,5.838-2.311c3.4-.607,6.662.347,8.515,4.259a3.62,3.62,0,0,1,1.5,2.629c.176,5.062-10.744,12.406-14.97,15.177l-.052.065c.007.107.124.192.181.18,5.591-.607,8.061,1.6,8.217,4.844.255,5.893-6.829,15.235-16.608,17.61-2.618.624-6.239.84-7.79-1.228-.489,1.28-.975,2.562-1.4,3.832C507.626,414.979,507.22,415.3,506.8,415.4Zm6.472-9.132c5.034-1.2,12.64-8.782,12.44-12.408-.107-1.713-1.958-2.582-6.489-1.616a4.128,4.128,0,0,1-2.352.066c-2.259,4.825-4.211,9.4-5.973,13.848A3.472,3.472,0,0,0,513.267,406.273Zm18.63-31.791c-.046-.8-1.155-1.084-2.808-.776a13.423,13.423,0,0,0-2.653.826c-2.8,4.663-5.218,9.028-7.332,13.194,3.95-2.664,12.991-9.258,12.793-13.245Z" transform="translate(-423.275 -358.62)" fill="#f8e74d"/>
                <path id="Path_359" data-name="Path 359" d="M705.133,339.552c-.013-.422.209-.776,1.362-1.112,2.757-.935,13.9-2.637,16.414-2.907,1.749-.213,3.079,1.868,3.065,3.79a3.077,3.077,0,0,1-1.34,2.659c-1.612.2-4.6.44-5.984.632-2.357.325-4.136.743-4.755,1.674-1.151,1.618-6.672,10.566-6.636,11.265.012.578.467.764,1.029.67,1.123-.192,3.934-.653,4.328-.663.958-.049,1.872,1.429,1.882,2.84a2.58,2.58,0,0,1-1.989,2.631,60.479,60.479,0,0,0-9.687,3.505c-.764.876-3.587,6.465-3.545,7.63.015.475.456.546,1.384.361,2.129-.422,4.251-1.309,6.826-1.789,2.3-.428,4.405,1.032,4.421,3.9.005.784-.263,1.355-.914,1.477a44.678,44.678,0,0,0-12.759,4.97,4.738,4.738,0,0,1-1.822.6c-2.032.44-5.971-2.924-6.047-4.415a4.66,4.66,0,0,1,.654-2.553C700.135,355.284,705.109,343.405,705.133,339.552Z" transform="translate(-578.39 -333.116)" fill="#f8e74d"/>
                <path id="Path_360" data-name="Path 360" d="M844.729,330.769c-1.787.255-3.111.416-4.031.529-1.605.2-5.174-2.2-5.185-3.664a.777.777,0,0,1,.115-.38c.907-1.588,14.346-4.477,27.494-5.248,1.82-.111,3.184,1.956,3.093,3.74a2.694,2.694,0,0,1-1.387,2.268c-2.972.419-9.218.565-10.349,1.81-6.434,7.155-14.506,24.955-19.964,34.93-.386.739-.659,1.148-1.147,1.232-.917.158-3.731-1.63-3.737-2.672a4.6,4.6,0,0,1,.38-1.578C832.081,356.636,840.282,339.7,844.729,330.769Z" transform="translate(-692.903 -322.002)" fill="#f8e74d"/>
              </g>
              <g id="Group_37" data-name="Group 37" transform="translate(5.293 3.013)">
                <path id="Path_361" data-name="Path 361" d="M72.7,490.446a7.254,7.254,0,0,1-3.337-1.907c.829-4.883,3.924-17.668,6.425-28,2.126-8.782,3.335-13.8,3.459-14.891q.006-.054.008-.109c.033-.806,1.547-1.012,1.612-1.02a2.361,2.361,0,0,1,.272-.013c2.129,0,5.44,1.5,5.765,2.581-.019.051-.05.124-.075.181a3.648,3.648,0,0,0-.305,1.019c-.151,1.277-.289,2.437-.417,3.505-1.283,10.736-1.48,12.386-1.072,22.987a1.525,1.525,0,0,0,1.4,1.462q.063.005.125.005a1.526,1.526,0,0,0,1.493-1.221c.714-3.5,1.508-7.723,2.348-12.2,1.64-8.725,3.335-17.747,4.644-22.489a1.527,1.527,0,0,0,.051-.3c.047-.683,1.156-1.034,1.735-1.123a2.744,2.744,0,0,1,.39-.023c2.177,0,5.4,1.382,5.571,2.385.016.1-.052.26-.234.569l-.027.047a140.182,140.182,0,0,0-14.5,42.739,2.6,2.6,0,0,1-.331,1.026c-.753-.042-2.56-1.431-3.247-1.959l-.047-.036a3.014,3.014,0,0,1-.8-1.82c-.437-2.2-.879-7.324-1.124-11.048a1.524,1.524,0,0,0-.215-.686,1.934,1.934,0,0,0-1.681-.975,2.207,2.207,0,0,0-.345.028c-1.908.281-2.794,2.973-5.458,13.459-.683,2.683-1.387,5.456-2.037,7.629a1.541,1.541,0,0,0-.038.154Z" transform="translate(-69.36 -419.639)" fill="#f8e74d"/>
                <path id="Path_362" data-name="Path 362" d="M218.711,479.845a5.564,5.564,0,0,1-2.943-2.939,2.816,2.816,0,0,1,.154-.464c6.095-14.415,12.008-26,20.163-41.129.791-1.451,1.78-3.265,2.311-3.361a.627.627,0,0,1,.109-.009,5.421,5.421,0,0,1,2.185.808l.019.01a6.317,6.317,0,0,0,2.885.465l.8,0c2.287,0,2.769.339,2.933,1.055-3.4,5.066-8.19,26.359-8.274,40.165v.02c0,.1,0,.231,0,.341a2.751,2.751,0,0,1-.59.062c-.524,0-1.113-.162-1.192-.427-.091-1.312-.212-5.886-.264-7.863-.012-.439-.02-.764-.025-.924a1.513,1.513,0,0,0-.016-.181,2.093,2.093,0,0,0-2.214-1.838,5.118,5.118,0,0,0-1.065.131l-.023.005c-.475.11-7,2.382-8.16,3.013-1.865,1.006-3.536,4.944-5.692,10.4-.388.982-.725,1.832-.994,2.456C218.773,479.708,218.74,479.779,218.711,479.845Zm9.592-19.491a2.16,2.16,0,0,0,2.367,1.7l.1,0a42.76,42.76,0,0,0,5.206-.829,1.525,1.525,0,0,0,1.2-1.35c.318-3.415.65-6.873.985-10.277a1.525,1.525,0,0,0-.01-.375c-.187-1.253-.771-1.888-1.736-1.888a1.693,1.693,0,0,0-.307.028c-.717.131-1.138.648-1.918,1.79-.926,1.353-2.389,3.741-3.641,5.941-2.418,4.247-2.365,4.7-2.253,5.259Z" transform="translate(-189.741 -413.924)" fill="#f8e74d"/>
                <path id="Path_363" data-name="Path 363" d="M399.105,448.515a7.314,7.314,0,0,1-3.4-.864,3.056,3.056,0,0,1-1.7-2.106c-.495-3.617,1.08-9.213,2.469-14.151.488-1.737.951-3.379,1.3-4.844a1.588,1.588,0,0,1,.549-.2,4.118,4.118,0,0,1,.838-.08,4.248,4.248,0,0,1,1.853.382c-.016.024-.032.049-.047.074-1.36,2.261-5.075,14.05-4.658,17.177a2.026,2.026,0,0,0,1.953,2.009h0a1.874,1.874,0,0,0,.434-.051c.813-.189,2.519-.587,6.572-12.834,1.952-5.992,6.72-21.751,8.188-29.593,0-.017.006-.033.009-.05.1-.627,1.079-1.135,2-1.312a3.44,3.44,0,0,1,.632-.048c2.329,0,4.9,1.209,4.956,1.859,0,.036-.02.153-.293.554-.028.041-.053.083-.077.126-2.3,4.2-5.437,11.854-8.757,19.958-3.449,8.419-7.015,17.125-9.925,22.654a2.684,2.684,0,0,1-1.873,1.236A4.318,4.318,0,0,1,399.105,448.515Z" transform="translate(-336.214 -389.32)" fill="#f8e74d"/>
                <path id="Path_364" data-name="Path 364" d="M513.816,420.983a5.571,5.571,0,0,1-2.988-1.115c1.582-5.085,6.761-18.462,10.579-28.323,2.964-7.655,4.653-12.032,4.9-12.973.011-.04.02-.08.027-.12.115-.631,1.126-1.138,2.065-1.312a3.182,3.182,0,0,1,.571-.042,9.2,9.2,0,0,1,2.567.427,1.524,1.524,0,0,0,1.239-.148,16.148,16.148,0,0,1,5.321-2.117,8.847,8.847,0,0,1,1.547-.144,5.528,5.528,0,0,1,5.324,3.554,1.525,1.525,0,0,0,.4.52c.916.761.941,1.333.949,1.522.033.938-.613,3.144-5.311,7.23a85.5,85.5,0,0,1-8.971,6.6,1.52,1.52,0,0,0-.359.329l-.047.059a1.526,1.526,0,0,0-.331,1.051A1.731,1.731,0,0,0,533,397.595a1.6,1.6,0,0,0,.178-.01h0a14.842,14.842,0,0,1,1.595-.09c3.162,0,4.822,1.175,4.934,3.493.109,2.53-1.485,6-4.163,9.044a22.285,22.285,0,0,1-11.281,7.011,13.672,13.672,0,0,1-3.058.39c-1.079,0-2.5-.182-3.152-1.051a1.526,1.526,0,0,0-2.645.371c-.5,1.319-.992,2.609-1.424,3.888a2.015,2.015,0,0,1-.142.344Zm10.547-23.143a1.522,1.522,0,0,0-1.378.882c-2.138,4.565-4.1,9.123-6.01,13.933a1.525,1.525,0,0,0,.721,1.919A4.134,4.134,0,0,0,519.6,415h0a6.7,6.7,0,0,0,1.51-.186c5.4-1.291,13.874-9.306,13.617-13.977-.065-1.048-.658-3.459-4.767-3.459a17.478,17.478,0,0,0-3.563.435,6.734,6.734,0,0,1-1.217.179.765.765,0,0,1-.2-.018A1.507,1.507,0,0,0,524.363,397.84Zm13.416-18.727a8.076,8.076,0,0,0-1.47.148,14.826,14.826,0,0,0-2.962.918,1.524,1.524,0,0,0-.719.622c-2.791,4.651-5.207,9-7.385,13.289a1.525,1.525,0,0,0,2.213,1.955c6.264-4.222,13.683-10.181,13.464-14.587C540.822,379.725,539.167,379.113,537.779,379.113Z" transform="translate(-432.347 -367.199)" fill="#f8e74d"/>
                <path id="Path_365" data-name="Path 365" d="M703.046,387.255c-1.25,0-3.843-2.171-4.138-3.062a3.223,3.223,0,0,1,.507-1.76c9.755-20.8,13.944-31.188,14.247-35.388.074-.027.166-.057.281-.09l.064-.02c2.514-.853,13.475-2.554,16.086-2.834l.022,0a.507.507,0,0,1,.063,0,.857.857,0,0,1,.549.293,2.936,2.936,0,0,1,.743,1.976,1.81,1.81,0,0,1-.415,1.2c-.683.077-1.542.16-2.378.242-1.257.122-2.445.237-3.218.345-2.878.4-4.856.924-5.8,2.318-.629.887-2.333,3.593-3.815,6.058-3.1,5.158-3.116,5.619-3.091,6.134a2.2,2.2,0,0,0,2.287,2.159,3.128,3.128,0,0,0,.52-.045c1.429-.245,3.344-.549,3.971-.626a2.172,2.172,0,0,1,.46,1.31,1.061,1.061,0,0,1-.87,1.15,62.649,62.649,0,0,0-9.9,3.583l-.013.006a1.525,1.525,0,0,0-.514.384c-.794.911-3.986,6.863-3.919,8.688a1.973,1.973,0,0,0,2.147,1.925,5.438,5.438,0,0,0,1.058-.123c1.055-.209,2.065-.512,3.134-.832a34.874,34.874,0,0,1,3.674-.953,2.764,2.764,0,0,1,.5-.048c1.294,0,2.1.942,2.112,2.459v.033a46.45,46.45,0,0,0-12.976,5.125,3.542,3.542,0,0,1-1.3.388A.344.344,0,0,1,703.046,387.255Zm-4.146-3.09" transform="translate(-586.985 -341.692)" fill="#f8e74d"/>
                <path id="Path_366" data-name="Path 366" d="M839.78,371.436a5.723,5.723,0,0,1-1.806-1.254,4.554,4.554,0,0,1,.253-.826c2-4.917,9.937-21.358,14.666-30.851a1.525,1.525,0,0,0-1.581-2.19c-1.7.243-2.966.4-3.889.512l-.112.014a6.345,6.345,0,0,1-3.212-1.859,42.4,42.4,0,0,1,8.474-2.241,140.758,140.758,0,0,1,17.436-2.156l.051,0a1.131,1.131,0,0,1,.77.4,2.507,2.507,0,0,1,.659,1.741,1.159,1.159,0,0,1-.416.88c-.708.089-1.586.167-2.508.249-4.473.4-7.271.738-8.417,2-4.858,5.4-10.433,16.327-15.352,25.966-1.737,3.4-3.378,6.618-4.822,9.258l-.014.026C839.887,371.246,839.827,371.354,839.78,371.436Zm-1.88-1.365" transform="translate(-701.275 -330.582)" fill="#f8e74d"/>
              </g>
            </g>
          </g>
          <g id="Group_42" data-name="Group 42" transform="translate(20.691 292.489)">
            <g id="Group_40" data-name="Group 40" transform="translate(0 0)">
              <path id="Path_367" data-name="Path 367" d="M97.021,434.105c-.4-2.435-5.6-3.934-7.7-3.62-1.244.193-2.913.916-3.022,2.527-2,7.256-4.911,24.467-7.016,34.785-.443-11.526-.175-12.248,1.479-26.246.068-.545.5-.967.382-1.6-.464-2.474-5.673-4.123-7.749-3.866-1.232.16-2.872.843-2.939,2.47-.288,2.535-8.708,35.394-9.941,43.228.382,1.728,4.227,3.49,5.463,3.289.414-.064.777-.365.954-1.3,2.12-7.093,4.638-19.777,6.265-20.016a.425.425,0,0,1,.487.225c.27,4.106.709,9.031,1.15,11.245a4.305,4.305,0,0,0,1.415,2.766c1.723,1.324,3.345,2.465,4.491,2.25.73-.137,1.257-.776,1.519-2.261,1.6-9.1,5.219-25.509,14.337-42.274A2.318,2.318,0,0,0,97.021,434.105Z" transform="translate(-60.516 -411.188)" fill="url(#linear-gradient)"/>
              <path id="Path_368" data-name="Path 368" d="M241.6,428.064a.934.934,0,0,0,.193-.722c-.571-3.878-5.653-1.945-7.468-2.873a5.547,5.547,0,0,0-3.28-.953c-1.19.216-1.98,1.568-3.381,4.139-8.136,15.1-14.15,26.89-20.229,41.268a2.379,2.379,0,0,0-.264,1.242c.34,1.844,3.226,4.653,5.046,4.265.574-.12.651-.611.895-1.076,1.306-3.007,4.1-11.125,6.034-12.164,1-.554,7.45-2.792,7.776-2.868,1.125-.242,1.383-.007,1.45.443.028.922.185,7.453.3,8.939.237,1.575,2.253,1.98,3.672,1.646,1.157-.272,1.159-1.024,1.153-1.831C233.574,453.634,238.515,432.33,241.6,428.064Zm-18.877,25.074c-.15-.743,6.006-11.109,6.589-11.21.165-.033.2.192.258.585q-.506,5.137-.986,10.285a42.328,42.328,0,0,1-4.952.8C223.015,453.6,222.763,453.421,222.718,453.138Z" transform="translate(-181.084 -405.464)" fill="url(#linear-gradient)"/>
              <path id="Path_369" data-name="Path 369" d="M415.522,396.818c-.2-2.334-5.274-3.58-7.394-3.175-1.258.241-2.983,1.021-3.221,2.579-1.463,7.815-6.2,23.441-8.137,29.394-2.713,8.2-4.62,11.63-5.476,11.829-.267.063-.46-.176-.523-.674-.348-2.613,3.168-14.054,4.452-16.189a1.605,1.605,0,0,0,.374-1.1c-.156-1.323-2.828-1.938-4.643-1.552-.88.188-1.558.617-1.7,1.275-1.318,5.632-4.533,14.325-3.809,19.62.471,3.459,5.471,4.764,7.994,4.137a4.2,4.2,0,0,0,2.859-2.007c5.761-10.942,14.046-34.154,18.671-42.588A2.384,2.384,0,0,0,415.522,396.818Z" transform="translate(-327.596 -380.867)" fill="url(#linear-gradient)"/>
              <path id="Path_370" data-name="Path 370" d="M525.509,389.143c-.056.012-.174-.073-.181-.18l.052-.065c4.226-2.77,15.146-10.115,14.968-15.177a3.634,3.634,0,0,0-1.5-2.629c-1.853-3.911-5.118-4.865-8.515-4.258a17.754,17.754,0,0,0-5.838,2.311,9.091,9.091,0,0,0-3.871-.429c-1.264.235-3.008,1-3.287,2.538-.626,2.347-13.384,34.137-15.631,41.781.164,1.587,3.818,2.813,5.088,2.5.425-.1.83-.427,1.129-1.331.43-1.271.916-2.552,1.4-3.832,1.551,2.069,5.171,1.852,7.79,1.229,9.778-2.376,16.862-11.717,16.607-17.61C533.569,390.743,531.1,388.536,525.509,389.143Zm-14.615,17.148c1.763-4.448,3.715-9.024,5.973-13.848a4.13,4.13,0,0,0,2.352-.066c4.531-.966,6.382-.1,6.489,1.616.2,3.625-7.406,11.2-12.44,12.408a3.477,3.477,0,0,1-2.374-.11Zm15.543-31.631a13.424,13.424,0,0,1,2.653-.826c1.651-.309,2.762-.026,2.808.775.2,3.987-8.842,10.581-12.793,13.244,2.114-4.166,4.533-8.531,7.332-13.194Z" transform="translate(-423.275 -358.748)" fill="url(#linear-gradient)"/>
              <path id="Path_371" data-name="Path 371" d="M748.6,322.13a125.618,125.618,0,0,0-23.5,3.52,2.4,2.4,0,0,0-2.2-1.106c-2.509.269-13.657,1.971-16.413,2.907-1.153.336-1.374.689-1.362,1.112-.024,3.853-5,15.732-14.115,35.17a4.663,4.663,0,0,0-.654,2.553c.077,1.491,4.016,4.855,6.048,4.415a4.732,4.732,0,0,0,1.822-.6,44.7,44.7,0,0,1,12.759-4.97c.651-.121.919-.693.914-1.477-.016-2.871-2.117-4.331-4.421-3.9-2.575.48-4.7,1.366-6.826,1.789-.928.184-1.37.114-1.384-.361-.042-1.166,2.781-6.754,3.545-7.63a60.466,60.466,0,0,1,9.687-3.505,2.581,2.581,0,0,0,1.99-2.631c-.01-1.411-.924-2.889-1.882-2.84-.395.009-3.206.471-4.328.663-.562.095-1.016-.091-1.029-.67-.036-.7,5.485-9.648,6.636-11.265.619-.931,2.4-1.349,4.755-1.674,1.321-.184,4.114-.412,5.766-.606a3.656,3.656,0,0,0,1.769.4c.921-.113,2.245-.274,4.031-.529-4.446,8.927-12.647,25.867-14.717,30.968a4.612,4.612,0,0,0-.38,1.578c.005,1.042,2.819,2.83,3.736,2.671.488-.084.761-.493,1.147-1.232,5.458-9.975,13.53-27.775,19.964-34.931,1.131-1.244,7.376-1.39,10.349-1.809a2.7,2.7,0,0,0,1.387-2.268C751.786,324.086,750.422,322.019,748.6,322.13Z" transform="translate(-578.385 -322.126)" fill="url(#linear-gradient)"/>
            </g>
            <g id="Group_41" data-name="Group 41" transform="translate(0 0)">
              <path id="Path_372" data-name="Path 372" d="M97.021,434.105c-.4-2.435-5.6-3.934-7.7-3.62-1.244.193-2.913.916-3.022,2.527-2,7.256-4.911,24.467-7.016,34.785-.443-11.526-.175-12.248,1.479-26.246.068-.545.5-.967.382-1.6-.464-2.474-5.673-4.123-7.749-3.866-1.232.16-2.872.843-2.939,2.47-.288,2.535-8.708,35.394-9.941,43.228.382,1.728,4.227,3.49,5.463,3.289.414-.064.777-.365.954-1.3,2.12-7.093,4.638-19.777,6.265-20.016a.425.425,0,0,1,.487.225c.27,4.106.709,9.031,1.15,11.245a4.305,4.305,0,0,0,1.415,2.766c1.723,1.324,3.345,2.465,4.491,2.25.73-.137,1.257-.776,1.519-2.261,1.6-9.1,5.219-25.509,14.337-42.274A2.318,2.318,0,0,0,97.021,434.105Z" transform="translate(-60.516 -411.188)" fill="url(#linear-gradient-6)"/>
              <path id="Path_373" data-name="Path 373" d="M241.6,428.064a.934.934,0,0,0,.193-.722c-.571-3.878-5.653-1.945-7.468-2.873a5.547,5.547,0,0,0-3.28-.953c-1.19.216-1.98,1.568-3.381,4.139-8.136,15.1-14.15,26.89-20.229,41.268a2.379,2.379,0,0,0-.264,1.242c.34,1.844,3.226,4.653,5.046,4.265.574-.12.651-.611.895-1.076,1.306-3.007,4.1-11.125,6.034-12.164,1-.554,7.45-2.792,7.776-2.868,1.125-.242,1.383-.007,1.45.443.028.922.185,7.453.3,8.939.237,1.575,2.253,1.98,3.672,1.646,1.157-.272,1.159-1.024,1.153-1.831C233.574,453.634,238.515,432.33,241.6,428.064Zm-18.877,25.074c-.15-.743,6.006-11.109,6.589-11.21.165-.033.2.192.258.585q-.506,5.137-.986,10.285a42.328,42.328,0,0,1-4.952.8C223.015,453.6,222.763,453.421,222.718,453.138Z" transform="translate(-181.084 -405.464)" fill="url(#linear-gradient-6)"/>
              <path id="Path_374" data-name="Path 374" d="M415.522,396.818c-.2-2.334-5.274-3.58-7.394-3.175-1.258.241-2.983,1.021-3.221,2.579-1.463,7.815-6.2,23.441-8.137,29.394-2.713,8.2-4.62,11.63-5.476,11.829-.267.063-.46-.176-.523-.674-.348-2.613,3.168-14.054,4.452-16.189a1.605,1.605,0,0,0,.374-1.1c-.156-1.323-2.828-1.938-4.643-1.552-.88.188-1.558.617-1.7,1.275-1.318,5.632-4.533,14.325-3.809,19.62.471,3.459,5.471,4.764,7.994,4.137a4.2,4.2,0,0,0,2.859-2.007c5.761-10.942,14.046-34.154,18.671-42.588A2.384,2.384,0,0,0,415.522,396.818Z" transform="translate(-327.596 -380.867)" fill="url(#linear-gradient-6)"/>
              <path id="Path_375" data-name="Path 375" d="M525.509,389.143c-.056.012-.174-.073-.181-.18l.052-.065c4.226-2.77,15.146-10.115,14.968-15.177a3.634,3.634,0,0,0-1.5-2.629c-1.853-3.911-5.118-4.865-8.515-4.258a17.754,17.754,0,0,0-5.838,2.311,9.091,9.091,0,0,0-3.871-.429c-1.264.235-3.008,1-3.287,2.538-.626,2.347-13.384,34.137-15.631,41.781.164,1.587,3.818,2.813,5.088,2.5.425-.1.83-.427,1.129-1.331.43-1.271.916-2.552,1.4-3.832,1.551,2.069,5.171,1.852,7.79,1.229,9.778-2.376,16.862-11.717,16.607-17.61C533.569,390.743,531.1,388.536,525.509,389.143Zm-14.615,17.148c1.763-4.448,3.715-9.024,5.973-13.848a4.13,4.13,0,0,0,2.352-.066c4.531-.966,6.382-.1,6.489,1.616.2,3.625-7.406,11.2-12.44,12.408a3.477,3.477,0,0,1-2.374-.11Zm15.543-31.631a13.424,13.424,0,0,1,2.653-.826c1.651-.309,2.762-.026,2.808.775.2,3.987-8.842,10.581-12.793,13.244,2.114-4.166,4.533-8.531,7.332-13.194Z" transform="translate(-423.275 -358.748)" fill="url(#linear-gradient-6)"/>
              <path id="Path_376" data-name="Path 376" d="M748.6,322.13a125.618,125.618,0,0,0-23.5,3.52,2.4,2.4,0,0,0-2.2-1.106c-2.509.269-13.657,1.971-16.413,2.907-1.153.336-1.374.689-1.362,1.112-.024,3.853-5,15.732-14.115,35.17a4.663,4.663,0,0,0-.654,2.553c.077,1.491,4.016,4.855,6.048,4.415a4.732,4.732,0,0,0,1.822-.6,44.7,44.7,0,0,1,12.759-4.97c.651-.121.919-.693.914-1.477-.016-2.871-2.117-4.331-4.421-3.9-2.575.48-4.7,1.366-6.826,1.789-.928.184-1.37.114-1.384-.361-.042-1.166,2.781-6.754,3.545-7.63a60.466,60.466,0,0,1,9.687-3.505,2.581,2.581,0,0,0,1.99-2.631c-.01-1.411-.924-2.889-1.882-2.84-.395.009-3.206.471-4.328.663-.562.095-1.016-.091-1.029-.67-.036-.7,5.485-9.648,6.636-11.265.619-.931,2.4-1.349,4.755-1.674,1.321-.184,4.114-.412,5.766-.606a3.656,3.656,0,0,0,1.769.4c.921-.113,2.245-.274,4.031-.529-4.446,8.927-12.647,25.867-14.717,30.968a4.612,4.612,0,0,0-.38,1.578c.005,1.042,2.819,2.83,3.736,2.671.488-.084.761-.493,1.147-1.232,5.458-9.975,13.53-27.775,19.964-34.931,1.131-1.244,7.376-1.39,10.349-1.809a2.7,2.7,0,0,0,1.387-2.268C751.786,324.086,750.422,322.019,748.6,322.13Z" transform="translate(-578.385 -322.126)" fill="url(#linear-gradient-6)"/>
            </g>
          </g>
        </g>
      </g>
    </g>
  </g>
</svg>
