<svg xmlns="http://www.w3.org/2000/svg" xmlns:xlink="http://www.w3.org/1999/xlink" width="1919.594" height="1077.598" viewBox="0 0 1919.594 1077.598">
  <defs>
    <clipPath id="clip-path">
      <path id="Path_24394" data-name="Path 24394" d="M-744.319,1077.6l1919.007-1.475L1174.389.4c-.535-.77-1914.761-.227-1919.3,0Z" transform="translate(-1028.906 628.604) rotate(180)" fill="#26007d"/>
    </clipPath>
  </defs>
  <g id="Mask_Group_1" data-name="Mask Group 1" transform="translate(2203.594 448.996)" opacity="0.055" clip-path="url(#clip-path)">
    <g id="Group_10952" data-name="Group 10952" transform="translate(-2309.467 -1058.181)">
      <path id="Path_24035" data-name="Path 24035" d="M884.5,835.378l129.2-129.2,57.733-164.953H408.9l63.241,181.448,129.2,109.96ZM1031.429,562.7,993.244,688.317,769.109,556.539l262.291,6.166ZM976.011,709.239,871.348,807.763,756.829,572.56,976.037,709.239ZM840.544,810.214l-210.565-3.689L732.8,573.167ZM435.408,556.539H697.093L492.062,705.55ZM707.554,575.01,604.1,804.074l-96.047-76.363Z" transform="translate(335.469 638.947)" fill="#26007d"/>
      <path id="Path_24036" data-name="Path 24036" d="M682.67,620.592l17.155-59.1L581.59,555.77Z" transform="translate(617.822 662.72)" fill="#26007d"/>
      <path id="Path_24037" data-name="Path 24037" d="M666.539,649.448,563.43,577.88l65.243,115.757Z" transform="translate(588.13 698.871)" fill="#26007d"/>
      <path id="Path_24038" data-name="Path 24038" d="M607.289,703.3,554.325,582.56,516.17,701.16Z" transform="translate(510.859 706.523)" fill="#26007d"/>
      <path id="Path_24039" data-name="Path 24039" d="M465.69,668.909l35.336,32.99L566.664,575.55Z" transform="translate(428.323 695.061)" fill="#26007d"/>
      <path id="Path_24040" data-name="Path 24040" d="M435.88,559.394l25.164,67.773L577.249,555.52Z" transform="translate(379.582 662.311)" fill="#26007d"/>
      <path id="Path_24041" data-name="Path 24041" d="M914.592,794.15,850.93,896.283l93.17-82.344Z" transform="translate(1058.201 1052.478)" fill="#26007d"/>
      <path id="Path_24042" data-name="Path 24042" d="M842.2,915.6l59.473-107.984L862.516,778.61Z" transform="translate(1043.927 1027.07)" fill="#26007d"/>
      <path id="Path_24043" data-name="Path 24043" d="M815.11,851.689l47.484,40.579L877.9,786.63Z" transform="translate(999.634 1040.183)" fill="#26007d"/>
      <path id="Path_24044" data-name="Path 24044" d="M888.614,660.711l-275.888-.791,252.91,207.166-29.67,20.448-81.66-80.526-20.527,6.166,79.841,89.749-.211.132,8.985,9.723,2.793,3.136.053-.053,7.879,8.537,53.86-39.842,48.274,39.552-29.881,26.166,11.488,14.782,34.756-27.536,29.828,24.427L893.3,1043.738l-295.33-370.2,151.725,410.722,163.451-15.678-.211-.264,88.511-90.039,43.188,35.362-47.273,43.32,16.838,20.922,49.038-49.038,34.308,28.089-93.175,97.285,18.471,25.033,114.518-116.179L655.73,676.415l226.67,3.979,347.613,238.628-29.354,12.754L881.947,705.031l-152.2-10.171,419.023,345.926,52.41-54.307-79.815-51.489-14.782,20.922,53.148,38.05L1146,1003.528l-357.837-284,100.263,11.3,332.62,244.952,36.416-35.019,136.863,91.541L1258.071,1139.39l18.472,12.306,140.342-92.648,91.962,55.283,14.625-10.066L1212.3,887.244,888.693,660.579ZM641.4,744.5,760.71,909.563l-56.469,10.724C673.49,835.413,641.4,744.5,641.4,744.5Zm74.83,208.8,63.847-16.943,33.359,46.14-80.79,15.362C727.561,984.187,722,969.088,716.23,953.3Zm43.189,111.1c-1,.1-6.667-13.545-14.993-35.231L835.65,1013.3l28.643,39.631s-100,10.962-104.9,11.489Z" transform="translate(644.604 833.008)" fill="#26007d"/>
      <path id="Path_24045" data-name="Path 24045" d="M1097.976,918l157.5-71.2L653.42,609.46l444.556,308.562Zm109.143-69.934L1098.74,898.971l-49.276-34.229,61.686-55.573,95.968,38.893Zm-217.153-88.01,77.391,31.357-36.864,60.158-78.181-54.282,37.654-37.233ZM928.148,780.5,770.705,671.172l180.947,73.333Z" transform="translate(735.266 750.505)" fill="#26007d"/>
      <path id="Path_24046" data-name="Path 24046" d="M654.679,664.22,372.23,1072.149l157.627,76.364L654.705,664.247Zm-31.462,69.565S606.8,796.762,583.427,882.3l-39.92-26.614,79.736-121.87ZM524.8,884.219l50.724,26.772c-6.271,22.767-12.938,46.667-19.815,71.093L486.538,942.69ZM406.7,1064.745l60.817-92.963,79.209,41.976c-9.565,33.544-19.42,67.509-29.2,100.236Z" transform="translate(275.513 840.039)" fill="#26007d"/>
      <path id="Path_24047" data-name="Path 24047" d="M794.706,617.02,200.56,958.863,379.531,1105ZM717.474,684l-83.768,94.2L611.1,745.162,717.476,684.03ZM590.2,757.151l28.432,37.971L572.31,847.216,517.4,799ZM485.828,817.124l61.343,58.34-57.127,64.242-82.371-77.654,78.155-44.927ZM372.364,882.315l93.886,84.11-40.764,45.85L311.337,917.413l61.027-35.072Zm-83.926,48.221,120.974,99.789L379.5,1063.948,244.855,955.569Z" transform="translate(-5.173 762.866)" fill="#26007d"/>
      <path id="Path_24048" data-name="Path 24048" d="M615.915,969.271,328.934,841.63l-50.3,210.3-42.951,33.623,15.309,74.967,207.219,69.09-16.179-165.4,173.885-94.966ZM335.706,870.3,566.64,971.564l-42.793,31.04L328.328,915.332l7.4-45.033Zm-7.273,65.112,158.576,81.264-41.343,33.28-128.827-65.48,11.568-49.091ZM308.539,1003l115.441,56.864,2.266,65.718L287.7,1066.214,308.538,1003Zm-42.872,138.655L257.076,1083l176.046,63.241,4.348,50.724L265.693,1141.68Z" transform="translate(52.25 1130.109)" fill="#26007d"/>
      <path id="Path_24049" data-name="Path 24049" d="M257.828,962.088l16.416,8.537,5.692-17.707-28.7-11.068Z" transform="translate(77.691 1293.972)" fill="#26007d"/>
      <path id="Path_24050" data-name="Path 24050" d="M293.68,957.29,295,974.918l18.577,5.56-.659-15.863Z" transform="translate(147.081 1319.217)" fill="#26007d"/>
      <path id="Path_24051" data-name="Path 24051" d="M269.35,965.57l42.687,13.807,1.581-18.05L274.146,950.26Z" transform="translate(107.301 1307.723)" fill="#26007d"/>
      <path id="Path_24052" data-name="Path 24052" d="M294.43,959.111l14.94,5.929.237-32.516-13.781-7.194Z" transform="translate(148.307 1266.961)" fill="#26007d"/>
      <path id="Path_24053" data-name="Path 24053" d="M275.9,949.463l31.3,14.045c.316-1.292,5.85-31.041,5.85-31.041l-26.4-14.677Z" transform="translate(118.01 1254.633)" fill="#26007d"/>
      <path id="Path_24054" data-name="Path 24054" d="M264.7,946.271l13.439,3.162,12.912-30.144-16.759-7.668Z" transform="translate(99.698 1244.545)" fill="#26007d"/>
      <path id="Path_24055" data-name="Path 24055" d="M315.674,902.1l-9.433,17.339,12.227,7.642,20.9-12.648Z" transform="translate(167.617 1228.98)" fill="#26007d"/>
      <path id="Path_24056" data-name="Path 24056" d="M287.4,911.769l31.41,16.759,9.776-17.865L293.54,891.98Z" transform="translate(136.813 1212.433)" fill="#26007d"/>
      <path id="Path_24057" data-name="Path 24057" d="M275.9,906.92l11.568,5.033c-.026-1.107,4.664-18.525,4.664-18.525l-11.884-7.878-4.348,21.4Z" transform="translate(118.01 1201.92)" fill="#26007d"/>
      <path id="Path_24058" data-name="Path 24058" d="M326.86,896.258,353.184,908.3l19.209-9.091-34.545-16.39Z" transform="translate(201.331 1197.456)" fill="#26007d"/>
      <path id="Path_24059" data-name="Path 24059" d="M300.4,884.22l49.987,21.739,9.7-12.516-50.57-22.293Z" transform="translate(158.069 1178.376)" fill="#26007d"/>
      <path id="Path_24060" data-name="Path 24060" d="M284.09,881.309l21.739,8.8,8.564-14.967L287.147,862.1Z" transform="translate(131.401 1163.579)" fill="#26007d"/>
      <path id="Path_24061" data-name="Path 24061" d="M598.93,927.452l36.917,165.664,16.179-15.151-30.461-129.38,132.173-39.92,49.907,181.369,16.522-4.717-48.3-196.046Z" transform="translate(646.174 1208.002)" fill="#26007d"/>
      <path id="Path_24062" data-name="Path 24062" d="M619.24,938.007l29.7,121.027,19.921-5.613L637.422,950.945l50.46-19.445,38.208,122.608,13.386-5.665L696.446,907.23Z" transform="translate(679.381 1237.367)" fill="#26007d"/>
      <path id="Path_24063" data-name="Path 24063" d="M747.754,641.428l-32.622,21.554,11.7,7.985,20.922-9.829L808.1,698.081l-165.005,1.212,86.192-68.959L707.122,614.34,601.22,715.314H861.06Z" transform="translate(649.918 758.484)" fill="#26007d"/>
      <path id="Path_24064" data-name="Path 24064" d="M975.532,708.74,830.21,775.248l270.907,177.338-2.451-51.726L980.459,819.6l-4.928-110.829ZM948.443,819.569,864.7,777.7l83.741-24.638Z" transform="translate(1024.323 912.83)" fill="#26007d"/>
      <path id="Path_24065" data-name="Path 24065" d="M529.589,708.445,440.92,625.31c9.855,13.544,75.125,104.057,75.125,104.057Z" transform="translate(387.823 776.42)" fill="#26007d"/>
      <path id="Path_24066" data-name="Path 24066" d="M776,743.42,690.391,622.05,273.16,1111.56l206.876,78.813L776.029,743.42ZM681.669,663.6l36.68,45.27-32.042,30.989-40.948-35.283L681.642,663.6Zm-44.848,55.151L686.1,768.4l39.288-42.345,20.632,29.7L673.869,863.419l-33.807-26.588,33.2-42.872-59.5-46.034,23.057-29.143ZM592.5,768.4l51.515,35.125-36.363,46.9L657.3,884.311l-14.44,22.9-54.993-38.577-46.324,58.182-54.229-30.2L592.5,768.426ZM467.019,914.486,539.272,953.3l44.637-52.437,43.9,28.459L541.986,1060.7l-45.4-25.059,35.625-56.785L445.175,941.1l21.844-26.614ZM319.906,1095.644,429.128,963.787l73.227,32.121-34.15,53.386,60.448,30.777-15.1,25.955-57.576-36.416L414,1131.691l-94.1-36.073Zm110.065,40.975,28.089-42.16,39.815,21.08-22.24,35.125Z" transform="translate(113.53 771.09)" fill="#26007d"/>
      <path id="Path_24067" data-name="Path 24067" d="M981.55,788.283l7.4,125.612,27.088,9.855-14.782-152.7-105.9-49.275,152.7-51.726,2.477-29.539L846.11,724.251Z" transform="translate(1050.32 801.272)" fill="#26007d"/>
      <path id="Path_24068" data-name="Path 24068" d="M1645.325,1118.4l61.58,66.508,44.322-4.927-98.5-91.146-125.612,98.524L1396.576,1076.53l-128.062,137.917L1167.54,1086.385l-196.23,22.978L826.832,666.046,597.374,661.54,654,883.2l79.235,372.3-262.712-42.687L541.142,919.72l78.788,1.66,46.8,272.541-151.039-23.794-2.477,22.977,176.521,24.638L648.678,965.7l-13.965-59.921-101.791-4.927L449.18,1225.937l307.034,49.275L673.711,879.9,619.535,680.011l200.394,2.451-.079.211,162.95,561.34,29.565-8.221-29.565-98.5,169.959-26.271,273.384,384.214,32.016-9.855-182.265-246.3,123.135-128.062,315.255,315.254,12.332-24.637-194.57-194.571Z" transform="translate(401.328 835.657)" fill="#26007d"/>
      <path id="Path_24069" data-name="Path 24069" d="M755.814,816.23,736.13,836.757l18.05,24.216,18.076-21.344Z" transform="translate(870.5 1088.579)" fill="#26007d"/>
      <path id="Path_24070" data-name="Path 24070" d="M721.2,774.48l-19.5,16.733,12.621,17.233L732.688,790.9Z" transform="translate(814.206 1020.317)" fill="#26007d"/>
      <path id="Path_24071" data-name="Path 24071" d="M894.1,904.888l-19.684-17.233L826.377,924.6l-39.42-44.348-8.617,12.332,91.146,123.135,17.233-14.782L839.92,948Z" transform="translate(939.515 1193.254)" fill="#26007d"/>
      <path id="Path_24072" data-name="Path 24072" d="M897.526,966.78l50.487,55.415,17.234-19.71L823.639,855.95,806.38,869.494l72.674,81.291-46.8,44.321,13.544,12.306Z" transform="translate(985.361 1153.523)" fill="#26007d"/>
      <path id="Path_24073" data-name="Path 24073" d="M911.583,950.031,879.567,979.6,839.33,933.22l-19.71,15.995,72.252,79.63,7.4-29.539L928,968.925Z" transform="translate(1007.008 1279.862)" fill="#26007d"/>
      <path id="Path_24074" data-name="Path 24074" d="M875.211,936.582l38.182,38.155-54.2,50.513,29.565,14.756L928.149,992l49.275,46.8,22.16-18.471L892.444,918.11Z" transform="translate(1071.706 1255.156)" fill="#26007d"/>
      <path id="Path_24075" data-name="Path 24075" d="M1013.546,998.192l41.053-54.2L880.53,875.03Z" transform="translate(1106.598 1184.72)" fill="#26007d"/>
      <path id="Path_24076" data-name="Path 24076" d="M884.9,887.237l128.484,44.084L930.7,850.03Z" transform="translate(1113.743 1143.844)" fill="#26007d"/>
      <path id="Path_24077" data-name="Path 24077" d="M780.279,843.33,669.45,870.418l236.441,150.249ZM765.5,865.491l91.119,103.451L706.367,880.273l59.1-14.782Z" transform="translate(761.476 1132.889)" fill="#26007d"/>
      <path id="Path_24078" data-name="Path 24078" d="M671.01,867.63l47.615,179.788,201.949-22.16Zm30.382,39.393L868.874,1015.4l-137.918,12.306Z" transform="translate(764.027 1172.62)" fill="#26007d"/>
      <path id="Path_24079" data-name="Path 24079" d="M690.966,954.172l11.489,74.7,23.768.422c-3.847-24.77-8.169-54.625-8.169-54.625l160.078-12.306,36.074,70.329,59.974,1.08L902.744,937.73l-211.8,16.416Z" transform="translate(796.613 1287.235)" fill="#26007d"/>
      <path id="Path_24080" data-name="Path 24080" d="M698.308,1186.4l32.859-64.031,180.6,96.89,142.85-556.629-26.271,1.634-129.7,525.425L727.87,1097.726l-44.321,59.13-234.808-90.3L153.2,1470.451l22.978,11.489L452.039,1084.6Z" transform="translate(-82.608 837.439)" fill="#26007d"/>
      <path id="Path_24081" data-name="Path 24081" d="M490.09,773.172l51.752,3.372-25.876-100.1Z" transform="translate(468.217 860.019)" fill="#26007d"/>
      <path id="Path_24082" data-name="Path 24082" d="M484.54,773.862l86.613,6.746L556.9,725.483l-62.239-3.373Z" transform="translate(459.143 934.691)" fill="#26007d"/>
      <path id="Path_24083" data-name="Path 24083" d="M479.4,937.117l87.852,13.966-64-165.822Z" transform="translate(450.739 1037.943)" fill="#26007d"/>
      <path id="Path_24084" data-name="Path 24084" d="M524.946,768.48H494.59l55.626,139.367Z" transform="translate(475.575 1010.507)" fill="#26007d"/>
      <path id="Path_24085" data-name="Path 24085" d="M458.51,885.1l-18.05,137.917,157.628,21.344,3.294-77.18-121.5-19.71v-37.76l333.3,54.177,36.126,167.482h24.638L832.892,940.91,458.536,885.07Zm121.5,98.524-3.294,44.321-103.451-18.05L476.56,970.5Z" transform="translate(387.071 1201.135)" fill="#26007d"/>
      <path id="Path_24086" data-name="Path 24086" d="M643.739,1087.348,579.708,819.523l108.379-2.477L712.7,920.5l-87.008,9.855,8.2,34.466,120.684-17.234L705.32,782.58l-152.7,12.3L607.4,1078.73Z" transform="translate(570.456 1033.561)" fill="#26007d"/>
      <path id="Path_24087" data-name="Path 24087" d="M630.831,728.686H593.888L641.9,934.323l96.073-7.378L680.08,676.96l-152.7,4.927,64.031,258.6L612.36,936.8l-59.1-236.441,109.591-6.166L712.1,902.308l-39.4,6.166Z" transform="translate(529.188 860.869)" fill="#26007d"/>
      <path id="Path_24088" data-name="Path 24088" d="M608.941,961.69l105.9-27.089-23.4-80.052L590.47,875.472l3.689,23.4,82.529-22.16,13.544,43.109L602.8,939.53Z" transform="translate(632.341 1151.234)" fill="#26007d"/>
      <path id="Path_24089" data-name="Path 24089" d="M350.083,1016.635l30.8-162.555L180.15,1150.863l32.016,3.689L330.8,966.964l-9.855,70.593Z" transform="translate(-38.544 1150.465)" fill="#26007d"/>
      <path id="Path_24090" data-name="Path 24090" d="M550.254,937.219l-19.763-14.283,25.56-31.382L533.89,880.039,512.019,909.63l-32.49-23.452,3.452,1.265,9.855-24.637L470.676,850.5l-9.8,22.214-.053-.053-.922,2.266-1.555,3.478.105.026-5.033,12.279,67.325,60.764L322.06,1066.415l14.783,111.646,24.637-4.928L338.5,1076.27l180.95-97.549-.342.658L621.32,930.948l-26.693-15.6Z" transform="translate(193.483 1144.612)" fill="#26007d"/>
      <path id="Path_24091" data-name="Path 24091" d="M369.224,1058.531l19.947-4.585-18.419-46.771,190.091-76.627,2.319-23.768-210.8,90.434Z" transform="translate(243.025 1236.632)" fill="#26007d"/>
      <path id="Path_24092" data-name="Path 24092" d="M419.048,1015.2l16.864,4.611,12.279-91.224-30.672,9.987Z" transform="translate(349.563 1272.291)" fill="#26007d"/>
      <path id="Path_24093" data-name="Path 24093" d="M561.97,923.25l12.306,118.207,38.182,23.4-23.4-136.679Z" transform="translate(585.743 1263.56)" fill="#26007d"/>
      <path id="Path_24094" data-name="Path 24094" d="M534.672,919.04l-1.212,126.851,33.254-1.239-2.477-119.446Z" transform="translate(539.128 1256.677)" fill="#26007d"/>
      <path id="Path_24095" data-name="Path 24095" d="M198.8,1122.87,365.043,903.662,195.11,752.2Zm62.793-268.456,60.342,55.415-66.508,89.907Zm-19.71-12.306,3.689,181.027-25.85,33.254-3.689-247.535Z" transform="translate(-14.083 983.889)" fill="#26007d"/>
      <path id="Path_24096" data-name="Path 24096" d="M277.033,754.07,170.5,1184.765l84.374-99.446-1.239,62.793-92.358,102.212-3.373-14.7L132.95,1336.543l144.083-184.716Zm-28.326,302.95-39.42,48.036,45.56-190.881-6.166,142.845Z" transform="translate(-115.717 986.946)" fill="#26007d"/>
      <path id="Path_24097" data-name="Path 24097" d="M269.255,753.6,126.41,908.751l50.49,177.337Zm-39.394,75.124-46.8,140.394-9.855-75.124Z" transform="translate(-126.41 986.178)" fill="#26007d"/>
      <path id="Path_24098" data-name="Path 24098" d="M140.11,844.826l90.3-42.688L166.381,675.71,146.7,688.859l52.54,105.085-44.348,18.05Z" transform="translate(-104.01 858.825)" fill="#26007d"/>
      <path id="Path_24099" data-name="Path 24099" d="M346.49,543.47l-96.31,142.4L383.354,628.5Z" transform="translate(75.958 642.609)" fill="#26007d"/>
      <path id="Path_24100" data-name="Path 24100" d="M279.633,693.241l27.088-14.756L291.965,648.92,262.4,658.775Z" transform="translate(95.938 815.023)" fill="#26007d"/>
      <path id="Path_24101" data-name="Path 24101" d="M298.7,680.266l28.748-18.472-9.855-23-31.2,14.387Z" transform="translate(135.162 798.46)" fill="#26007d"/>
      <path id="Path_24102" data-name="Path 24102" d="M579.927,663.267,535.606,547.51l-117,32.016,36.943,84.953,23.4-9.223-28.327-60.342,70.2-22.794,29.565,84.98L311.47,772.858l8.617,23.4Z" transform="translate(176.168 649.215)" fill="#26007d"/>
      <path id="Path_24103" data-name="Path 24103" d="M234.094,647.778,219.337,603.43l-62.4,24.638,27.9,52.542Z" transform="translate(-76.493 740.646)" fill="#26007d"/>
      <path id="Path_24104" data-name="Path 24104" d="M141.36,598.253,166,659.016l65.665-22.977L202.124,565.42Z" transform="translate(-101.966 678.498)" fill="#26007d"/>
      <path id="Path_24105" data-name="Path 24105" d="M268.274,1068,903.711,724.84l-8.221-22.977L312.6,1031.9,233.781,844.706l128.062-68.959L274.071,541.23H252.6l82.977,232.857-131.361,68.96,87.009,197.021-50.909,21.344-88.669,68.958-24.637,55.836C131.938,1181.279,268.221,1068,268.221,1068Z" transform="translate(-125.429 638.947)" fill="#26007d"/>
      <path id="Path_24106" data-name="Path 24106" d="M275.729,764.654l269.7-107.14-55-116.284H468.9L513.382,648.9,283.107,742.5,210.749,541.23H193.99c20.9,58.682,81.712,223.424,81.712,223.424Z" transform="translate(-15.915 638.947)" fill="#26007d"/>
      <path id="Path_24107" data-name="Path 24107" d="M261.982,686,293.6,541.23H209.65Z" transform="translate(9.69 638.947)" fill="#26007d"/>
      <path id="Path_24108" data-name="Path 24108" d="M318.514,541.23H273.06L242.23,659.569Z" transform="translate(62.959 638.947)" fill="#26007d"/>
      <path id="Path_24109" data-name="Path 24109" d="M574.269,541.23H546.892L610.448,672.3,307.5,792.98l52.99,116.574L240.728,964.706l-34.493-90.329,65.691-32.832,21.344,44.348-60.764,27.9,9.855,16.416,75.546-37.759-34.492-88.669L178.33,861.254l59.1,139.551,147.983-84.848.343.026-56.1-110.7L649.842,682.151Z" transform="translate(-41.519 638.947)" fill="#26007d"/>
      <path id="Path_24110" data-name="Path 24110" d="M863.538,541.23l180.684,278.839L682.169,696.934,695,657.487l223.61,68.986L876.74,684.6,702.274,635.09,714,599.016l133.2,33.86L820.111,600.86l-97.733-27.615,10.409-32.016H709.31L652.63,701.861,1100.875,861.94,891.627,541.23Z" transform="translate(733.975 638.947)" fill="#26007d"/>
      <path id="Path_24111" data-name="Path 24111" d="M975.272,842.229l-193.016-301h-28.7L965.417,871.794l315.255-142.845-14.782-22.187Z" transform="translate(898.998 638.947)" fill="#26007d"/>
      <path id="Path_24112" data-name="Path 24112" d="M914.009,797.892l188.01-86.192-95.625-170.46H969.476L987.9,572.571,859.833,632.913,827.817,576.26,931.9,541.24H874.747L797.04,562.716,850,655.073l147.773-64.031,35.7,67.72L869.688,716.628Zm129.3-115.757,18.472,29.565L918.936,775.731,896.775,733.86Z" transform="translate(970.089 638.963)" fill="#26007d"/>
      <path id="Path_24113" data-name="Path 24113" d="M601.336,432.121l-129.2,109.96L408.9,723.529h662.526l-57.733-164.953L884.5,429.38Zm-165.954,276.1L492.035,559.21,697.067,708.219ZM508.03,537.047l96.047-76.363L707.528,689.721l-199.5-152.7Zm121.923-78.814,210.565-3.689L732.771,691.592ZM1031.4,702.053l-262.291,6.166L993.244,576.441l38.182,125.612ZM756.777,692.2,871.3,457l104.663,98.524L756.751,692.2Z" transform="translate(335.469 456.069)" fill="#26007d"/>
      <path id="Path_24114" data-name="Path 24114" d="M699.824,560.964l-17.155-59.1L581.59,566.682Z" transform="translate(617.822 574.576)" fill="#26007d"/>
      <path id="Path_24115" data-name="Path 24115" d="M666.539,504.609,628.673,460.42,563.43,576.177Z" transform="translate(588.13 506.82)" fill="#26007d"/>
      <path id="Path_24116" data-name="Path 24116" d="M516.17,455.984l38.155,118.629L607.289,453.85Z" transform="translate(510.859 496.078)" fill="#26007d"/>
      <path id="Path_24117" data-name="Path 24117" d="M465.69,491.72,566.664,585.1,501.026,458.73Z" transform="translate(428.323 504.057)" fill="#26007d"/>
      <path id="Path_24118" data-name="Path 24118" d="M577.249,571.167,461.044,499.52,435.88,567.293Z" transform="translate(379.582 570.75)" fill="#26007d"/>
      <path id="Path_24119" data-name="Path 24119" d="M944.1,331.665,850.93,249.32l63.662,102.134Z" transform="translate(1058.201 161.665)" fill="#26007d"/>
      <path id="Path_24120" data-name="Path 24120" d="M862.516,388.625l39.157-29.012L842.2,251.63Z" transform="translate(1043.927 165.442)" fill="#26007d"/>
      <path id="Path_24121" data-name="Path 24121" d="M862.594,255.52,815.11,296.073l62.79,65.059Z" transform="translate(999.634 171.803)" fill="#26007d"/>
      <path id="Path_24122" data-name="Path 24122" d="M1416.854,345.38l-140.341-92.648-18.472,12.306L1394.3,372.126l-136.863,91.541-36.416-35.019L888.4,673.6,788.137,684.9l357.837-284,13.729,9.565-53.149,38.05,14.783,20.922,79.815-51.489-52.411-54.308L729.718,709.567l152.2-10.171,318.707-226.744,29.354,12.754L882.365,724.034,655.7,728.013l481.63-386.664L1022.812,225.17l-18.471,25.03,93.174,97.285-34.308,28.089-49.038-49.038-16.838,20.922,47.273,43.32-43.188,35.362L912.9,336.1l.211-.263L749.665,320.163,597.94,730.885l295.334-370.2,88.141,81.791L951.587,466.9l-34.756-27.536-11.489,14.782,29.881,26.166L886.95,519.872,833.09,480.03l-7.879,8.537-.053-.053-2.793,3.136-8.985,9.723.211.132L733.75,591.254l20.527,6.166,81.66-80.526,29.67,20.448L612.7,744.508l275.887-.791L1212.2,517.052l311.17-217.021-14.625-10.066-91.962,55.283ZM641.444,660.055s32.095-90.909,62.845-175.783L760.759,495ZM780.126,468.2l-63.847-16.943c5.771-15.784,11.3-30.856,16.416-44.558l80.79,15.362Zm55.6-76.917L744.5,375.42c8.326-21.713,13.966-35.362,14.993-35.23,4.9.527,104.9,11.489,104.9,11.489L835.75,391.31Z" transform="translate(644.555 122.179)" fill="#26007d"/>
      <path id="Path_24123" data-name="Path 24123" d="M653.42,664.215l602.052-237.337-157.5-71.2L653.42,664.242ZM770.7,602.476,928.149,493.149l23.5,35.995ZM989.993,513.6l-37.655-37.233,78.181-54.282,36.864,60.158Zm217.153-88.01-95.968,38.893-61.686-55.573,49.275-34.229Z" transform="translate(735.267 335.567)" fill="#26007d"/>
      <path id="Path_24124" data-name="Path 24124" d="M372.246,310.567,654.7,718.5,529.847,234.23,372.22,310.593ZM623.233,648.931,543.5,527.061l39.921-26.614c23.4,85.507,39.789,148.51,39.789,148.51ZM575.565,471.725,524.841,498.5l-38.26-58.471,69.169-39.394C562.627,425.059,569.294,448.958,575.565,471.725Zm-108.01-60.79-60.816-92.964,110.829-49.249c9.776,32.727,19.631,66.693,29.2,100.236Z" transform="translate(275.496 136.993)" fill="#26007d"/>
      <path id="Path_24125" data-name="Path 24125" d="M200.56,426.159,794.706,768,379.531,280.02ZM717.474,701.045,611.1,639.912l22.608-33.043,83.768,94.2ZM618.66,589.926,590.228,627.9l-72.806-41.844,54.914-48.221Zm-71.488-80.368L485.828,567.9l-78.155-44.93,82.371-77.654Zm-80.9-90.961-93.886,84.11-61.027-35.072,114.149-94.861,40.764,45.849ZM288.464,454.459l-43.583-25.033,134.65-108.379,29.908,33.623Z" transform="translate(-5.173 211.861)" fill="#26007d"/>
      <path id="Path_24126" data-name="Path 24126" d="M328.934,481.358,615.915,353.717,442.029,258.751l16.179-165.4L250.99,162.44l-15.31,74.967,42.951,33.623,50.3,210.3ZM287.722,256.774l138.55-59.367-2.266,65.718-115.44,56.864Zm278.944,94.65L335.732,452.689l-7.4-45.033,195.519-87.272,42.793,31.041ZM445.692,273.033l41.344,33.28L328.459,387.577l-11.568-49.091,128.827-65.481Zm-180-91.673L437.47,126.077,433.123,176.8,257.076,240.042l8.59-58.656Z" transform="translate(52.25 -93.35)" fill="#26007d"/>
      <path id="Path_24127" data-name="Path 24127" d="M257.828,138l-6.588,20.237,28.7-11.067-5.692-17.707Z" transform="translate(77.691 -34.309)" fill="#26007d"/>
      <path id="Path_24128" data-name="Path 24128" d="M293.68,139.355,312.916,132l.659-15.863L295,121.726Z" transform="translate(147.081 -56.088)" fill="#26007d"/>
      <path id="Path_24129" data-name="Path 24129" d="M269.35,134.728l4.8,15.31,39.473-11.067-1.581-18.05Z" transform="translate(107.301 -48.272)" fill="#26007d"/>
      <path id="Path_24130" data-name="Path 24130" d="M294.43,147.759l1.4,33.781,13.781-7.194-.237-32.516Z" transform="translate(148.307 -14.084)" fill="#26007d"/>
      <path id="Path_24131" data-name="Path 24131" d="M275.9,161.135l10.751,31.673,26.4-14.677s-5.534-29.723-5.85-31.041Z" transform="translate(118.01 -5.484)" fill="#26007d"/>
      <path id="Path_24132" data-name="Path 24132" d="M264.7,159.448l9.591,34.651,16.759-7.668L278.139,156.26Z" transform="translate(99.698 9.51)" fill="#26007d"/>
      <path id="Path_24133" data-name="Path 24133" d="M339.362,183.325l-20.9-12.675-12.227,7.668,9.433,17.312Z" transform="translate(167.617 33.038)" fill="#26007d"/>
      <path id="Path_24134" data-name="Path 24134" d="M328.586,194.246,318.81,176.38,287.4,193.139l6.14,19.789Z" transform="translate(136.813 42.406)" fill="#26007d"/>
      <path id="Path_24135" data-name="Path 24135" d="M292.142,205.194s-4.717-17.418-4.664-18.524L275.91,191.7l4.348,21.4,11.884-7.879Z" transform="translate(118.027 59.231)" fill="#26007d"/>
      <path id="Path_24136" data-name="Path 24136" d="M372.393,198.857l-19.209-9.117L326.86,201.782l10.988,13.439Z" transform="translate(201.331 64.25)" fill="#26007d"/>
      <path id="Path_24137" data-name="Path 24137" d="M360.083,210.386l-9.7-12.516L300.4,219.609l9.117,13.07Z" transform="translate(158.069 77.543)" fill="#26007d"/>
      <path id="Path_24138" data-name="Path 24138" d="M314.393,224.493,305.829,209.5l-21.739,8.8,3.057,19.236Z" transform="translate(131.401 96.559)" fill="#26007d"/>
      <path id="Path_24139" data-name="Path 24139" d="M771.867,319.472l48.3-196.073-16.522-4.717-49.907,181.4L621.565,260.131l30.461-129.38L635.847,115.6,598.93,281.264Z" transform="translate(646.174 -56.971)" fill="#26007d"/>
      <path id="Path_24140" data-name="Path 24140" d="M739.476,127.983l-13.386-5.665L687.882,244.925l-50.461-19.447L668.858,123l-19.921-5.613-29.7,121.027,77.206,30.777Z" transform="translate(679.381 -54.044)" fill="#26007d"/>
      <path id="Path_24141" data-name="Path 24141" d="M707.122,530.571l22.161-16.021-86.192-68.958L808.1,446.829l-60.342,36.943-20.922-9.855-11.7,8.01,32.622,21.528,113.3-73.885H601.22Z" transform="translate(649.918 456.379)" fill="#26007d"/>
      <path id="Path_24142" data-name="Path 24142" d="M1101.127,280.96,830.22,458.3l145.322,66.508,4.928-110.829,118.207-81.264,2.451-51.726Zm-152.7,199.5-83.742-24.638,83.742-41.871v66.508Z" transform="translate(1024.34 213.398)" fill="#26007d"/>
      <path id="Path_24143" data-name="Path 24143" d="M440.92,521.477l88.669-83.135L516.045,417.42S450.775,507.933,440.92,521.477Z" transform="translate(387.823 436.514)" fill="#26007d"/>
      <path id="Path_24144" data-name="Path 24144" d="M273.166,323.324,690.4,812.833l85.612-121.369-296-446.954L273.14,323.324ZM681.7,771.279,645.417,730.3l40.948-35.283L718.407,726l-36.68,45.27Zm64.347-92.147-20.632,29.7-39.288-42.345-49.275,49.644L613.8,686.958l59.5-46.034-33.2-42.872,33.8-26.587,72.147,107.667ZM657.3,550.6l-49.644,33.887,36.363,46.9L592.506,666.51,487.315,538.316l54.229-30.2L587.868,566.3l54.993-38.577,14.44,22.9Zm-29.486-45.006-43.9,28.458L539.278,481.61l-72.253,38.814L445.181,493.81l87.035-37.76L496.59,399.265l45.4-25.059ZM528.659,354.813,468.211,385.59l34.15,53.386L429.134,471.1,319.912,339.239l94.1-36.073,41.976,62.081,57.575-36.416,15.1,25.955Zm-70.592-14.387-28.089-42.16,45.665-14.045,22.24,35.125Z" transform="translate(113.498 153.801)" fill="#26007d"/>
      <path id="Path_24145" data-name="Path 24145" d="M1016.043,334.24l-27.088,9.86-7.4,125.586L846.11,533.738l204.426,83.741-2.477-29.565-152.7-51.726,105.9-49.249Z" transform="translate(1050.32 300.512)" fill="#26007d"/>
      <path id="Path_24146" data-name="Path 24146" d="M982.8,462.252l29.565-98.524L982.8,355.507,819.85,916.847l.079.211-200.394,2.451,54.176-199.893,82.5-395.307L449.18,373.584l83.741,325.11,101.791-4.927,13.965-59.947,41.054-252.041-176.52,24.637,2.477,22.977L666.728,405.6l-46.8,272.567L541.142,679.8,470.524,386.706l262.712-42.687L654,716.322,597.374,937.98l229.458-4.506L971.311,490.157l196.23,22.977,100.974-128.062L1396.578,522.99l130.539-110.83,125.612,98.524,98.5-91.119-44.322-4.927-61.58,66.482-113.28-88.669,194.57-194.571-12.332-24.611L1399.029,488.524,1275.894,360.435l182.265-246.27-32.016-9.855L1152.759,488.524Z" transform="translate(401.328 -75.43)" fill="#26007d"/>
      <path id="Path_24147" data-name="Path 24147" d="M754.18,249.03l-18.05,24.216,19.684,20.527,16.442-23.4Z" transform="translate(870.5 161.191)" fill="#26007d"/>
      <path id="Path_24148" data-name="Path 24148" d="M732.688,312.409,714.321,294.86,701.7,312.12l19.5,16.706Z" transform="translate(814.206 236.125)" fill="#26007d"/>
      <path id="Path_24149" data-name="Path 24149" d="M839.92,218.317l46.8-52.964L869.486,150.57,778.34,273.731l8.617,12.306,39.42-44.321,48.037,36.943L894.1,261.4Z" transform="translate(939.515 0.206)" fill="#26007d"/>
      <path id="Path_24150" data-name="Path 24150" d="M965.246,182.9l-17.234-19.71L897.526,218.6,845.8,177.973l-13.544,12.306,46.8,44.348L806.38,315.89l17.259,13.544Z" transform="translate(985.361 20.84)" fill="#26007d"/>
      <path id="Path_24151" data-name="Path 24151" d="M839.33,208.372l40.237-46.4,32.016,29.565L928,172.641l-28.722-30.382-7.4-29.539L819.62,192.351Z" transform="translate(1007.008 -61.679)" fill="#26007d"/>
      <path id="Path_24152" data-name="Path 24152" d="M875.211,221.311l17.234,18.472L999.584,137.57l-22.16-18.47-49.275,46.8-39.394-48.04L859.19,132.643l54.2,50.487Z" transform="translate(1071.706 -53.275)" fill="#26007d"/>
      <path id="Path_24153" data-name="Path 24153" d="M880.53,283.621l174.07-68.959-41.053-54.2Z" transform="translate(1106.598 16.377)" fill="#26007d"/>
      <path id="Path_24154" data-name="Path 24154" d="M1013.384,201.35,884.9,245.46l45.8,37.18Z" transform="translate(1113.743 83.233)" fill="#26007d"/>
      <path id="Path_24155" data-name="Path 24155" d="M669.45,321.849l110.829,27.088L905.891,171.6Zm96.047,4.927-59.1-14.782,150.249-88.669L765.524,326.777Z" transform="translate(761.476 34.591)" fill="#26007d"/>
      <path id="Path_24156" data-name="Path 24156" d="M920.574,168.531,718.625,146.37,671.01,326.158ZM730.931,166.08l137.917,12.306L701.365,286.764Z" transform="translate(764.027 -6.661)" fill="#26007d"/>
      <path id="Path_24157" data-name="Path 24157" d="M974.173,108.066l-59.973,1.08-36.074,70.329L718.048,167.17s4.321-29.828,8.169-54.624l-23.768.422-11.489,74.7,211.8,16.416L974.2,108.04Z" transform="translate(796.646 -69.331)" fill="#26007d"/>
      <path id="Path_24158" data-name="Path 24158" d="M683.552,433.78l44.321,59.1L898.65,400.921l129.7,525.425,26.271,1.634L911.776,371.38l-180.6,96.864-32.859-64.031L452.039,506.006,176.178,108.67,153.2,120.159,448.745,524.082Z" transform="translate(-82.608 -68.301)" fill="#26007d"/>
      <path id="Path_24159" data-name="Path 24159" d="M541.842,367.8l-51.752,3.373L515.966,467.9Z" transform="translate(468.217 355.384)" fill="#26007d"/>
      <path id="Path_24160" data-name="Path 24160" d="M571.153,337.92l-86.613,6.746,10.118,51.752,62.239-3.373Z" transform="translate(459.143 306.529)" fill="#26007d"/>
      <path id="Path_24161" data-name="Path 24161" d="M503.247,399.846l64-165.8L479.4,248.016Z" transform="translate(450.739 136.699)" fill="#26007d"/>
      <path id="Path_24162" data-name="Path 24162" d="M550.216,260.87,494.59,400.21h30.356Z" transform="translate(475.575 180.55)" fill="#26007d"/>
      <path id="Path_24163" data-name="Path 24163" d="M832.885,294.15l41.054-190.46H849.3L813.175,271.172l-333.3,54.176v-37.76l121.5-19.71-3.294-77.18L440.45,212.042,458.5,349.96l374.358-55.836ZM576.734,207.115l3.294,44.321L476.576,264.559l-3.294-39.394Z" transform="translate(387.054 -76.444)" fill="#26007d"/>
      <path id="Path_24164" data-name="Path 24164" d="M579.708,451.814,643.739,183.99,607.4,192.607,552.62,476.452l152.7,12.306,49.249-165.006L633.884,306.519l-8.2,34.466L712.7,350.84,688.087,454.291Z" transform="translate(570.456 54.849)" fill="#26007d"/>
      <path id="Path_24165" data-name="Path 24165" d="M553.256,545.39l59.1-236.441-20.949-3.689-64.031,258.6,152.7,4.927,57.9-249.987L641.9,311.426,593.89,517.064h36.944L672.7,337.276l39.393,6.166L662.847,551.556Z" transform="translate(529.188 253.129)" fill="#26007d"/>
      <path id="Path_24166" data-name="Path 24166" d="M594.159,249.823l-3.689,23.4,100.974,20.922,23.4-80.026-105.9-27.088-6.144,22.16,87.43,19.71-13.544,43.083Z" transform="translate(632.341 59.82)" fill="#26007d"/>
      <path id="Path_24167" data-name="Path 24167" d="M350.083,252.038,320.94,231.115l9.855,70.592L212.166,114.12l-32.016,3.689L380.886,414.592Z" transform="translate(-38.544 -59.39)" fill="#26007d"/>
      <path id="Path_24168" data-name="Path 24168" d="M453.416,394.77l5.033,12.279-.105.026,1.555,3.478.922,2.266.053-.026,9.8,22.187,22.161-12.306-9.855-24.637-3.45,1.263,32.49-23.452,21.871,29.591,22.161-11.489-25.56-31.41,19.763-14.282,44.374,21.871,26.693-15.6L519.108,306.1l.342.659L338.5,209.238l22.977-96.89-24.637-4.927L322.06,219.066l198.681,114.94Z" transform="translate(193.483 -70.345)" fill="#26007d"/>
      <path id="Path_24169" data-name="Path 24169" d="M560.844,245.87,370.752,169.217l18.419-46.772-19.947-4.585L352.36,179.177l210.8,90.434Z" transform="translate(243.025 -53.275)" fill="#26007d"/>
      <path id="Path_24170" data-name="Path 24170" d="M435.913,119.02l-16.864,4.611-1.528,76.653,30.672,9.96Z" transform="translate(349.563 -51.379)" fill="#26007d"/>
      <path id="Path_24171" data-name="Path 24171" d="M612.458,105.24l-38.182,23.4L561.97,246.873l27.088-4.928Z" transform="translate(585.743 -73.91)" fill="#26007d"/>
      <path id="Path_24172" data-name="Path 24172" d="M564.237,235.718l2.477-119.446L533.46,115.06l1.212,126.824Z" transform="translate(539.128 -57.854)" fill="#26007d"/>
      <path id="Path_24173" data-name="Path 24173" d="M195.1,560.03,365.033,408.568,198.789,189.36ZM321.95,402.4l-60.342,55.415-6.166-145.322ZM219.738,255.868l25.85,33.254L241.9,470.149,216.049,503.4Z" transform="translate(-14.1 63.629)" fill="#26007d"/>
      <path id="Path_24174" data-name="Path 24174" d="M161.277,193.318l92.358,102.213,1.238,62.793L170.5,258.878l106.534,430.7V291.816L132.95,107.1,157.9,208.022l3.373-14.7ZM209.313,338.64l39.42,48.037L254.9,529.521,209.34,338.64Z" transform="translate(-115.717 -70.868)" fill="#26007d"/>
      <path id="Path_24175" data-name="Path 24175" d="M176.9,202.45,126.41,379.788l142.845,155.15Zm6.166,117,46.8,140.394-56.653-65.27Z" transform="translate(-126.41 85.032)" fill="#26007d"/>
      <path id="Path_24176" data-name="Path 24176" d="M166.381,511.456l64.031-126.428-90.3-42.688,14.783,32.832,44.348,18.05L146.7,498.307Z" transform="translate(-104.01 313.756)" fill="#26007d"/>
      <path id="Path_24177" data-name="Path 24177" d="M250.18,484.72l96.31,142.4,36.864-85.032Z" transform="translate(75.958 546.551)" fill="#26007d"/>
      <path id="Path_24178" data-name="Path 24178" d="M279.633,416.49,262.4,450.956l29.565,9.855,14.756-29.539Z" transform="translate(95.938 434.993)" fill="#26007d"/>
      <path id="Path_24179" data-name="Path 24179" d="M298.7,427.71,286.39,454.8l31.2,14.361,9.855-22.978Z" transform="translate(135.162 453.338)" fill="#26007d"/>
      <path id="Path_24180" data-name="Path 24180" d="M320.087,440.32l-8.617,23.4L550.388,579.476l-29.565,84.98-70.2-22.793,28.327-60.342-23.4-9.223-36.94,84.953,117,32.042,44.321-115.757Z" transform="translate(176.168 473.956)" fill="#26007d"/>
      <path id="Path_24181" data-name="Path 24181" d="M234.094,482.369,184.845,449.51l-27.9,52.542,62.4,24.638Z" transform="translate(-76.493 488.982)" fill="#26007d"/>
      <path id="Path_24182" data-name="Path 24182" d="M166,481.29l-24.64,60.764,60.764,32.832,29.539-70.592Z" transform="translate(-101.966 540.943)" fill="#26007d"/>
      <path id="Path_24183" data-name="Path 24183" d="M127.03,296.23l24.637,55.836,88.669,68.959,50.909,21.344L204.236,639.39l131.356,68.959L252.615,941.206H274.09l87.773-234.518L233.8,637.73l78.814-187.192,582.9,330.037,8.221-22.977L268.294,414.437S132.01,301.131,127.083,296.23Z" transform="translate(-125.396 238.365)" fill="#26007d"/>
      <path id="Path_24184" data-name="Path 24184" d="M210.742,679.634,283.1,478.37l230.275,93.6L468.9,679.634h21.528L545.417,563.35l-269.7-107.14S214.879,620.952,194.01,679.634h16.759Z" transform="translate(-15.882 499.937)" fill="#26007d"/>
      <path id="Path_24185" data-name="Path 24185" d="M261.982,486.07,209.65,630.812H293.6Z" transform="translate(9.69 548.758)" fill="#26007d"/>
      <path id="Path_24186" data-name="Path 24186" d="M318.514,614.429,242.23,496.09l30.83,118.339Z" transform="translate(62.959 565.142)" fill="#26007d"/>
      <path id="Path_24187" data-name="Path 24187" d="M385.417,451.438,237.434,366.59l-59.1,139.551,105.085,57.47,34.492-88.669-75.546-37.76L232.506,453.6l60.764,27.93-21.344,44.321-65.691-32.832,34.493-90.3L360.49,457.868,307.5,574.415,610.448,695.1,546.892,826.166H574.27l75.573-140.921L329.66,562.109l56.1-110.7Z" transform="translate(-41.519 353.405)" fill="#26007d"/>
      <path id="Path_24188" data-name="Path 24188" d="M652.63,579.394,709.31,740h23.478l-10.409-32.016,97.733-27.615L847.2,648.353,714,682.213,702.274,646.14,876.74,596.627l41.87-41.87L695,623.742l-12.833-39.42L1044.22,461.161,863.538,740h28.089l209.248-320.71Z" transform="translate(733.975 439.571)" fill="#26007d"/>
      <path id="Path_24189" data-name="Path 24189" d="M1280.671,558.422,965.417,415.55,753.56,746.114h28.7l193.016-301,290.617,135.467Z" transform="translate(898.998 433.456)" fill="#26007d"/>
      <path id="Path_24190" data-name="Path 24190" d="M914.009,443.59l-44.321,81.264,163.793,57.865-35.7,67.72L850,586.408l-52.96,92.358,77.706,21.475H931.9L827.817,665.223l32.016-56.653L987.9,668.912l-18.419,31.331H1006.4l95.625-170.46Zm-17.233,64.031,22.161-41.871,142.845,64.031-18.472,29.565Z" transform="translate(970.089 479.303)" fill="#26007d"/>
    </g>
  </g>
</svg>
