<svg xmlns="http://www.w3.org/2000/svg" xmlns:xlink="http://www.w3.org/1999/xlink" width="196" height="220" viewBox="0 0 196 220">
  <defs>
    <clipPath id="clip-path">
      <rect id="Rectangle_3610" data-name="Rectangle 3610" width="196" height="220" transform="translate(1994 3238)" fill="#fff" stroke="#707070" stroke-width="1"/>
    </clipPath>
    <filter id="Path_24395" x="-117.222" y="-104.797" width="426.778" height="426.76" filterUnits="userSpaceOnUse">
      <feOffset input="SourceAlpha"/>
      <feGaussianBlur stdDeviation="48.18" result="blur"/>
      <feFlood flood-color="#480056"/>
      <feComposite operator="in" in2="blur"/>
      <feComposite in="SourceGraphic"/>
    </filter>
    <clipPath id="clip-path-2">
      <circle id="Ellipse_36" data-name="Ellipse 36" cx="56.478" cy="56.478" r="56.478" transform="translate(0 0)" fill="none"/>
    </clipPath>
    <filter id="Path_7673" x="6.723" y="55.954" width="175.408" height="92.425" filterUnits="userSpaceOnUse">
      <feOffset input="SourceAlpha"/>
      <feGaussianBlur stdDeviation="5.5" result="blur-2"/>
      <feFlood flood-color="#15043b"/>
      <feComposite operator="in" in2="blur-2"/>
      <feComposite in="SourceGraphic"/>
    </filter>
    <filter id="Path_7674" x="-0.112" y="80.47" width="53.3" height="75.408" filterUnits="userSpaceOnUse">
      <feOffset input="SourceAlpha"/>
      <feGaussianBlur stdDeviation="3" result="blur-3"/>
      <feFlood flood-opacity="0.502"/>
      <feComposite operator="in" in2="blur-3"/>
      <feComposite in="SourceGraphic"/>
    </filter>
    <filter id="Path_7675" x="18.94" y="86.953" width="49.998" height="65.148" filterUnits="userSpaceOnUse">
      <feOffset input="SourceAlpha"/>
      <feGaussianBlur stdDeviation="3" result="blur-4"/>
      <feFlood flood-opacity="0.502"/>
      <feComposite operator="in" in2="blur-4"/>
      <feComposite in="SourceGraphic"/>
    </filter>
    <filter id="Path_7676" x="45.163" y="82.046" width="46.755" height="63.919" filterUnits="userSpaceOnUse">
      <feOffset input="SourceAlpha"/>
      <feGaussianBlur stdDeviation="3" result="blur-5"/>
      <feFlood flood-opacity="0.502"/>
      <feComposite operator="in" in2="blur-5"/>
      <feComposite in="SourceGraphic"/>
    </filter>
    <filter id="Path_7677" x="62.785" y="77.238" width="50.482" height="64.447" filterUnits="userSpaceOnUse">
      <feOffset input="SourceAlpha"/>
      <feGaussianBlur stdDeviation="3" result="blur-6"/>
      <feFlood flood-opacity="0.502"/>
      <feComposite operator="in" in2="blur-6"/>
      <feComposite in="SourceGraphic"/>
    </filter>
    <filter id="Path_7678" x="81.71" y="75.382" width="43.293" height="61.62" filterUnits="userSpaceOnUse">
      <feOffset input="SourceAlpha"/>
      <feGaussianBlur stdDeviation="3" result="blur-7"/>
      <feFlood flood-opacity="0.502"/>
      <feComposite operator="in" in2="blur-7"/>
      <feComposite in="SourceGraphic"/>
    </filter>
    <filter id="Path_7679" x="97.985" y="69.83" width="53.045" height="62.914" filterUnits="userSpaceOnUse">
      <feOffset input="SourceAlpha"/>
      <feGaussianBlur stdDeviation="3" result="blur-8"/>
      <feFlood flood-opacity="0.502"/>
      <feComposite operator="in" in2="blur-8"/>
      <feComposite in="SourceGraphic"/>
    </filter>
    <filter id="Path_7680" x="116.207" y="63.902" width="60.002" height="64.514" filterUnits="userSpaceOnUse">
      <feOffset input="SourceAlpha"/>
      <feGaussianBlur stdDeviation="3" result="blur-9"/>
      <feFlood flood-opacity="0.502"/>
      <feComposite operator="in" in2="blur-9"/>
      <feComposite in="SourceGraphic"/>
    </filter>
    <filter id="Path_7681" x="145.312" y="63.523" width="51.688" height="58.53" filterUnits="userSpaceOnUse">
      <feOffset input="SourceAlpha"/>
      <feGaussianBlur stdDeviation="3" result="blur-10"/>
      <feFlood flood-opacity="0.502"/>
      <feComposite operator="in" in2="blur-10"/>
      <feComposite in="SourceGraphic"/>
    </filter>
    <linearGradient id="linear-gradient" x1="0.5" x2="0.5" y2="1" gradientUnits="objectBoundingBox">
      <stop offset="0" stop-color="#fff" stop-opacity="0"/>
      <stop offset="0.1" stop-color="#fefcfa" stop-opacity="0.02"/>
      <stop offset="0.23" stop-color="#fef5ec" stop-opacity="0.078"/>
      <stop offset="0.36" stop-color="#feead5" stop-opacity="0.18"/>
      <stop offset="0.51" stop-color="#fddbb5" stop-opacity="0.322"/>
      <stop offset="0.66" stop-color="#fdc78c" stop-opacity="0.502"/>
      <stop offset="0.82" stop-color="#fcae5a" stop-opacity="0.722"/>
      <stop offset="0.98" stop-color="#fb9220" stop-opacity="0.969"/>
      <stop offset="1" stop-color="#fb8f19"/>
    </linearGradient>
    <linearGradient id="linear-gradient-9" x1="0.817" y1="0.65" x2="0.011" y2="0.193" gradientUnits="objectBoundingBox">
      <stop offset="0" stop-color="#fff" stop-opacity="0"/>
      <stop offset="0.09" stop-color="#fff" stop-opacity="0.031"/>
      <stop offset="0.22" stop-color="#fff" stop-opacity="0.102"/>
      <stop offset="0.37" stop-color="#fff" stop-opacity="0.231"/>
      <stop offset="0.54" stop-color="#fff" stop-opacity="0.4"/>
      <stop offset="0.73" stop-color="#fff" stop-opacity="0.631"/>
      <stop offset="0.93" stop-color="#fff" stop-opacity="0.89"/>
      <stop offset="1" stop-color="#fff"/>
    </linearGradient>
    <linearGradient id="linear-gradient-10" x1="0.965" y1="0.789" x2="0.181" y2="0.296" xlink:href="#linear-gradient-9"/>
    <linearGradient id="linear-gradient-11" x1="0.873" y1="0.741" x2="0.091" y2="0.298" xlink:href="#linear-gradient-9"/>
    <linearGradient id="linear-gradient-12" x1="0.814" y1="0.701" x2="0.158" y2="0.274" xlink:href="#linear-gradient-9"/>
    <linearGradient id="linear-gradient-13" x1="0.995" y1="0.75" x2="0.082" y2="0.285" xlink:href="#linear-gradient-9"/>
    <linearGradient id="linear-gradient-14" x1="0.756" y1="0.688" x2="0.212" y2="0.283" xlink:href="#linear-gradient-9"/>
    <linearGradient id="linear-gradient-15" x1="0.705" y1="0.688" x2="0.241" y2="0.277" xlink:href="#linear-gradient-9"/>
    <linearGradient id="linear-gradient-16" x1="0.736" y1="0.704" x2="0.212" y2="0.284" xlink:href="#linear-gradient-9"/>
  </defs>
  <g id="logo" transform="translate(-1994 -3238)" clip-path="url(#clip-path)">
    <g id="Group_2458" data-name="Group 2458" transform="translate(2889.234 2590.445)">
      <g id="Facilino_Logo" transform="translate(-888.78 648)" style="isolation: isolate">
        <g id="Camada_1" data-name="Camada 1" transform="translate(23.388 41.798)">
          <g id="Group_10964" data-name="Group 10964">
            <circle id="Ellipse_28" data-name="Ellipse 28" cx="66.388" cy="66.388" r="66.388" transform="translate(0 0)" fill="none" stroke="rgba(255,255,255,0.3)" stroke-miterlimit="10" stroke-width="5"/>
            <g id="Group_10958" data-name="Group 10958">
              <circle id="Ellipse_29" data-name="Ellipse 29" cx="66.388" cy="66.388" r="66.388" transform="translate(0 0)" fill="#ddb100"/>
              <g id="Group_10957" data-name="Group 10957">
                <g id="Group_10956" data-name="Group 10956" opacity="0.8" style="mix-blend-mode: multiply;isolation: isolate">
                  <path id="Ellipse_30" data-name="Ellipse 30" d="M66.388,0A66.388,66.388,0,1,1,0,66.388,66.388,66.388,0,0,1,66.388,0Z" transform="translate(0 0)" fill="#fff"/>
                </g>
              </g>
            </g>
            <g transform="matrix(1, 0, 0, 1, -29.84, -42.24)" filter="url(#Path_24395)">
              <path id="Path_24395-2" data-name="Path 24395" d="M66.388,0a66.333,66.333,0,1,1-7.113.377A66.237,66.237,0,0,1,66.388,0Z" transform="translate(29.84 42.24)" fill="none" stroke="rgba(255,255,255,0.3)" stroke-width="5"/>
            </g>
            <path id="Ellipse_32" data-name="Ellipse 32" d="M61.129,0A61.129,61.129,0,1,1,0,61.129,61.129,61.129,0,0,1,61.129,0Z" transform="translate(5.258 5.258)" fill="#52329d"/>
            <g id="Group_10961" data-name="Group 10961" transform="translate(7.22 7.22)">
              <circle id="Ellipse_33" data-name="Ellipse 33" cx="59.168" cy="59.168" r="59.168" transform="translate(0 0)" fill="#6a007d"/>
              <g id="Group_10960" data-name="Group 10960">
                <g id="Group_10959" data-name="Group 10959" opacity="0.8" style="mix-blend-mode: multiply;isolation: isolate">
                  <circle id="Ellipse_34" data-name="Ellipse 34" cx="59.168" cy="59.168" r="59.168" transform="translate(0 0)" fill="#070056"/>
                </g>
              </g>
            </g>
            <circle id="Ellipse_35" data-name="Ellipse 35" cx="56.478" cy="56.478" r="56.478" transform="translate(9.909 9.909)" fill="#2e136b"/>
            <g id="Group_10963" data-name="Group 10963" transform="translate(9.909 9.909)" clip-path="url(#clip-path-2)">
              <g id="Group_10962" data-name="Group 10962" transform="translate(-22.205 -28.492)">
                <path id="Path_24194" data-name="Path 24194" d="M453.235,553.787l9.329-9.329,4.168-11.908H418.9l4.564,13.1,9.329,7.94ZM463.843,534.1l-2.756,9.068L444.9,533.655l18.937.444Zm-4,10.579-7.558,7.112-8.269-16.98,15.825,9.868Zm-9.779,7.29-15.2-.267,7.423-16.847Zm-29.249-18.315h18.892l-14.8,10.757Zm19.649,1.333L433,551.525l-6.934-5.511Z" transform="translate(-365.157 -447.347)" fill="#581db4"/>
                <path id="Path_24195" data-name="Path 24195" d="M584.635,550.57l1.24-4.267-8.535-.413Z" transform="translate(-490.744 -457.921)" fill="#581db4"/>
                <path id="Path_24196" data-name="Path 24196" d="M568.116,571.347l-7.446-5.167,4.711,8.358Z" transform="translate(-477.53 -474.004)" fill="#581db4"/>
                <path id="Path_24197" data-name="Path 24197" d="M523.889,579.187l-3.824-8.717-2.756,8.564Z" transform="translate(-443.161 -477.404)" fill="#581db4"/>
                <path id="Path_24198" data-name="Path 24198" d="M471,570.781l2.553,2.38,4.738-9.121Z" transform="translate(-406.453 -472.308)" fill="#581db4"/>
                <path id="Path_24199" data-name="Path 24199" d="M443.65,545.948l1.816,4.894,8.389-5.171Z" transform="translate(-384.775 -457.747)" fill="#581db4"/>
                <path id="Path_24200" data-name="Path 24200" d="M829.035,764.6l-4.595,7.373,6.726-5.945Z" transform="translate(-686.607 -631.281)" fill="#581db4"/>
                <path id="Path_24201" data-name="Path 24201" d="M816.43,760.231l4.294-7.8L817.9,750.34Z" transform="translate(-680.258 -619.978)" fill="#581db4"/>
                <path id="Path_24202" data-name="Path 24202" d="M791.58,762.4l3.428,2.93,1.1-7.626Z" transform="translate(-660.561 -625.812)" fill="#581db4"/>
                <path id="Path_24203" data-name="Path 24203" d="M613.36,641.506l-19.918-.056L611.7,656.406l-2.142,1.476-5.9-5.812-1.483.444,5.764,6.48-.015.01.649.7.2.226h0l.57.616,3.89-2.876,3.485,2.855-2.159,1.889.829,1.068L617.9,661.5l2.152,1.765-6.364,5.905L592.38,642.437l10.952,29.653,11.8-1.132-.015-.019,6.389-6.5,3.117,2.553-3.413,3.129,1.215,1.512,3.54-3.54,2.476,2.028-6.726,7.023,1.333,1.808,8.269-8.387-34.771-27.916,16.364.288,25.1,17.229-2.119.921-23.008-16.37-10.988-.734,30.251,24.975,3.784-3.921-5.762-3.718L629.1,662.83l3.836,2.747-.991.691-25.834-20.5,7.239.815,24.013,17.685,2.629-2.53,9.88,6.608-9.837,7.732,1.333.889,10.133-6.689,6.639,3.989,1.055-.728L636.728,657.87l-23.364-16.364Zm-17.849,6.05,8.613,11.917-4.077.773c-2.218-6.129-4.536-12.69-4.536-12.69Zm5.4,15.074,4.609-1.223,2.407,3.33-5.833,1.109c-.363-.986-.763-2.075-1.179-3.215Zm3.119,8.02a15.642,15.642,0,0,1-1.082-2.544l6.585-1.147,2.069,2.861Z" transform="translate(-502.665 -533.666)" fill="#581db4"/>
                <path id="Path_24204" data-name="Path 24204" d="M675.334,617.426l11.371-5.14L643.24,595.15l32.1,22.276Zm7.879-5.049-7.823,3.674-3.558-2.47,4.454-4.012,6.93,2.807Zm-15.678-6.353,5.588,2.264-2.66,4.342-5.644-3.919,2.718-2.689Zm-4.464,1.476L651.7,599.608l13.063,5.294Z" transform="translate(-542.979 -496.967)" fill="#581db4"/>
                <path id="Path_24205" data-name="Path 24205" d="M405.643,645.382l-20.393,29.45,11.379,5.511,9.014-34.964ZM403.37,650.4s-1.184,4.547-2.874,10.722l-2.882-1.922Zm-7.1,10.861,3.662,1.933c-.452,1.642-.933,3.37-1.431,5.132l-4.993-2.845,2.762-4.222ZM387.74,674.3l4.392-6.712,5.719,3.031c-.69,2.422-1.4,4.873-2.109,7.237Z" transform="translate(-338.484 -536.782)" fill="#581db4"/>
                <path id="Path_24206" data-name="Path 24206" d="M270.645,602.09,227.75,626.769l12.92,10.55Zm-5.576,4.836-6.048,6.8-1.632-2.387Zm-9.188,5.279,2.053,2.741-3.345,3.761-3.965-3.481Zm-7.535,4.33,4.429,4.213-4.124,4.636-5.947-5.607,5.644-3.243Zm-8.19,4.707,6.778,6.071-2.944,3.309-8.24-6.849,4.406-2.532Zm-6.059,3.481,8.734,7.205-2.159,2.428-9.721-7.823,3.146-1.808Z" transform="translate(-213.642 -502.468)" fill="#581db4"/>
                <path id="Path_24207" data-name="Path 24207" d="M287.431,817.375,266.71,808.16l-3.631,15.184-3.1,2.428,1.105,5.414,14.96,4.989-1.167-11.941,12.555-6.857ZM267.2,810.229l16.673,7.311-3.09,2.239-14.116-6.3.535-3.251Zm-.525,4.7,11.45,5.866-2.984,2.4-9.3-4.728.836-3.544Zm-1.435,4.879,8.336,4.106.164,4.744-10-4.286,1.505-4.564Zm-3.1,10.009-.62-4.236,12.711,4.566.313,3.662-12.4-3.991Z" transform="translate(-239.189 -665.809)" fill="#581db4"/>
                <path id="Path_24208" data-name="Path 24208" d="M274.727,901.572l1.184.616.41-1.279-2.071-.8Z" transform="translate(-250.5 -738.693)" fill="#581db4"/>
                <path id="Path_24209" data-name="Path 24209" d="M313.18,914.27l.1,1.273,1.342.4-.048-1.147Z" transform="translate(-281.358 -749.917)" fill="#581db4"/>
                <path id="Path_24210" data-name="Path 24210" d="M290.87,908.935l3.081,1,.114-1.3-2.851-.8Z" transform="translate(-263.674 -744.812)" fill="#581db4"/>
                <path id="Path_24211" data-name="Path 24211" d="M313.88,887.388l1.078.429.015-2.347-.993-.521Z" transform="translate(-281.913 -726.676)" fill="#581db4"/>
                <path id="Path_24212" data-name="Path 24212" d="M296.872,880.317l2.26,1.014c.023-.093.421-2.241.421-2.241l-1.908-1.06-.775,2.287Z" transform="translate(-268.43 -721.191)" fill="#581db4"/>
                <path id="Path_24213" data-name="Path 24213" d="M286.6,874.873l.97.228.931-2.177-1.209-.554Z" transform="translate(-260.289 -716.705)" fill="#581db4"/>
                <path id="Path_24214" data-name="Path 24214" d="M325.39,863.64l-.68,1.25.881.554,1.509-.914Z" transform="translate(-290.497 -709.785)" fill="#581db4"/>
                <path id="Path_24215" data-name="Path 24215" d="M307.42,855.781l2.268,1.209.7-1.29-2.53-1.35Z" transform="translate(-276.792 -702.421)" fill="#581db4"/>
                <path id="Path_24216" data-name="Path 24216" d="M296.87,849.985l.836.363c0-.079.338-1.337.338-1.337l-.858-.57-.313,1.545Z" transform="translate(-268.43 -697.737)" fill="#581db4"/>
                <path id="Path_24217" data-name="Path 24217" d="M343.63,846.92l1.9.869,1.387-.657-2.494-1.182Z" transform="translate(-305.494 -695.763)" fill="#581db4"/>
                <path id="Path_24218" data-name="Path 24218" d="M319.36,836.186l3.608,1.57.7-.906-3.651-1.609Z" transform="translate(-286.256 -687.274)" fill="#581db4"/>
                <path id="Path_24219" data-name="Path 24219" d="M304.39,828.327l1.57.635.618-1.08-1.968-.941Z" transform="translate(-274.39 -680.695)" fill="#581db4"/>
                <path id="Path_24220" data-name="Path 24220" d="M593.24,854.618l2.665,11.96,1.169-1.093-2.2-9.341,9.542-2.882,3.6,13.094,1.192-.342L605.72,851.86Z" transform="translate(-503.347 -700.448)" fill="#581db4"/>
                <path id="Path_24221" data-name="Path 24221" d="M611.88,870.563l2.142,8.738,1.439-.4-2.271-7.4,3.643-1.4,2.76,8.852.966-.411-3.108-10.2Z" transform="translate(-518.122 -713.511)" fill="#581db4"/>
                <path id="Path_24222" data-name="Path 24222" d="M605.921,601.585l-2.358,1.555.846.579,1.512-.711,4.357,2.667-11.914.089,6.225-4.979-1.6-1.155-7.647,7.288H614.1Z" transform="translate(-505.011 -500.518)" fill="#581db4"/>
                <path id="Path_24223" data-name="Path 24223" d="M815.93,686.232l-10.49,4.8,19.56,12.8-.178-3.734-8.535-5.868-.357-8Zm-1.955,8-6.046-3.023,6.046-1.779v4.8Z" transform="translate(-671.547 -569.161)" fill="#581db4"/>
                <path id="Path_24224" data-name="Path 24224" d="M454.681,615.7l-6.4-6c.711.979,5.422,7.512,5.422,7.512Z" transform="translate(-388.444 -508.5)" fill="#581db4"/>
                <path id="Path_24225" data-name="Path 24225" d="M330.663,615.463l-6.181-8.763L294.36,642.041l14.936,5.69Zm-6.811-5.762,2.648,3.268-2.312,2.237-2.957-2.546Zm-3.239,3.981,3.558,3.583,2.837-3.056,1.491,2.144-5.209,7.774-2.441-1.92,2.4-3.1-4.3-3.324,1.665-2.1Zm-3.2,3.583,3.72,2.536-2.627,3.386,3.585,2.447-1.041,1.655-3.971-2.787-3.345,4.2-3.915-2.179Zm-9.059,10.546,5.215,2.8,3.222-3.786,3.17,2.055-6.2,9.484-3.276-1.808,2.571-4.1-6.285-2.727Zm-10.621,13.08,7.886-9.52,5.285,2.32-2.465,3.855,4.363,2.223-1.091,1.874-4.157-2.629-3.029,4.483-6.793-2.6Zm7.946,2.959,2.028-3.042,2.874,1.522-1.607,2.536-3.3-1.014Z" transform="translate(-266.44 -506.122)" fill="#581db4"/>
                <path id="Path_24226" data-name="Path 24226" d="M829.8,634.308l.533,9.067,1.957.711-1.068-11.023-7.645-3.556,11.025-3.734.176-2.134-14.757,6.044Z" transform="translate(-683.104 -519.549)" fill="#581db4"/>
                <path id="Path_24227" data-name="Path 24227" d="M542.208,675.913l4.446,4.8,3.2-.357-7.112-6.579-9.068,7.112-9.424-8-9.25,9.96-7.288-9.246-14.166,1.659-10.432-32.007-16.565-.326,4.089,16,5.719,26.879-18.966-3.081,5.1-21.16,5.69.118,3.378,19.678-10.9-1.719-.178,1.661,12.742,1.777-2.963-18.2-1.008-4.327L461.9,660.2l-6.046,23.472,22.168,3.556L472.061,658.7l-3.913-14.434,14.469.178-.006.014,11.765,40.527,2.134-.593-2.134-7.112,12.269-1.9,19.738,27.74,2.31-.711-13.156-17.782,8.889-9.246,22.761,22.761.89-1.779-14.048-14.048Z" transform="translate(-394.445 -534.84)" fill="#581db4"/>
                <path id="Path_24228" data-name="Path 24228" d="M720.532,784.85l-1.422,1.483,1.3,1.748,1.3-1.541Z" transform="translate(-603.117 -647.332)" fill="#581db4"/>
                <path id="Path_24229" data-name="Path 24229" d="M688.938,746.55l-1.408,1.207.91,1.246,1.327-1.267Z" transform="translate(-578.086 -616.974)" fill="#581db4"/>
                <path id="Path_24230" data-name="Path 24230" d="M766.206,845.369l-1.422-1.244-3.467,2.667-2.845-3.2-.622.89,6.579,8.891,1.244-1.068-3.38-3.822Z" transform="translate(-633.825 -693.893)" fill="#581db4"/>
                <path id="Path_24231" data-name="Path 24231" d="M790.149,829.3l3.645,4,1.244-1.422L784.816,821.3l-1.246.977,5.246,5.868-3.378,3.2.977.89Z" transform="translate(-654.212 -676.224)" fill="#581db4"/>
                <path id="Path_24232" data-name="Path 24232" d="M802.359,893.405l-2.312,2.134-2.9-3.349-1.422,1.155,5.217,5.75.533-2.134,2.073-2.194Z" transform="translate(-663.842 -732.415)" fill="#581db4"/>
                <path id="Path_24233" data-name="Path 24233" d="M833.177,879.655l2.756,2.756-3.913,3.645,2.134,1.066L837,883.655l3.556,3.378,1.6-1.333-7.734-7.38Z" transform="translate(-692.615 -721.421)" fill="#581db4"/>
                <path id="Path_24234" data-name="Path 24234" d="M861.2,847.7l2.963-3.911L851.6,838.81Z" transform="translate(-708.135 -690.104)" fill="#581db4"/>
                <path id="Path_24235" data-name="Path 24235" d="M855.61,818.547l9.275,3.183-5.968-5.87Z" transform="translate(-711.314 -671.912)" fill="#581db4"/>
                <path id="Path_24236" data-name="Path 24236" d="M665.942,809.72l-8,1.955,17.069,10.847Zm-1.068,1.6,6.579,7.469-10.847-6.4Z" transform="translate(-554.631 -667.046)" fill="#581db4"/>
                <path id="Path_24237" data-name="Path 24237" d="M659.37,832.02,662.808,845l14.581-1.6Zm2.194,2.845,12.091,7.823-9.957.89Z" transform="translate(-555.765 -684.722)" fill="#581db4"/>
                <path id="Path_24238" data-name="Path 24238" d="M677.662,897.516l.829,5.393,1.717.031c-.278-1.79-.591-3.944-.591-3.944l11.558-.89,2.6,5.078,4.329.079-5.157-6.934-15.292,1.186Z" transform="translate(-570.262 -735.697)" fill="#581db4"/>
                <path id="Path_24239" data-name="Path 24239" d="M223.655,681.745l2.37-4.624,13.04,6.994,10.314-40.185-1.9.118-9.364,37.933-12.329-6.637-3.2,4.267-16.953-6.519L184.3,702.252l1.659.829L205.875,674.4Z" transform="translate(-179.201 -535.632)" fill="#581db4"/>
                <path id="Path_24240" data-name="Path 24240" d="M493.39,663.584l3.734.245-1.868-7.228Z" transform="translate(-424.201 -545.675)" fill="#581db4"/>
                <path id="Path_24241" data-name="Path 24241" d="M488.3,702.244l6.252.487-1.029-3.979-4.493-.243Z" transform="translate(-420.166 -578.895)" fill="#581db4"/>
                <path id="Path_24242" data-name="Path 24242" d="M483.58,767.411l6.341,1.008L485.3,756.45Z" transform="translate(-416.425 -624.821)" fill="#581db4"/>
                <path id="Path_24243" data-name="Path 24243" d="M499.7,741.05h-2.19l4.016,10.061Z" transform="translate(-427.467 -612.614)" fill="#581db4"/>
                <path id="Path_24244" data-name="Path 24244" d="M449.154,848.012l-1.3,9.957,11.379,1.541.236-5.572-8.771-1.422v-2.727l24.063,3.913,2.608,12.091h1.779l-2.963-13.752-27.026-4.031Zm8.773,7.112-.236,3.2-7.469-1.3.236-2.845Z" transform="translate(-388.104 -697.396)" fill="#581db4"/>
                <path id="Path_24245" data-name="Path 24245" d="M557.329,775.984l-4.622-19.338,7.823-.176,1.777,7.467-6.283.711.593,2.49,8.713-1.244-3.556-11.914-11.025.89,3.956,20.493Z" transform="translate(-469.667 -622.863)" fill="#581db4"/>
                <path id="Path_24246" data-name="Path 24246" d="M535.069,660.814H532.4l3.467,14.846,6.936-.533-4.178-18.048-11.025.357,4.622,18.67,1.512-.267-4.267-17.069,7.913-.446,3.556,15.025-2.845.446Z" transform="translate(-451.317 -546.056)" fill="#581db4"/>
                <path id="Path_24247" data-name="Path 24247" d="M586.813,827.744l7.647-1.955-1.69-5.779-7.29,1.511.267,1.69,5.957-1.6.977,3.112-6.312,1.422Z" transform="translate(-497.196 -675.202)" fill="#581db4"/>
                <path id="Path_24248" data-name="Path 24248" d="M221.3,831.316l2.221-11.736-14.49,21.428,2.31.265,8.566-13.542-.711,5.1Z" transform="translate(-198.803 -674.861)" fill="#581db4"/>
                <path id="Path_24249" data-name="Path 24249" d="M355.7,822.56l-1.429-1.031,1.845-2.266-1.6-.829-1.58,2.134-2.345-1.692.249.091.711-1.779-1.6-.888-.709,1.6h0l-.068.164-.11.251h.006l-.363.885,4.86,4.385-14.342,8.3,1.066,8.062,1.779-.357-1.661-6.994,13.065-7.042-.025.048,7.38-3.5-1.926-1.126Z" transform="translate(-302.006 -672.261)" fill="#581db4"/>
                <path id="Path_24250" data-name="Path 24250" d="M368.247,878.886l1.439-.332-1.329-3.376,13.725-5.534.166-1.715-15.218,6.53Z" transform="translate(-324.042 -713.185)" fill="#581db4"/>
                <path id="Path_24251" data-name="Path 24251" d="M426.92,894.2l1.217.332.885-6.583-2.212.719Z" transform="translate(-371.426 -729.054)" fill="#581db4"/>
                <path id="Path_24252" data-name="Path 24252" d="M559.33,883.04l.89,8.535,2.756,1.69-1.69-9.868Z" transform="translate(-476.468 -725.163)" fill="#581db4"/>
                <path id="Path_24253" data-name="Path 24253" d="M533.259,879.18l-.089,9.157,2.4-.087-.178-8.624Z" transform="translate(-455.732 -722.103)" fill="#581db4"/>
                <path id="Path_24254" data-name="Path 24254" d="M223.007,752.871l12-15.825L222.74,726.11Zm4.535-19.381,4.356,4-4.8,6.49Zm-1.422-.89.267,13.069-1.866,2.4-.267-17.87,1.866,2.4Z" transform="translate(-209.671 -600.772)" fill="#581db4"/>
                <path id="Path_24255" data-name="Path 24255" d="M176.131,727.83l-7.691,31.094,6.092-7.179-.089,4.535-6.668,7.38-.243-1.062-1.8,7.286,10.4-13.337V727.832Zm-2.045,21.87-2.845,3.467,3.289-13.781Z" transform="translate(-164.482 -602.135)" fill="#581db4"/>
                <path id="Path_24256" data-name="Path 24256" d="M170.024,727.392l-10.314,11.2,3.645,12.8,6.668-24.005Zm-2.845,5.422L163.8,742.95l-.711-5.422,4.089-4.711Z" transform="translate(-159.71 -601.787)" fill="#581db4"/>
                <path id="Path_24257" data-name="Path 24257" d="M172.29,668.149l6.521-3.081-4.624-9.128-1.422.948,3.795,7.587-3.2,1.3Z" transform="translate(-169.681 -545.152)" fill="#581db4"/>
                <path id="Path_24258" data-name="Path 24258" d="M280.232,534.61l-6.952,10.28,9.615-4.141Z" transform="translate(-249.731 -448.98)" fill="#581db4"/>
                <path id="Path_24259" data-name="Path 24259" d="M285.734,634.551l1.955-1.066-1.066-2.136-2.134.711Z" transform="translate(-258.617 -525.661)" fill="#581db4"/>
                <path id="Path_24260" data-name="Path 24260" d="M307.389,625.054l2.074-1.333-.711-1.661L306.5,623.1Z" transform="translate(-276.063 -518.297)" fill="#581db4"/>
                <path id="Path_24261" data-name="Path 24261" d="M348.891,546.668l-3.2-8.358-8.445,2.312,2.667,6.136,1.69-.668-2.044-4.356,5.068-1.644,2.134,6.133-17.248,8.358.622,1.688Z" transform="translate(-294.302 -451.913)" fill="#581db4"/>
                <path id="Path_24262" data-name="Path 24262" d="M193.3,592.821l-1.068-3.2-4.5,1.779,2.015,3.792Z" transform="translate(-181.92 -492.583)" fill="#581db4"/>
                <path id="Path_24263" data-name="Path 24263" d="M173.44,557.12l1.777,4.385,4.742-1.659-2.134-5.1Z" transform="translate(-170.593 -464.944)" fill="#581db4"/>
                <path id="Path_24264" data-name="Path 24264" d="M170.475,570.588l45.874-24.774-.593-1.659-42.082,23.827-5.69-13.513,9.246-4.979-6.337-16.93h-1.551l5.99,16.812-9.482,4.978,6.283,14.224-3.674,1.541-6.4,4.979-1.779,4.031c.357-.355,10.2-8.535,10.2-8.535Z" transform="translate(-160.162 -447.355)" fill="#581db4"/>
                <path id="Path_24265" data-name="Path 24265" d="M227.631,548.69l19.47-7.734-3.971-8.4h-1.553l3.212,7.774-16.625,6.758-5.225-14.529H221.73c1.507,4.236,5.9,16.13,5.9,16.13Z" transform="translate(-208.87 -447.355)" fill="#581db4"/>
                <path id="Path_24266" data-name="Path 24266" d="M239.868,543l2.283-10.453H236.09Z" transform="translate(-220.252 -447.347)" fill="#581db4"/>
                <path id="Path_24267" data-name="Path 24267" d="M271.489,532.55h-3.282l-2.227,8.545Z" transform="translate(-243.945 -447.347)" fill="#581db4"/>
                <path id="Path_24268" data-name="Path 24268" d="M235.945,532.55h-1.978l4.589,9.464-21.871,8.713,3.826,8.414-8.647,3.983-2.488-6.521,4.74-2.37,1.543,3.2-4.388,2.015.711,1.186,5.453-2.727-2.488-6.4-7.587,4.149,4.267,10.075,10.683-6.125h.025l-4.05-7.993,23.116-8.889Z" transform="translate(-197.48 -447.347)" fill="#581db4"/>
                <path id="Path_24269" data-name="Path 24269" d="M657.736,532.55l13.047,20.132-26.139-8.891.925-2.847,16.144,4.981L658.69,542.9l-12.59-3.572.846-2.6,9.615,2.445-1.956-2.312-7.056-1.995.753-2.312h-1.7l-4.093,11.6L674.871,555.7l-15.107-23.15Z" transform="translate(-542.401 -447.347)" fill="#581db4"/>
                <path id="Path_24270" data-name="Path 24270" d="M751.115,554.282,737.181,532.55H735.11l15.29,23.866L773.163,546.1l-1.066-1.6Z" transform="translate(-615.8 -447.347)" fill="#581db4"/>
                <path id="Path_24271" data-name="Path 24271" d="M783.437,551.089l13.573-6.223-6.9-12.306h-2.664l1.329,2.26-9.246,4.357-2.312-4.089,7.514-2.527H780.6l-5.611,1.549,3.824,6.668,10.668-4.624,2.577,4.889-11.825,4.178,3.2,5.868Zm9.335-8.356,1.333,2.134-10.314,4.624-1.6-3.023,10.579-3.734Z" transform="translate(-647.41 -447.355)" fill="#581db4"/>
                <path id="Path_24272" data-name="Path 24272" d="M432.793,430.129l-9.329,7.939-4.564,13.1h47.832l-4.168-11.908-9.329-9.329Zm-11.981,19.933L424.9,439.3l14.8,10.757Zm5.246-12.358,6.934-5.511,7.469,16.536Zm8.8-5.69,15.2-.268-7.78,17.115Zm28.984,17.6-18.937.444,16.182-9.513,2.756,9.068Zm-19.825-.711,8.269-16.98,7.558,7.112L444.019,448.9Z" transform="translate(-365.157 -366.006)" fill="#581db4"/>
                <path id="Path_24273" data-name="Path 24273" d="M585.875,500.7l-1.24-4.267-7.295,4.682Z" transform="translate(-490.744 -418.717)" fill="#581db4"/>
                <path id="Path_24274" data-name="Path 24274" d="M568.116,461.6l-2.735-3.191-4.711,8.358Z" transform="translate(-477.53 -388.58)" fill="#581db4"/>
                <path id="Path_24275" data-name="Path 24275" d="M517.31,452.543l2.756,8.564,3.824-8.717Z" transform="translate(-443.161 -383.808)" fill="#581db4"/>
                <path id="Path_24276" data-name="Path 24276" d="M471,459.242l7.291,6.741-4.738-9.123Z" transform="translate(-406.453 -387.352)" fill="#581db4"/>
                <path id="Path_24277" data-name="Path 24277" d="M453.856,499.461l-8.389-5.171-1.816,4.891Z" transform="translate(-384.775 -417.02)" fill="#581db4"/>
                <path id="Path_24278" data-name="Path 24278" d="M831.166,270.685l-6.726-5.945,4.595,7.373Z" transform="translate(-686.607 -235.068)" fill="#581db4"/>
                <path id="Path_24279" data-name="Path 24279" d="M817.9,276.751l2.826-2.094-4.294-7.8Z" transform="translate(-680.258 -236.748)" fill="#581db4"/>
                <path id="Path_24280" data-name="Path 24280" d="M795.008,270.42l-3.428,2.93,4.533,4.7Z" transform="translate(-660.561 -239.57)" fill="#581db4"/>
                <path id="Path_24281" data-name="Path 24281" d="M651.468,251.276l-10.133-6.689-1.333.89,9.837,7.732-9.88,6.608-2.629-2.53-24.013,17.685-7.239.815,25.834-20.5.991.69-3.836,2.747,1.068,1.512,5.762-3.718-3.784-3.921L601.861,277.57l10.988-.734,23.008-16.37,2.119.921-25.1,17.229-16.364.288,34.771-27.916-8.269-8.387-1.333,1.808,6.727,7.023-2.476,2.028-3.539-3.54-1.215,1.512,3.413,3.129-3.116,2.552-6.389-6.5.015-.019-11.8-1.132L592.35,279.115l21.322-26.728,6.364,5.9-2.152,1.765-2.511-1.986-.829,1.068,2.159,1.889-3.486,2.855L609.327,261l-.57.616h0l-.2.226-.649.7.015.01-5.764,6.48,1.482.444,5.9-5.812,2.142,1.476L593.412,280.1l19.918-.056,23.364-16.364,22.464-15.667-1.055-.728-6.639,3.989Zm-55.981,22.717s2.318-6.563,4.537-12.69l4.077.773ZM605.5,260.142l-4.609-1.223c.417-1.14.817-2.229,1.184-3.216l5.833,1.109Zm4.014-5.553-6.586-1.147a15.612,15.612,0,0,1,1.082-2.544c.355.037,7.572.829,7.572.829Z" transform="translate(-502.641 -217.519)" fill="#581db4"/>
                <path id="Path_24282" data-name="Path 24282" d="M643.232,384.6,686.7,367.46l-11.371-5.14-32.1,22.28Zm8.466-4.458,11.367-7.892,1.7,2.6Zm15.831-6.415-2.719-2.689,5.644-3.919,2.66,4.342-5.588,2.264Zm15.678-6.353-6.93,2.808-4.454-4.012,3.558-2.47,7.823,3.674Z" transform="translate(-542.971 -312.415)" fill="#581db4"/>
                <path id="Path_24283" data-name="Path 24283" d="M385.25,256.393l20.393,29.45-9.014-34.964L385.25,256.39Zm18.12,24.428-5.756-8.8L400.5,270.1c1.688,6.173,2.874,10.722,2.874,10.722Zm-3.442-12.794-3.662,1.932-2.762-4.222,5-2.837c.5,1.759.974,3.486,1.428,5.128Zm-7.8-4.39-4.392-6.712,8-3.556c.707,2.364,1.418,4.815,2.109,7.237Z" transform="translate(-338.484 -224.082)" fill="#581db4"/>
                <path id="Path_24284" data-name="Path 24284" d="M227.75,303.46l42.895,24.679L240.67,292.91Zm37.319,19.846-7.68-4.415,1.632-2.387Zm-7.135-8.02-2.053,2.741-5.256-3.021,3.965-3.481Zm-5.161-5.8-4.429,4.213-5.644-3.243,5.947-5.607,4.124,4.636Zm-5.841-6.567-6.778,6.071-4.406-2.532,8.24-6.849Zm-12.837,2.59-3.146-1.808,9.721-7.823,2.159,2.428-8.734,7.2Z" transform="translate(-213.642 -257.397)" fill="#581db4"/>
                <path id="Path_24285" data-name="Path 24285" d="M266.7,149.653l20.721-9.215-12.555-6.857,1.167-11.941-14.96,4.989-1.105,5.414,3.1,2.428,3.631,15.184Zm-2.975-16.213,10-4.286-.164,4.744-8.33,4.1-1.505-4.564Zm20.138,6.832-16.673,7.311-.535-3.251,14.117-6.3,3.09,2.239Zm-8.734-5.659,2.984,2.4-11.45,5.866-.836-3.544,9.3-4.728ZM262.137,128l12.4-3.992-.313,3.662-12.711,4.566.62-4.236Z" transform="translate(-239.181 -121.64)" fill="#581db4"/>
                <path id="Path_24286" data-name="Path 24286" d="M274.727,155.386l-.477,1.462,2.071-.8-.41-1.279Z" transform="translate(-250.5 -147.9)" fill="#581db4"/>
                <path id="Path_24287" data-name="Path 24287" d="M313.18,144.225l1.389-.531.048-1.145-1.342.4Z" transform="translate(-281.358 -138.214)" fill="#581db4"/>
                <path id="Path_24288" data-name="Path 24288" d="M290.87,147.927l.344,1.1,2.851-.8-.114-1.3Z" transform="translate(-263.674 -141.686)" fill="#581db4"/>
                <path id="Path_24289" data-name="Path 24289" d="M313.88,166.547l.1,2.44.993-.52-.015-2.347Z" transform="translate(-281.913 -156.897)" fill="#581db4"/>
                <path id="Path_24290" data-name="Path 24290" d="M296.88,171.964l.775,2.287,1.908-1.06s-.4-2.146-.421-2.241l-2.26,1.014Z" transform="translate(-268.438 -160.725)" fill="#581db4"/>
                <path id="Path_24291" data-name="Path 24291" d="M286.6,179.588l.693,2.5,1.209-.554-.931-2.177Z" transform="translate(-260.289 -167.392)" fill="#581db4"/>
                <path id="Path_24292" data-name="Path 24292" d="M327.1,193.474l-1.509-.914-.881.554.68,1.25Z" transform="translate(-290.497 -177.855)" fill="#581db4"/>
                <path id="Path_24293" data-name="Path 24293" d="M310.393,199.1l-.7-1.292-2.268,1.211.444,1.431Z" transform="translate(-276.792 -182.016)" fill="#581db4"/>
                <path id="Path_24294" data-name="Path 24294" d="M298.044,208.6s-.34-1.259-.338-1.337l-.836.363.313,1.545.858-.57Z" transform="translate(-268.43 -189.507)" fill="#581db4"/>
                <path id="Path_24295" data-name="Path 24295" d="M346.917,210.735l-1.387-.655-1.9.869.792.97Z" transform="translate(-305.494 -191.742)" fill="#581db4"/>
                <path id="Path_24296" data-name="Path 24296" d="M323.667,218.434l-.7-.9-3.608,1.57.655.946Z" transform="translate(-286.256 -197.647)" fill="#581db4"/>
                <path id="Path_24297" data-name="Path 24297" d="M306.578,229.282l-.618-1.082-1.57.637.22,1.387Z" transform="translate(-274.39 -206.105)" fill="#581db4"/>
                <path id="Path_24298" data-name="Path 24298" d="M605.725,156.776l3.488-14.154-1.192-.34-3.6,13.094-9.542-2.884,2.2-9.339L595.9,142.06l-2.665,11.96Z" transform="translate(-503.347 -137.826)" fill="#581db4"/>
                <path id="Path_24299" data-name="Path 24299" d="M620.56,144.465l-.966-.411-2.76,8.852-3.643-1.4,2.271-7.4-1.439-.4-2.142,8.738,5.572,2.221Z" transform="translate(-518.122 -139.126)" fill="#581db4"/>
                <path id="Path_24300" data-name="Path 24300" d="M602.987,437.4l1.6-1.155-6.225-4.979,11.914.089-4.357,2.667-1.512-.711-.846.578,2.358,1.555,8.178-5.335H595.34Z" transform="translate(-505.011 -366.148)" fill="#581db4"/>
                <path id="Path_24301" data-name="Path 24301" d="M825,293.762l-19.559,12.8,10.49,4.8.357-8,8.535-5.868L825,293.76Zm-11.025,14.4-6.046-1.779,6.046-3.023v4.8Z" transform="translate(-671.547 -258.071)" fill="#581db4"/>
                <path id="Path_24302" data-name="Path 24302" d="M448.28,426.482l6.4-6-.979-1.512S448.991,425.5,448.28,426.482Z" transform="translate(-388.444 -357.318)" fill="#581db4"/>
                <path id="Path_24303" data-name="Path 24303" d="M294.35,266.01l30.122,35.341,6.181-8.763L309.286,260.32Zm29.494,32.339-2.621-2.959,2.957-2.546,2.312,2.237Zm4.647-6.652L327,293.84l-2.837-3.056-3.558,3.583-1.665-2.1,4.3-3.324-2.4-3.1,2.44-1.92,5.209,7.774Zm-6.407-9.281-3.585,2.447,2.627,3.386-3.72,2.536-7.593-9.256,3.915-2.179,3.345,4.2,3.971-2.787,1.041,1.655Zm-2.127-3.249-3.17,2.055-3.222-3.786-5.215,2.8-1.578-1.922,6.285-2.727-2.571-4.1,3.276-1.808ZM312.8,268.28l-4.363,2.223,2.465,3.855-5.285,2.32-7.886-9.52,6.793-2.6,3.029,4.483,4.157-2.629,1.091,1.874Zm-5.1-1.039-2.028-3.042,3.3-1.014,1.607,2.536-2.874,1.522Z" transform="translate(-266.432 -231.564)" fill="#581db4"/>
                <path id="Path_24304" data-name="Path 24304" d="M832.289,342.65l-1.957.711-.533,9.067-9.779,4.624,14.757,6.044-.176-2.134-11.025-3.734,7.645-3.556Z" transform="translate(-683.104 -296.823)" fill="#581db4"/>
                <path id="Path_24305" data-name="Path 24305" d="M494.376,157.532l2.134-7.112-2.134-.593-11.765,40.527.006.015-14.469.178,3.913-14.434,5.957-28.538-22.168,3.556L461.9,174.6l7.349-.355,1.008-4.327,2.963-18.2L460.474,153.5l.178,1.661,10.9-1.719-3.378,19.678-5.69.118-5.1-21.16L476.357,149l-5.719,26.879-4.089,16,16.565-.328,10.432-32,14.166,1.659L515,151.961l9.248,9.957,9.424-8,9.068,7.114,7.112-6.579-3.2-.357-4.446,4.8-8.18-6.4,14.048-14.046-.89-1.779-22.761,22.761-8.889-9.246L528.693,132.4l-2.31-.711-19.738,27.74Z" transform="translate(-394.445 -129.606)" fill="#581db4"/>
                <path id="Path_24306" data-name="Path 24306" d="M720.414,264.47l-1.3,1.748,1.422,1.483,1.186-1.69Z" transform="translate(-603.117 -234.854)" fill="#581db4"/>
                <path id="Path_24307" data-name="Path 24307" d="M689.767,307.787l-1.327-1.267-.91,1.244,1.408,1.209Z" transform="translate(-578.086 -268.185)" fill="#581db4"/>
                <path id="Path_24308" data-name="Path 24308" d="M762.293,179.029l3.38-3.822-1.244-1.068-6.579,8.891.622.887,2.845-3.2,3.467,2.667,1.422-1.244Z" transform="translate(-633.825 -163.254)" fill="#581db4"/>
                <path id="Path_24309" data-name="Path 24309" d="M795.039,187.142l-1.244-1.422-3.645,4-3.734-2.934-.977.89,3.378,3.2-5.246,5.866,1.246.979Z" transform="translate(-654.212 -172.433)" fill="#581db4"/>
                <path id="Path_24310" data-name="Path 24310" d="M797.142,146.315l2.9-3.349,2.312,2.134,1.184-1.362-2.073-2.194-.533-2.134-5.217,5.75Z" transform="translate(-663.842 -135.725)" fill="#581db4"/>
                <path id="Path_24311" data-name="Path 24311" d="M833.177,151.6l1.244,1.333,7.734-7.378-1.6-1.333L837,147.6l-2.845-3.467L832.02,145.2l3.913,3.645Z" transform="translate(-692.615 -139.467)" fill="#581db4"/>
                <path id="Path_24312" data-name="Path 24312" d="M851.6,192.109l12.565-4.979-2.965-3.91Z" transform="translate(-708.135 -170.451)" fill="#581db4"/>
                <path id="Path_24313" data-name="Path 24313" d="M864.885,220.73l-9.275,3.183,3.307,2.685Z" transform="translate(-711.314 -200.184)" fill="#581db4"/>
                <path id="Path_24314" data-name="Path 24314" d="M657.94,204.277l8,1.955,9.068-12.8Zm6.934.357-4.267-1.068,10.847-6.4Z" transform="translate(-554.631 -178.544)" fill="#581db4"/>
                <path id="Path_24315" data-name="Path 24315" d="M677.389,171.881l-14.581-1.6-3.438,12.98ZM663.7,171.7l9.957.89-12.091,7.823Z" transform="translate(-555.765 -160.194)" fill="#581db4"/>
                <path id="Path_24316" data-name="Path 24316" d="M698.117,135.12l-4.33.079-2.6,5.078-11.558-.89s.313-2.154.591-3.944l-1.717.031-.83,5.393,15.292,1.186,5.157-6.934Z" transform="translate(-570.27 -132.325)" fill="#581db4"/>
                <path id="Path_24317" data-name="Path 24317" d="M222.59,159.162l3.2,4.267,12.329-6.639,9.364,37.933,1.9.12-10.314-40.187-13.04,6.994-2.37-4.622-17.78,7.349-19.92-28.687-1.659.831,21.337,29.16Z" transform="translate(-179.201 -132.777)" fill="#581db4"/>
                <path id="Path_24318" data-name="Path 24318" d="M497.124,373.44l-3.734.245,1.866,6.984Z" transform="translate(-424.201 -321.229)" fill="#581db4"/>
                <path id="Path_24319" data-name="Path 24319" d="M494.552,346.03l-6.252.487.73,3.734,4.493-.243Z" transform="translate(-420.166 -299.502)" fill="#581db4"/>
                <path id="Path_24320" data-name="Path 24320" d="M485.3,262.69l4.62-11.97-6.341,1.01Z" transform="translate(-416.425 -223.955)" fill="#581db4"/>
                <path id="Path_24321" data-name="Path 24321" d="M501.526,275.33l-4.016,10.061h2.19Z" transform="translate(-427.467 -243.462)" fill="#581db4"/>
                <path id="Path_24322" data-name="Path 24322" d="M476.172,144.872l2.963-13.752h-1.779l-2.609,12.091-24.063,3.913V144.4l8.771-1.422-.236-5.572-11.38,1.541,1.3,9.957,27.026-4.031Zm-18.492-6.283.236,3.2-7.469.948-.236-2.845Z" transform="translate(-388.096 -129.154)" fill="#581db4"/>
                <path id="Path_24323" data-name="Path 24323" d="M552.707,224.136l4.622-19.336-2.623.622-3.956,20.493,11.025.89,3.556-11.914-8.713-1.244-.593,2.488,6.283.711-1.777,7.469Z" transform="translate(-469.667 -187.557)" fill="#581db4"/>
                <path id="Path_24324" data-name="Path 24324" d="M529.466,333.4l4.267-17.069-1.512-.267L527.6,334.73l11.025.357,4.178-18.048-6.936-.533L532.4,331.352h2.669l3.021-12.98,2.845.444-3.556,15.027Z" transform="translate(-451.317 -275.747)" fill="#581db4"/>
                <path id="Path_24325" data-name="Path 24325" d="M585.747,212.115l-.267,1.69,7.29,1.512,1.69-5.779-7.647-1.957-.444,1.6,6.312,1.422-.977,3.112Z" transform="translate(-497.196 -189.76)" fill="#581db4"/>
                <path id="Path_24326" data-name="Path 24326" d="M221.3,150.657l-2.1-1.512.711,5.1L211.34,140.7l-2.31.265,14.49,21.428Z" transform="translate(-198.803 -136.748)" fill="#581db4"/>
                <path id="Path_24327" data-name="Path 24327" d="M348.712,155.3l.363.885h-.006l.11.253.068.162h0l.709,1.6,1.6-.89-.711-1.777-.249.091,2.345-1.692,1.58,2.134,1.6-.829-1.845-2.266,1.429-1.031,3.2,1.578,1.926-1.126-7.38-3.5.025.05L340.414,141.9l1.661-6.994-1.779-.357-1.066,8.062,14.342,8.3Z" transform="translate(-302.006 -131.873)" fill="#581db4"/>
                <path id="Path_24328" data-name="Path 24328" d="M382.082,153.37l-13.725-5.532,1.329-3.376-1.439-.332-1.217,4.427,15.218,6.53Z" transform="translate(-324.042 -139.467)" fill="#581db4"/>
                <path id="Path_24329" data-name="Path 24329" d="M428.137,145.19l-1.217.334-.11,5.532,2.212.72Z" transform="translate(-371.426 -140.307)" fill="#581db4"/>
                <path id="Path_24330" data-name="Path 24330" d="M562.975,132.55l-2.756,1.69-.89,8.535,1.955-.357Z" transform="translate(-476.468 -130.288)" fill="#581db4"/>
                <path id="Path_24331" data-name="Path 24331" d="M535.393,150.263l.178-8.624-2.4-.089.089,9.159Z" transform="translate(-455.732 -137.422)" fill="#581db4"/>
                <path id="Path_24332" data-name="Path 24332" d="M222.75,236.491l12.269-10.936-12-15.825Zm9.157-11.379-4.356,4-.444-10.49Zm-7.38-10.579,1.866,2.4L226.126,230l-1.866,2.4.267-17.87Z" transform="translate(-209.679 -191.464)" fill="#581db4"/>
                <path id="Path_24333" data-name="Path 24333" d="M167.757,140.5l6.668,7.38.089,4.535-6.092-7.179,7.691,31.094V147.615l-10.4-13.335,1.8,7.286.243-1.062Zm3.467,10.49,2.845,3.467.444,10.314Z" transform="translate(-164.466 -131.659)" fill="#581db4"/>
                <path id="Path_24334" data-name="Path 24334" d="M163.365,221.722l-3.645,12.8,10.314,11.2-6.668-24.005Zm.444,8.445,3.378,10.135-4.089-4.711.711-5.422Z" transform="translate(-159.718 -200.968)" fill="#581db4"/>
                <path id="Path_24335" data-name="Path 24335" d="M174.187,362.289l4.624-9.128-6.521-3.081,1.068,2.37,3.2,1.3-3.795,7.587Z" transform="translate(-169.681 -302.713)" fill="#581db4"/>
                <path id="Path_24336" data-name="Path 24336" d="M273.28,480.71l6.952,10.281,2.662-6.14Z" transform="translate(-249.731 -406.256)" fill="#581db4"/>
                <path id="Path_24337" data-name="Path 24337" d="M285.734,418.11l-1.244,2.49,2.134.711,1.066-2.134Z" transform="translate(-258.617 -356.636)" fill="#581db4"/>
                <path id="Path_24338" data-name="Path 24338" d="M307.389,428.4l-.89,1.955,2.252,1.037.711-1.659Z" transform="translate(-276.063 -364.793)" fill="#581db4"/>
                <path id="Path_24339" data-name="Path 24339" d="M330.132,439.98l-.622,1.688,17.248,8.358-2.134,6.133-5.068-1.644,2.044-4.356-1.69-.668-2.667,6.136,8.445,2.312,3.2-8.358Z" transform="translate(-294.302 -373.972)" fill="#581db4"/>
                <path id="Path_24340" data-name="Path 24340" d="M193.3,450.78l-3.556-2.37-2.014,3.79,4.5,1.779Z" transform="translate(-181.92 -380.654)" fill="#581db4"/>
                <path id="Path_24341" data-name="Path 24341" d="M175.217,477.56l-1.777,4.388,4.385,2.37,2.134-5.1Z" transform="translate(-170.593 -403.759)" fill="#581db4"/>
                <path id="Path_24342" data-name="Path 24342" d="M160.29,307.77l1.779,4.031,6.4,4.979,3.674,1.541-6.283,14.224,9.482,4.979-5.99,16.812H170.9l6.337-16.93L168,332.426l5.69-13.513,42.082,23.827.593-1.659-45.874-24.774s-9.839-8.18-10.2-8.535Z" transform="translate(-160.17 -269.176)" fill="#581db4"/>
                <path id="Path_24343" data-name="Path 24343" d="M222.947,470.7l5.225-14.529,16.625,6.758-3.212,7.774h1.553l3.971-8.4-19.47-7.734s-4.392,11.894-5.9,16.13h1.209Z" transform="translate(-208.878 -385.536)" fill="#581db4"/>
                <path id="Path_24344" data-name="Path 24344" d="M239.868,481.94l-3.778,10.453h6.061Z" transform="translate(-220.252 -407.231)" fill="#581db4"/>
                <path id="Path_24345" data-name="Path 24345" d="M271.489,499.685l-5.509-8.545,2.227,8.545Z" transform="translate(-243.945 -414.524)" fill="#581db4"/>
                <path id="Path_24346" data-name="Path 24346" d="M222.31,378.455l-10.683-6.125L207.36,382.4l7.587,4.149,2.488-6.4-5.453-2.727-.711,1.184,4.388,2.016-1.543,3.2-4.74-2.37,2.488-6.521,8.647,3.983-3.826,8.414,21.871,8.713-4.589,9.464h1.978L241.4,395.33l-23.116-8.891,4.05-7.991Z" transform="translate(-197.48 -320.349)" fill="#581db4"/>
                <path id="Path_24347" data-name="Path 24347" d="M642.51,432.238l4.093,11.6h1.7l-.753-2.312,7.056-1.995,1.956-2.312-9.615,2.445-.846-2.6,12.594-3.575,3.023-3.021-16.144,4.981-.925-2.847,26.139-8.891-13.047,20.132h2.028l15.108-23.155Z" transform="translate(-542.401 -358.674)" fill="#581db4"/>
                <path id="Path_24348" data-name="Path 24348" d="M773.163,427.564,750.4,417.25l-15.29,23.866h2.071l13.934-21.733,20.982,9.781Z" transform="translate(-615.8 -355.955)" fill="#581db4"/>
                <path id="Path_24349" data-name="Path 24349" d="M783.445,442.98l-3.2,5.868,11.825,4.178-2.577,4.889-10.668-4.624L775,459.96l5.611,1.549h4.126l-7.514-2.528,2.312-4.089,9.246,4.356-1.329,2.26h2.665l6.9-12.306-13.573-6.223ZM782.2,447.6l1.6-3.023,10.314,4.624-1.333,2.134Z" transform="translate(-647.419 -376.35)" fill="#581db4"/>
              </g>
            </g>
          </g>
        </g>
        <g id="LIGHTINING" transform="translate(34.533)">
          <g id="Group_10965" data-name="Group 10965">
            <path id="Path_24350" data-name="Path 24350" d="M302.612,228.9a3.143,3.143,0,0,1-3.058-3.853l17.573-75.586H275.9a3.141,3.141,0,0,1-2.712-4.726l78.028-133.5a3.14,3.14,0,0,1,5.766,2.312L339.011,89.023h41.2a3.14,3.14,0,0,1,2.716,4.717L314.888,210.873l-9.561,16.459a3.139,3.139,0,0,1-2.716,1.563Z" transform="translate(-272.76 -9.68)" fill="#4219a1"/>
            <path id="Path_24351" data-name="Path 24351" d="M336.745,95.7l18.893-79.34L277.61,149.86h45.18L304.323,229.3l77.6-133.6Z" transform="translate(-276.604 -14.975)" fill="#f8e74d"/>
            <path id="Path_24352" data-name="Path 24352" d="M333.175,182.982a1.359,1.359,0,0,0-1.325-1.667H289.04L361.254,57.76,344.48,128.2a1.358,1.358,0,0,0,1.323,1.675h42.816l-71.86,123.71,16.414-70.607Z" transform="translate(-285.664 -47.791)" fill="#e9ad00"/>
          </g>
        </g>
        <g id="Facilino_Logo_1_" data-name="Facilino_Logo (1)" transform="translate(-108.019 -12.581)" style="isolation: isolate">
          <g id="LEttering" transform="translate(105.68 79.749)">
            <g id="Group_53106" data-name="Group 53106">
              <g transform="matrix(1, 0, 0, 1, -4.12, -67.61)" filter="url(#Path_7673)">
                <path id="Path_7673-2" data-name="Path 7673" d="M212.491,386.1s1.843-2.264,3.743-2.311a41.317,41.317,0,0,0,5.263-.662c.736-.126,2.484,1.1,3.162,1.292s4.012.192,5.052.758a20.276,20.276,0,0,1,2.332,1.59s3.565-5.159,8.594-6.763,5.24-1.611,6.2-1.317a7.155,7.155,0,0,1,3.45,2.764c.666,1.249,1.234-1.3,3.954-2.318s17.719-4.988,19.088-5.129,2.7-1.864,3.65-1.781a28.443,28.443,0,0,1,6.678.992,15.439,15.439,0,0,1,3.5,1.8s2.575-2.6,5.161-3.188,20.877-4.693,20.877-4.693a5.61,5.61,0,0,1,2.9-1.183,16.6,16.6,0,0,1,5.616-.143c1.358.283,4.98-2.554,7.491-3.463s6.15-.79,7.2-.183,1.475,4.925,1.475,4.925l-12.948,20.895L301.368,405.5,268.3,413.2l-28.837,7.91-11.209-.666-11.639-.973L203.344,408.3l-7.63-1.075-.245-9.69,3.639-6.446,3.275-4.1,10.115-.89Z" transform="translate(-172.25 -289.23)" fill="#4219a1"/>
              </g>
              <g id="Group_53105" data-name="Group 53105">
                <g id="Group_53104" data-name="Group 53104" transform="translate(4.782 4.919)">
                  <g id="Group_53101" data-name="Group 53101">
                    <g transform="matrix(1, 0, 0, 1, -8.9, -72.53)" filter="url(#Path_7674)">
                      <path id="Path_7674-2" data-name="Path 7674" d="M136.858,499.091a9.394,9.394,0,0,1-4.531-1.737c-2.841-1.771-3.467-3.139-3.692-4.014a8.271,8.271,0,0,1-.16-2.835c0-.028.006-.055.008-.083.424-3.59,1.481-10.049,2.245-14.565a8.794,8.794,0,0,1-2.433-4.408,3.987,3.987,0,0,1,.489-3.265,3.778,3.778,0,0,1,2.652-1.63c.258-.036.564-.066.917-.094.917-5.229,2.12-12.371,2.028-14.184-.026-.055-.051-.115-.072-.162a7.778,7.778,0,0,1-.5-1.343c-.413-1.692.179-4,3.2-4.942,1.943-.626,8.977-1.9,16.636-3.265,1.93-.343,3.456-.615,4.063-.734l.074-.013a7.863,7.863,0,0,1,1.313-.119,4.078,4.078,0,0,1,4.29,3.124,4.93,4.93,0,0,1-1.524,4.363,4.748,4.748,0,0,1,.464,1.236,3.625,3.625,0,0,1-2.581,4.284,3.21,3.21,0,0,1-.368.094,57.953,57.953,0,0,0-9.453,2.418c-.543,1.464-1.556,4.505-2.343,7.221.049-.013.1-.023.147-.034,1.085-.258,2.022-.479,3.1-.677A12.381,12.381,0,0,1,153,463.48a3.464,3.464,0,0,1,3.609,2.645c.4,1.818-.613,3.06-2.018,4.2-.015,3.6-4.882,5.746-8.685,7.083a9.053,9.053,0,0,0-1.766.809,150.247,150.247,0,0,0-3.235,16.53c-.221,3.418-2.594,4.139-3.358,4.282a3.636,3.636,0,0,1-.685.064Z" transform="translate(-119.25 -352.22)" fill="#4219a1"/>
                    </g>
                    <g transform="matrix(1, 0, 0, 1, -8.9, -72.53)" filter="url(#Path_7675)">
                      <path id="Path_7675-2" data-name="Path 7675" d="M224.634,519.221c-3.109,0-6.346-3.214-6.951-5.874a4.911,4.911,0,0,1,.275-2.767.087.087,0,0,1,.013-.036c4.235-11.32,8.511-20.78,14.463-33.293,1.139-2.367,2.209-4.591,4.744-5.076a4.711,4.711,0,0,1,.907-.085,7.847,7.847,0,0,1,3.505,1c.081,0,.211.009.411.009h.909a8.516,8.516,0,0,1,3.437.577,5.384,5.384,0,0,1,3.167,4.009.239.239,0,0,0,.009.045,3.874,3.874,0,0,1-.579,2.89c-1.615,2.522-4.7,18.494-4.214,29.718a4.164,4.164,0,0,1-3.269,4.7,6.458,6.458,0,0,1-1.5.174,5.13,5.13,0,0,1-5.327-3.948c-.015-.074-.028-.149-.036-.223-.079-.63-.206-2.126-.349-3.916-.973.362-1.962.738-2.5.968a43.114,43.114,0,0,0-2.422,6.033c-.3.864-.56,1.611-.785,2.2-.026.066-.053.13-.083.194l-.026.064a3.859,3.859,0,0,1-2.843,2.554,4.433,4.433,0,0,1-.96.1Z" transform="translate(-189.66 -376.14)" fill="#4219a1"/>
                    </g>
                    <g transform="matrix(1, 0, 0, 1, -8.9, -72.53)" filter="url(#Path_7676)">
                      <path id="Path_7676-2" data-name="Path 7676" d="M348.6,494.926c-1.845,0-6.257-.679-7.425-6.959-1.009-5.118.455-11.635,1.862-16.2a62.492,62.492,0,0,1,7.246-15.746c2.739-4.082,5.354-6.321,7.993-6.846a7.5,7.5,0,0,1,1.517-.16c3.75,0,5.77,3.016,6.689,4.48.1.109.311.287.47.423a6.57,6.57,0,0,1,2.575,4.144c.419,2.879-1.151,5.676-2.971,8.913A27.548,27.548,0,0,0,363.4,474a4,4,0,0,1-3,3.277,3.825,3.825,0,0,1-.89.1c-1.762,0-3.4-1.247-4.61-2.773a38.829,38.829,0,0,0-2.564,8.753,21.024,21.024,0,0,0,3.6-1.888,5.4,5.4,0,0,1,1.956-.951,4.211,4.211,0,0,1,1.024-.123,4.365,4.365,0,0,1,4.358,3.565,4.188,4.188,0,0,1-1.27,3.591c-.038.038-.077.074-.115.111-3.182,2.892-6.944,5.976-10.735,6.934a10.524,10.524,0,0,1-2.55.338Z" transform="translate(-286.68 -357.97)" fill="#4219a1"/>
                    </g>
                    <g transform="matrix(1, 0, 0, 1, -8.9, -72.53)" filter="url(#Path_7677)">
                      <path id="Path_7677-2" data-name="Path 7677" d="M427.574,472.891a3.885,3.885,0,0,1-3.841-3.607,4.1,4.1,0,0,1,1.426-3.852l.047-.038a12.419,12.419,0,0,1,2.041-1.249c.2-.1.481-.253.643-.349a9.425,9.425,0,0,0,.841-1.745c2.624-7.525,6.085-18.055,7.476-23.189a3.615,3.615,0,0,1-2.42-2.945c-.324-2.262,1.373-5.1,4.771-5.912,3.167-.745,7.787-2.018,10.547-2.777,1.862-.513,2.275-.626,2.533-.679a4.574,4.574,0,0,1,.917-.1,3.535,3.535,0,0,1,3.595,3.118,5.237,5.237,0,0,1-1.4,3.814,6,6,0,0,1-3.18,2.115,2.229,2.229,0,0,0-.515.179c-1.99,2.89-7.072,16.762-9.507,24.463a3.528,3.528,0,0,1,2.818,3.033,6.359,6.359,0,0,1-4.186,6.125c-2.769.711-6.527,1.9-9.015,2.682-1.46.462-2.179.687-2.56.783a4.132,4.132,0,0,1-1.034.134Z" transform="translate(-351.89 -340.21)" fill="#4219a1"/>
                    </g>
                    <g transform="matrix(1, 0, 0, 1, -8.9, -72.53)" filter="url(#Path_7678)">
                      <path id="Path_7678-2" data-name="Path 7678" d="M518.553,461.343A5.383,5.383,0,0,1,514.339,459a8.683,8.683,0,0,1-1.688-4.169,8.046,8.046,0,0,1,.3-3.4c.006-.017.011-.036.017-.053,1.566-4.8,4.135-11.869,6.4-18.1,1.683-4.631,3.588-9.873,3.833-10.841.4-2.264,2.309-4.012,5.016-4.571a7.258,7.258,0,0,1,1.464-.138c2.973,0,7.825,1.449,8.187,5.338a4.887,4.887,0,0,1-.928,3.226,195.626,195.626,0,0,0-9.9,19.6c.236-.051.417-.089.479-.1a3.9,3.9,0,0,1,.915-.109c3.744,0,5.376,4.965,5.5,6.372a3.575,3.575,0,0,1-2.694,3.914c-2.086.507-8.13,2.684-10.4,4.6a3.178,3.178,0,0,1-1.254.647,4.181,4.181,0,0,1-1.043.132Z" transform="translate(-421.88 -333.35)" fill="#4219a1"/>
                    </g>
                    <g transform="matrix(1, 0, 0, 1, -8.9, -72.53)" filter="url(#Path_7679)">
                      <path id="Path_7679-2" data-name="Path 7679" d="M592.873,436.553a3.819,3.819,0,0,1-3.8-3.769,4.138,4.138,0,0,1,1.607-3.712c.015-.013.032-.023.047-.036a13.529,13.529,0,0,1,2.083-1.192c.232-.115.566-.281.728-.372a9.249,9.249,0,0,0,1-1.76c4.131-9.732,7.425-17.964,8.924-22.235a3.584,3.584,0,0,1-2.16-3.031c-.2-2.5,2.007-4.98,5.023-5.635,2.89-.619,6.9-1.579,9.828-2.279,2.6-.621,3.222-.768,3.548-.824a4.615,4.615,0,0,1,.773-.068,3.523,3.523,0,0,1,3.618,3.326c.123,2.484-2.62,5.206-4.867,5.614a2.6,2.6,0,0,0-.615.194c-2.152,2.662-8.081,15.857-11.056,23.361a3.5,3.5,0,0,1,2.533,3.154c.147,2.3-2.137,5.3-4.444,5.84-2.977.69-7.123,1.928-9.6,2.669-1.215.364-1.813.541-2.143.624a4.293,4.293,0,0,1-1.028.13Z" transform="translate(-482.07 -312.81)" fill="#4219a1"/>
                    </g>
                    <g transform="matrix(1, 0, 0, 1, -8.9, -72.53)" filter="url(#Path_7680)">
                      <path id="Path_7680-2" data-name="Path 7680" d="M681.459,410.278c-2.258,0-6.563-1.449-6.78-4.944a3.19,3.19,0,0,1,.179-1.264c1.264-3.524,5.625-13.31,9.13-21.173,2.011-4.51,4.282-9.609,4.627-10.556.577-2.128,2.554-3.7,5.212-4.141a7.065,7.065,0,0,1,1.141-.087,11.884,11.884,0,0,1,4.495.96,8.316,8.316,0,0,1,1.6.9c.381-.873.738-1.662,1.066-2.347a6.178,6.178,0,0,1,5.269-3.8,6.82,6.82,0,0,1,.941-.062,11.848,11.848,0,0,1,4.578,1.015c3.26,1.454,3.754,3.648,3.758,4.825a4.821,4.821,0,0,1-1.264,3.156A111.281,111.281,0,0,0,698.87,402.3a5.225,5.225,0,0,1-3.863,3.643,4.748,4.748,0,0,1-.924.089,8.453,8.453,0,0,1-4.827-2.054,4.491,4.491,0,0,1-1.319-1.4c-.781,1.69-1.571,3.382-2.29,4.808a4.443,4.443,0,0,1-3.141,2.779,4.868,4.868,0,0,1-1.047.109Z" transform="translate(-549.47 -290.86)" fill="#4219a1"/>
                    </g>
                    <g transform="matrix(1, 0, 0, 1, -8.9, -72.53)" filter="url(#Path_7681)">
                      <path id="Path_7681-2" data-name="Path 7681" d="M821.81,402.561a7.028,7.028,0,0,1-2.063-.309c-5.164-.634-8.263-4.188-8.314-9.577-.1-5.274,3.522-13.042,6.657-18.1,2.754-4.439,8.249-11.963,14.127-12.5.281-.028.568-.043.851-.043a8.054,8.054,0,0,1,6.244,2.848,9.289,9.289,0,0,1,3.06,1.143,5.9,5.9,0,0,1,2.72,5.548.567.567,0,0,1,0,.062,23.938,23.938,0,0,1-2.3,7.44,78.867,78.867,0,0,1-5.014,9.411c-6.585,10.579-11.639,13.433-14.719,13.963l-.047.008a7.666,7.666,0,0,1-1.19.1Zm8.717-24.063a43.671,43.671,0,0,0-2.892,4.163,45.381,45.381,0,0,0-3.654,7.138,46.508,46.508,0,0,0,3.812-5.874c1.1-1.973,2.022-3.829,2.737-5.427Z" transform="translate(-657.12 -289.51)" fill="#4219a1"/>
                    </g>
                  </g>
                  <g id="Group_53102" data-name="Group 53102" transform="translate(3.69 1.476)">
                    <path id="Path_7682" data-name="Path 7682" d="M155.627,480.086c-.66,1.062-3.522,15-3.714,18.217-.055.862-.326,1.277-.785,1.36-.86.166-4.952-2.181-5.257-3.363a5.33,5.33,0,0,1-.072-1.76c.389-3.3,1.411-9.687,2.554-16.351a5.235,5.235,0,0,1-2.816-3.769c-.164-.645.1-.924.524-.985.585-.085,1.788-.138,3.15-.223,1.5-8.462,2.843-16.283,2.433-17.968-.085-.349-.489-1.073-.59-1.481-.115-.466.021-.845,1.085-1.173,2.509-.821,17.934-3.433,20.354-3.912,1.285-.221,1.873.085,1.969.538.119.566-.494,1.5-1.6,2.281a1.151,1.151,0,0,0-.479,1.264c.16.739.894,1.492,1.015,2.058.06.283-.015.475-.445.611-1.828.347-10.1,2-11.413,3.392a95.749,95.749,0,0,0-3.848,12.486.954.954,0,0,0,1.181.76c3.292-.687,4.759-1.134,6.693-1.488,1.343-.247,2.069-.264,2.118-.034.064.285-.643.894-2.177,2.013-.577.166-.711.311-.685.426.051.23.638.36.741.817.281,1.256-2.358,2.9-6.538,4.365-2.7.958-3.4,1.917-3.4,1.92Z" transform="translate(-145.488 -431.658)" fill="#f8e74d"/>
                    <path id="Path_7683" data-name="Path 7683" d="M249.486,482.374c.994-2.062,1.556-3.15,2.484-3.328a4.461,4.461,0,0,1,2.624.749c1.468.736,5.386-.836,6.014,2.269a.727.727,0,0,1-.119.579c-2.226,3.439-5.21,20.511-4.722,31.6.038.645.066,1.247-.843,1.464-1.117.268-2.737-.055-2.988-1.313-.149-1.187-.536-6.406-.6-7.142-.072-.36-.285-.547-1.168-.351-.255.06-5.276,1.86-6.05,2.3-1.494.834-3.4,7.321-4.331,9.719-.177.372-.221.764-.673.862-1.432.315-3.818-1.913-4.152-3.382a1.877,1.877,0,0,1,.166-.992c4.3-11.492,8.594-20.926,14.357-33.044Zm1.777,20.111q.169-4.118.353-8.228c-.064-.315-.1-.494-.228-.468-.453.085-4.9,8.387-4.752,8.979.047.226.253.37.738.362a32.671,32.671,0,0,0,3.888-.647Z" transform="translate(-215.909 -455.599)" fill="#f8e74d"/>
                    <path id="Path_7684" data-name="Path 7684" d="M373.864,477.948c-1.153.277-3.416-2.658-3.677-4.2-.094-2.677,3.026-7.385,3.014-7.787-.021-.132-.079-.211-.211-.181-2.635.532-10.747,17.928-9.607,23.936.187,1.062,1.345,1.194,2.769.841a21,21,0,0,0,5.84-2.773,2.264,2.264,0,0,1,.849-.438,1.262,1.262,0,0,1,1.494.858,1.058,1.058,0,0,1-.387.87c-2.071,1.881-5.938,5.337-9.379,6.206-3.692.93-5.495-.9-6.093-4.15-2.077-10.471,8.11-33.825,14.623-35.1,2.322-.487,3.654.907,4.995,3.056.811,1.09,2.258,1.583,2.5,3.2.5,3.439-4.854,9.03-6.1,14.833-.1.521-.326.758-.626.83Z" transform="translate(-312.931 -437.427)" fill="#f8e74d"/>
                    <path id="Path_7685" data-name="Path 7685" d="M466.451,433.411c.451-.1.7.03.726.285a3.5,3.5,0,0,1-2.1,2.471,3.845,3.845,0,0,0-2.364,1.347c-2.773,3.854-9.662,23.7-11.06,28.986a2.062,2.062,0,0,0-.192.853c.06.434.711.4,1.347.24.549-.14,1.681-.515,1.852-.558.466-.117.7,0,.738.3a3.463,3.463,0,0,1-1.837,2.654c-4.22,1.081-10.609,3.218-11.569,3.463-.67.172-.877-.321-.964-.89a.975.975,0,0,1,.334-.947c.739-.6,2.262-1.207,2.765-1.651a7.8,7.8,0,0,0,1.741-3.056c1.111-3.186,8.523-24.753,8.279-27.139-.064-.477-.981-.455-2.4-.145-.4.087-.609-.092-.653-.394-.1-.7.683-1.983,2.379-2.39,4.68-1.1,12.437-3.322,12.982-3.433Z" transform="translate(-378.116 -419.673)" fill="#f8e74d"/>
                    <path id="Path_7686" data-name="Path 7686" d="M529.979,458.213a4.945,4.945,0,0,1,.185-2.083c3.022-9.264,10.047-27.7,10.334-29.337.187-1.222,1.551-1.854,2.545-2.06,1.675-.347,5.691.568,5.859,2.392a1.868,1.868,0,0,1-.434,1.215c-3.522,5.74-12.09,23-11.79,25.125.038.343.389.343.9.217.9-.221,4.433-.949,4.863-1.051,1.249-.3,2.456,2.667,2.53,3.473.028.3-.04.487-.3.551-1.837.447-8.681,2.718-11.688,5.257-1.139.294-2.745-1.507-3.013-3.7Z" transform="translate(-448.123 -412.809)" fill="#f8e74d"/>
                    <path id="Path_7687" data-name="Path 7687" d="M634.4,398.611c.458-.081.694.047.707.3.032.666-1.362,2.173-2.271,2.339a4.087,4.087,0,0,0-2.456,1.249c-3.033,3.663-11.228,22.8-12.969,27.924a1.993,1.993,0,0,0-.247.826c.03.421.685.4,1.33.247.56-.13,1.715-.481,1.888-.519.475-.109.7.011.719.3a3.62,3.62,0,0,1-2.009,2.55c-4.288.994-10.815,3.06-11.79,3.305-.681.168-.856-.309-.907-.86a.988.988,0,0,1,.4-.919c.777-.579,2.341-1.175,2.873-1.6a8.229,8.229,0,0,0,1.939-2.962c1.315-3.1,10.143-23.944,10.058-26.251-.034-.462-.951-.455-2.4-.17-.406.081-.6-.094-.628-.389-.053-.675.815-1.917,2.539-2.292C625.936,400.664,633.849,398.7,634.4,398.611Z" transform="translate(-508.305 -392.285)" fill="#f8e74d"/>
                    <path id="Path_7688" data-name="Path 7688" d="M705.077,395.19a.3.3,0,0,0-.362-.14c-1.341.247-5.067,9.528-7.747,14.8-.27.69-.6.932-.949,1.009-1.028.228-3.905-.728-3.98-1.941,2.094-5.838,13.271-30.1,13.814-31.9.268-1.177,1.677-1.747,2.686-1.913,1.7-.281,5.661.758,5.708,2.537.013.455-.392.768-.517,1.162-3.167,10.109-3.482,10.645-4.654,18.92,3.071-7.493,7.664-19.92,10.2-25.149.3-1.16,1.726-1.692,2.745-1.832,1.717-.241,5.676.892,5.682,2.654a1.8,1.8,0,0,1-.547,1.136,114.848,114.848,0,0,0-17.049,30.418c-.409,1.075-.919,1.547-1.526,1.669-.951.189-2.107-.575-3.318-1.454a2.288,2.288,0,0,1-.77-1.928,74.043,74.043,0,0,1,.577-8.047Z" transform="translate(-575.724 -370.341)" fill="#f8e74d"/>
                    <path id="Path_7689" data-name="Path 7689" d="M846.711,369.006a4.851,4.851,0,0,1,4.91,2.52c2.577.449,4.6.853,4.5,3.716-.279,5.142-11.507,26.5-19.415,27.869a3.991,3.991,0,0,1-2.086-.2c-4.127-.385-5.8-2.9-5.827-6.512-.16-7.793,10.675-26.76,17.919-27.4Zm3.028,8.236c.015-.566-.183-2-1.288-1.89-5.054.445-14.423,16.525-14.37,21.665,0,1.59.558,2.72,1.7,2.543C840.909,398.69,849.588,380.926,849.739,377.242Z" transform="translate(-683.372 -368.977)" fill="#f8e74d"/>
                  </g>
                  <g id="Group_53103" data-name="Group 53103" transform="translate(5.452 2.994)">
                    <path id="Path_7690" data-name="Path 7690" d="M156.873,504.9Zm.072-.617a10.824,10.824,0,0,1-3.1-2.09,4.316,4.316,0,0,1-.013-1.136c.351-2.96,1.277-8.881,2.539-16.253a1.514,1.514,0,0,0-.8-1.6,3.448,3.448,0,0,1-1.794-2c.323-.021.687-.043,1.06-.064l1-.06a1.515,1.515,0,0,0,1.4-1.247c2.02-11.413,2.848-16.806,2.411-18.59a5.406,5.406,0,0,0-.345-.9c2.092-.613,11.013-2.2,15.868-3.065,1.33-.236,2.469-.438,3.267-.585a2.653,2.653,0,0,0-1,2.75,4.144,4.144,0,0,0,.445,1.122c-4.5.9-9.592,2.19-10.909,3.58a1.509,1.509,0,0,0-.266.387,96.055,96.055,0,0,0-3.969,12.854,1.516,1.516,0,0,0,.013.634,2.435,2.435,0,0,0,2.424,1.947,2.937,2.937,0,0,0,.487-.043.475.475,0,0,0,.053-.011c1.611-.336,2.771-.611,3.792-.853l.358-.085a1.709,1.709,0,0,0,.466,1.532,16.937,16.937,0,0,1-5.278,2.59c-2.5.887-3.792,1.909-4.2,2.586l.019-.036c-.019.03-.036.064-.057.1a.985.985,0,0,0-.047.1l.006-.015c-1.007,2.192-3.514,15.082-3.82,18.451ZM153.808,502.144Z" transform="translate(-153.77 -439.541)" fill="#f8e74d"/>
                    <path id="Path_7691" data-name="Path 7691" d="M244.085,523.792a4.785,4.785,0,0,1-1.975-2.007,2.313,2.313,0,0,1,.081-.258c4.171-11.145,8.4-20.507,14.3-32.906a11.251,11.251,0,0,1,1.422-2.492h0a4.234,4.234,0,0,1,1.617.607,5.081,5.081,0,0,0,2.3.4h.913c1.479,0,1.82.223,1.947.562-2.443,4.344-5.278,21.224-4.8,32.189h-.09a1.258,1.258,0,0,1-.734-.181c-.123-1.077-.394-4.608-.513-6.146-.03-.394-.053-.687-.064-.826a1.563,1.563,0,0,0-.023-.175A1.989,1.989,0,0,0,256.4,510.9a4.281,4.281,0,0,0-.915.115c-.366.085-5.523,1.922-6.478,2.471-1.411.787-2.456,3.243-4.261,8.449-.251.726-.472,1.362-.655,1.852ZM250.8,508.71a2.038,2.038,0,0,0,2.173,1.534h.106a32.5,32.5,0,0,0,4.146-.681,1.512,1.512,0,0,0,1.188-1.417c.111-2.711.23-5.476.353-8.221a1.509,1.509,0,0,0-.028-.366c-.279-1.394-1.073-1.686-1.688-1.686a1.558,1.558,0,0,0-.315.032,2.488,2.488,0,0,0-1.511,1.337c-.645,1-1.737,2.945-2.716,4.848-1.9,3.7-1.834,4.107-1.709,4.622Z" transform="translate(-223.31 -462.716)" fill="#f8e74d"/>
                    <path id="Path_7692" data-name="Path 7692" d="M368.381,499.618c-.677,0-2.241-.013-2.82-3.152-.649-3.269-.03-8.217,1.737-13.957A58.361,58.361,0,0,1,373.959,468c1.879-2.8,3.758-4.618,5.027-4.865h.021a2.869,2.869,0,0,1,.577-.066c.8,0,1.554.409,2.822,2.441q.032.051.07.1a7.666,7.666,0,0,0,1.226,1.237c.666.57.924.828.992,1.281.187,1.283-1.139,3.646-2.422,5.927a34.555,34.555,0,0,0-3.458,7.532A6.615,6.615,0,0,1,377.3,479.2c.017-1.547,1.522-4.348,2.254-5.708.6-1.111.777-1.447.762-1.964a1.2,1.2,0,0,0-.019-.194,1.675,1.675,0,0,0-1.654-1.46,1.745,1.745,0,0,0-.362.038c-.794.164-1.86.749-3.75,3.8a55.062,55.062,0,0,0-3.55,7c-1.315,3.069-4.288,10.662-3.484,14.9a2.818,2.818,0,0,0,3,2.247,6.837,6.837,0,0,0,1.615-.219,16,16,0,0,0,2.8-1.019,15.808,15.808,0,0,1-5.116,2.8,5.829,5.829,0,0,1-1.407.2h-.009Z" transform="translate(-320.29 -444.555)" fill="#f8e74d"/>
                    <path id="Path_7693" data-name="Path 7693" d="M461.9,481.433a10.955,10.955,0,0,0,1.826-3.333c.006-.017.013-.034.019-.053.023-.068,2.388-6.853,4.659-13.9,3.884-12.056,3.758-13.293,3.7-13.888a.4.4,0,0,0-.006-.051,1.892,1.892,0,0,0-1.068-1.437c2.2-.534,4.88-1.251,7.183-1.877a3.1,3.1,0,0,0-.321.426c-2.99,4.244-9.832,24.093-11.237,29.36a3.1,3.1,0,0,0-.245,1.515,1.888,1.888,0,0,0,1.228,1.511c-1.907.541-3.978,1.179-5.733,1.728Z" transform="translate(-396.324 -431.827)" fill="#f8e74d"/>
                    <path id="Path_7694" data-name="Path 7694" d="M538.191,465.908a3.708,3.708,0,0,1-1.109-2.275,3.422,3.422,0,0,1,.128-1.443c1.543-4.731,4.1-11.748,6.344-17.941,2.754-7.576,3.89-10.745,4.037-11.592v-.03c.045-.3.666-.664,1.356-.807a2.678,2.678,0,0,1,.517-.04,5.786,5.786,0,0,1,3.5,1.079c-.028.049-.072.123-.147.234a.631.631,0,0,0-.04.062c-1.768,2.879-4.812,8.657-7.4,14.052-4.827,10.051-4.68,11.471-4.6,12.06a1.841,1.841,0,0,0,1.9,1.613,3.644,3.644,0,0,0,.862-.119c.532-.13,2.113-.464,3.267-.709l1.266-.268a5.145,5.145,0,0,1,.749,1.311c-2.622.787-7.706,2.65-10.634,4.814Z" transform="translate(-455.486 -419.932)" fill="#f8e74d"/>
                    <path id="Path_7695" data-name="Path 7695" d="M628.81,444.669a12.7,12.7,0,0,0,1.815-2.986c.008-.017.016-.035.023-.053.934-2.2,3.346-7.917,5.565-13.452,4.676-11.665,4.631-12.869,4.61-13.448a.4.4,0,0,0,0-.053,1.842,1.842,0,0,0-.883-1.432c2.158-.475,4.756-1.085,7.063-1.634a1.964,1.964,0,0,0-.179.223c-3.29,4.052-11.428,23.193-13.171,28.286a3.067,3.067,0,0,0-.345,1.494,1.82,1.82,0,0,0,1.015,1.511c-1.828.477-3.8,1.045-5.51,1.547Z" transform="translate(-527.713 -404.055)" fill="#f8e74d"/>
                    <path id="Path_7696" data-name="Path 7696" d="M701.713,414.987a4.663,4.663,0,0,1-1.813-.617c1.471-3.846,5.484-12.852,8.749-20.173,3.013-6.759,4.6-10.324,4.84-11.126.011-.034.019-.068.028-.1.057-.255.67-.628,1.454-.755a2.3,2.3,0,0,1,.385-.026,6.245,6.245,0,0,1,3.465,1.062,3.012,3.012,0,0,0-.345.709c-.3.947-.566,1.8-.815,2.592-2.441,7.755-2.816,8.947-3.9,16.574a1.514,1.514,0,0,0,2.9.787c1.075-2.622,2.313-5.789,3.624-9.141,2.415-6.178,4.912-12.567,6.542-15.921a1.524,1.524,0,0,0,.1-.285c.064-.247.711-.6,1.483-.709a2.269,2.269,0,0,1,.307-.017,6.3,6.3,0,0,1,3.6,1.175c-.03.04-.07.089-.126.153l-.032.038a115.936,115.936,0,0,0-17.277,30.818,1.659,1.659,0,0,1-.415.728,6.757,6.757,0,0,1-2.124-1.2.186.186,0,0,0-.026-.017,1.885,1.885,0,0,1-.121-.743,71.167,71.167,0,0,1,.568-7.821,1.516,1.516,0,0,0-.155-.853,1.76,1.76,0,0,0-1.6-.981,2.079,2.079,0,0,0-.4.04c-1.517.279-2.586,2.267-6.14,9.975-.911,1.975-1.852,4.016-2.671,5.627a1.28,1.28,0,0,0-.06.134c-.011.028-.021.054-.032.077Z" transform="translate(-583.674 -377.472)" fill="#f8e74d"/>
                    <path id="Path_7697" data-name="Path 7697" d="M841.6,407.269a2.451,2.451,0,0,1-.866-.162,1.442,1.442,0,0,0-.379-.085c-3.054-.285-4.427-1.832-4.452-5.016-.07-3.409,2.379-9.8,5.955-15.572,3.735-6.023,7.889-10.066,10.581-10.3h.021c.132-.013.266-.021.4-.021a3.3,3.3,0,0,1,3.005,1.711,1.517,1.517,0,0,0,1.094.815c3.005.524,3.29.853,3.248,2.154-.126,2.128-2.809,8.5-6.621,14.619-4.288,6.891-8.6,11.309-11.53,11.824a2.891,2.891,0,0,1-.455.036Zm12.3-27.809c-3.778.341-8.036,6.27-10.239,9.773-2.762,4.393-5.533,10.245-5.5,13.416a4.53,4.53,0,0,0,1.081,3.271,2.643,2.643,0,0,0,1.9.79h0a3.1,3.1,0,0,0,.462-.036c1.928-.328,5.2-2.473,9.932-10.856,2.5-4.422,5.208-10.445,5.308-12.9v-.026a3.923,3.923,0,0,0-.926-2.709,2.429,2.429,0,0,0-1.756-.738c-.081,0-.167.006-.26.015Z" transform="translate(-690.733 -376.11)" fill="#f8e74d"/>
                  </g>
                </g>
              </g>
            </g>
          </g>
          <g id="Light" transform="translate(114.152 86.371)">
            <g id="Group_53107" data-name="Group 53107" style="mix-blend-mode: multiply;isolation: isolate">
              <path id="Path_7698" data-name="Path 7698" d="M165.566,474.84c-.1-.458-.69-.587-.741-.817-.026-.115.109-.258.685-.426,1.534-1.119,2.241-1.728,2.177-2.013-.051-.228-.775-.211-2.118.034-1.935.351-3.4.8-6.693,1.488a.953.953,0,0,1-1.181-.76,96.072,96.072,0,0,1,3.848-12.486c1.317-1.392,9.587-3.045,11.413-3.392.43-.136.5-.326.445-.611-.121-.566-.856-1.319-1.015-2.058a1.153,1.153,0,0,1,.479-1.264c1.1-.783,1.715-1.715,1.6-2.281-.1-.453-.683-.762-1.969-.538-2.42.477-17.845,3.09-20.354,3.912-1.064.328-1.2.707-1.085,1.173.1.406.5,1.132.59,1.481.411,1.685-.934,9.507-2.433,17.966-1.362.085-2.564.138-3.15.223-.426.062-.687.341-.524.985a5.231,5.231,0,0,0,2.816,3.769c-1.143,6.665-2.164,13.05-2.554,16.351a5.331,5.331,0,0,0,.072,1.76c.3,1.183,4.4,3.529,5.257,3.363.458-.083.728-.5.785-1.36.189-3.216,3.054-17.157,3.714-18.217,0,0,.7-.962,3.4-1.92,4.18-1.466,6.819-3.107,6.538-4.363Z" transform="translate(-145.488 -432.699)" fill="url(#linear-gradient)"/>
              <path id="Path_7699" data-name="Path 7699" d="M254.587,480.845a4.461,4.461,0,0,0-2.624-.749c-.928.179-1.49,1.264-2.484,3.329-5.765,12.118-10.058,21.552-14.357,33.044a1.9,1.9,0,0,0-.166.992c.334,1.469,2.722,3.7,4.152,3.382.451-.1.494-.489.673-.862.93-2.4,2.837-8.885,4.331-9.719.775-.445,5.8-2.245,6.05-2.3.883-.2,1.1-.009,1.168.351.06.738.447,5.957.6,7.142.251,1.258,1.871,1.581,2.988,1.313.909-.217.881-.819.843-1.464-.485-11.092,2.5-28.164,4.722-31.6a.73.73,0,0,0,.119-.579c-.628-3.107-4.546-1.532-6.014-2.269Zm-7.955,22.976c-.145-.592,4.3-8.894,4.752-8.979.13-.028.166.153.228.468q-.185,4.112-.353,8.228a32.665,32.665,0,0,1-3.888.647c-.483.009-.69-.136-.738-.362Z" transform="translate(-215.902 -456.651)" fill="url(#linear-gradient)"/>
              <path id="Path_7700" data-name="Path 7700" d="M373.864,479.006c.3-.07.53-.309.626-.83,1.247-5.8,6.6-11.394,6.1-14.833-.24-1.613-1.688-2.107-2.5-3.2-1.341-2.149-2.673-3.543-4.995-3.056-6.514,1.271-16.7,24.627-14.623,35.1.6,3.245,2.4,5.078,6.093,4.15,3.441-.868,7.308-4.324,9.379-6.206a1.054,1.054,0,0,0,.387-.87,1.263,1.263,0,0,0-1.494-.858,2.233,2.233,0,0,0-.849.438,21.06,21.06,0,0,1-5.84,2.773c-1.426.351-2.581.219-2.769-.841-1.141-6.008,6.972-23.4,9.607-23.936.132-.03.189.049.211.181.013.4-3.107,5.108-3.013,7.787.26,1.543,2.522,4.478,3.677,4.2Z" transform="translate(-312.931 -438.487)" fill="url(#linear-gradient)"/>
              <path id="Path_7701" data-name="Path 7701" d="M454.688,468.086c-.17.043-1.3.419-1.852.558-.634.16-1.288.192-1.347-.24a1.983,1.983,0,0,1,.191-.853c1.4-5.286,8.287-25.132,11.06-28.986a3.86,3.86,0,0,1,2.364-1.347,3.5,3.5,0,0,0,2.1-2.471c-.03-.258-.275-.381-.726-.285-.545.111-8.3,2.332-12.982,3.433-1.7.409-2.477,1.7-2.379,2.39.043.3.251.481.653.394,1.426-.311,2.341-.332,2.4.145.243,2.386-7.168,23.953-8.279,27.139a7.752,7.752,0,0,1-1.741,3.056c-.5.445-2.028,1.056-2.764,1.651a.975.975,0,0,0-.334.947c.087.568.294,1.06.964.89.96-.245,7.349-2.381,11.569-3.463a3.469,3.469,0,0,0,1.837-2.654c-.038-.3-.272-.421-.738-.3Z" transform="translate(-378.147 -420.725)" fill="url(#linear-gradient)"/>
              <path id="Path_7702" data-name="Path 7702" d="M542.451,453.7c-.43.1-3.965.83-4.863,1.051-.515.126-.866.123-.9-.217-.3-2.128,8.266-19.386,11.79-25.123a1.868,1.868,0,0,0,.434-1.215c-.168-1.824-4.184-2.739-5.859-2.392-.994.206-2.358.839-2.545,2.06-.285,1.641-7.312,20.073-10.334,29.337a4.877,4.877,0,0,0-.185,2.083c.27,2.192,1.875,3.992,3.013,3.7,3-2.539,9.851-4.81,11.688-5.257.255-.064.326-.253.3-.551-.075-.8-1.281-3.771-2.53-3.473Z" transform="translate(-448.125 -413.877)" fill="url(#linear-gradient)"/>
              <path id="Path_7703" data-name="Path 7703" d="M620.4,432.027c-.172.038-1.33.389-1.888.519-.645.149-1.3.172-1.33-.247a1.985,1.985,0,0,1,.247-.826c1.741-5.125,9.934-24.261,12.969-27.924a4.087,4.087,0,0,1,2.456-1.249c.909-.164,2.3-1.673,2.271-2.339-.013-.251-.251-.377-.707-.3-.553.085-8.468,2.054-13.227,3.073-1.724.375-2.592,1.617-2.539,2.292.023.3.221.47.628.389,1.447-.285,2.364-.294,2.4.17.085,2.307-8.74,23.152-10.058,26.251a8.228,8.228,0,0,1-1.939,2.962c-.532.43-2.1,1.024-2.873,1.6a.989.989,0,0,0-.4.919c.051.551.226,1.028.907.86.975-.245,7.5-2.311,11.79-3.3a3.62,3.62,0,0,0,2.009-2.552c-.019-.294-.245-.411-.719-.3Z" transform="translate(-508.313 -393.34)" fill="url(#linear-gradient)"/>
              <path id="Path_7704" data-name="Path 7704" d="M727.708,374.455c-.006-1.762-3.965-2.894-5.682-2.654-1.019.14-2.447.672-2.745,1.832-2.541,5.231-7.134,17.658-10.2,25.149,1.175-8.274,1.49-8.809,4.654-18.92.126-.394.53-.707.517-1.162-.047-1.777-4.007-2.818-5.708-2.537-1.011.166-2.418.736-2.686,1.913-.543,1.8-11.72,26.062-13.814,31.9.075,1.213,2.952,2.169,3.98,1.941.343-.077.679-.319.949-1.009,2.679-5.271,6.408-14.552,7.747-14.8a.293.293,0,0,1,.362.141,73.492,73.492,0,0,0-.577,8.047,2.292,2.292,0,0,0,.77,1.93c1.211.879,2.364,1.643,3.318,1.454.607-.121,1.115-.594,1.526-1.669a114.846,114.846,0,0,1,17.049-30.418,1.8,1.8,0,0,0,.547-1.136Z" transform="translate(-575.724 -371.401)" fill="url(#linear-gradient)"/>
              <path id="Path_7705" data-name="Path 7705" d="M851.613,372.585a4.851,4.851,0,0,0-4.91-2.52c-7.244.636-18.079,19.6-17.919,27.4.03,3.607,1.7,6.127,5.827,6.512a3.992,3.992,0,0,0,2.086.2c7.908-1.364,19.137-22.727,19.415-27.869.1-2.86-1.922-3.267-4.5-3.716Zm-1.881,5.714c-.151,3.684-8.83,21.448-13.959,22.318-1.139.177-1.7-.953-1.7-2.543-.055-5.14,9.313-21.222,14.37-21.665,1.1-.109,1.3,1.324,1.288,1.891Z" transform="translate(-683.364 -370.037)" fill="url(#linear-gradient)"/>
            </g>
            <g id="Group_53108" data-name="Group 53108" style="mix-blend-mode: soft-light;isolation: isolate">
              <path id="Path_7706" data-name="Path 7706" d="M165.566,474.84c-.1-.458-.69-.587-.741-.817-.026-.115.109-.258.685-.426,1.534-1.119,2.241-1.728,2.177-2.013-.051-.228-.775-.211-2.118.034-1.935.351-3.4.8-6.693,1.488a.953.953,0,0,1-1.181-.76,96.072,96.072,0,0,1,3.848-12.486c1.317-1.392,9.587-3.045,11.413-3.392.43-.136.5-.326.445-.611-.121-.566-.856-1.319-1.015-2.058a1.153,1.153,0,0,1,.479-1.264c1.1-.783,1.715-1.715,1.6-2.281-.1-.453-.683-.762-1.969-.538-2.42.477-17.845,3.09-20.354,3.912-1.064.328-1.2.707-1.085,1.173.1.406.5,1.132.59,1.481.411,1.685-.934,9.507-2.433,17.966-1.362.085-2.564.138-3.15.223-.426.062-.687.341-.524.985a5.231,5.231,0,0,0,2.816,3.769c-1.143,6.665-2.164,13.05-2.554,16.351a5.331,5.331,0,0,0,.072,1.76c.3,1.183,4.4,3.529,5.257,3.363.458-.083.728-.5.785-1.36.189-3.216,3.054-17.157,3.714-18.217,0,0,.7-.962,3.4-1.92,4.18-1.466,6.819-3.107,6.538-4.363Z" transform="translate(-145.488 -432.699)" fill="url(#linear-gradient-9)"/>
              <path id="Path_7707" data-name="Path 7707" d="M254.587,480.845a4.461,4.461,0,0,0-2.624-.749c-.928.179-1.49,1.264-2.484,3.329-5.765,12.118-10.058,21.552-14.357,33.044a1.9,1.9,0,0,0-.166.992c.334,1.469,2.722,3.7,4.152,3.382.451-.1.494-.489.673-.862.93-2.4,2.837-8.885,4.331-9.719.775-.445,5.8-2.245,6.05-2.3.883-.2,1.1-.009,1.168.351.06.738.447,5.957.6,7.142.251,1.258,1.871,1.581,2.988,1.313.909-.217.881-.819.843-1.464-.485-11.092,2.5-28.164,4.722-31.6a.73.73,0,0,0,.119-.579c-.628-3.107-4.546-1.532-6.014-2.269Zm-7.955,22.976c-.145-.592,4.3-8.894,4.752-8.979.13-.028.166.153.228.468q-.185,4.112-.353,8.228a32.665,32.665,0,0,1-3.888.647c-.483.009-.69-.136-.738-.362Z" transform="translate(-215.902 -456.651)" fill="url(#linear-gradient-10)"/>
              <path id="Path_7708" data-name="Path 7708" d="M373.864,479.006c.3-.07.53-.309.626-.83,1.247-5.8,6.6-11.394,6.1-14.833-.24-1.613-1.688-2.107-2.5-3.2-1.341-2.149-2.673-3.543-4.995-3.056-6.514,1.271-16.7,24.627-14.623,35.1.6,3.245,2.4,5.078,6.093,4.15,3.441-.868,7.308-4.324,9.379-6.206a1.054,1.054,0,0,0,.387-.87,1.263,1.263,0,0,0-1.494-.858,2.233,2.233,0,0,0-.849.438,21.06,21.06,0,0,1-5.84,2.773c-1.426.351-2.581.219-2.769-.841-1.141-6.008,6.972-23.4,9.607-23.936.132-.03.189.049.211.181.013.4-3.107,5.108-3.013,7.787.26,1.543,2.522,4.478,3.677,4.2Z" transform="translate(-312.931 -438.487)" fill="url(#linear-gradient-11)"/>
              <path id="Path_7709" data-name="Path 7709" d="M454.688,468.086c-.17.043-1.3.419-1.852.558-.634.16-1.288.192-1.347-.24a1.983,1.983,0,0,1,.191-.853c1.4-5.286,8.287-25.132,11.06-28.986a3.86,3.86,0,0,1,2.364-1.347,3.5,3.5,0,0,0,2.1-2.471c-.03-.258-.275-.381-.726-.285-.545.111-8.3,2.332-12.982,3.433-1.7.409-2.477,1.7-2.379,2.39.043.3.251.481.653.394,1.426-.311,2.341-.332,2.4.145.243,2.386-7.168,23.953-8.279,27.139a7.752,7.752,0,0,1-1.741,3.056c-.5.445-2.028,1.056-2.764,1.651a.975.975,0,0,0-.334.947c.087.568.294,1.06.964.89.96-.245,7.349-2.381,11.569-3.463a3.469,3.469,0,0,0,1.837-2.654c-.038-.3-.272-.421-.738-.3Z" transform="translate(-378.147 -420.725)" fill="url(#linear-gradient-12)"/>
              <path id="Path_7710" data-name="Path 7710" d="M542.451,453.7c-.43.1-3.965.83-4.863,1.051-.515.126-.866.123-.9-.217-.3-2.128,8.266-19.386,11.79-25.123a1.868,1.868,0,0,0,.434-1.215c-.168-1.824-4.184-2.739-5.859-2.392-.994.206-2.358.839-2.545,2.06-.285,1.641-7.312,20.073-10.334,29.337a4.877,4.877,0,0,0-.185,2.083c.27,2.192,1.875,3.992,3.013,3.7,3-2.539,9.851-4.81,11.688-5.257.255-.064.326-.253.3-.551-.075-.8-1.281-3.771-2.53-3.473Z" transform="translate(-448.125 -413.877)" fill="url(#linear-gradient-13)"/>
              <path id="Path_7711" data-name="Path 7711" d="M620.4,432.027c-.172.038-1.33.389-1.888.519-.645.149-1.3.172-1.33-.247a1.985,1.985,0,0,1,.247-.826c1.741-5.125,9.934-24.261,12.969-27.924a4.087,4.087,0,0,1,2.456-1.249c.909-.164,2.3-1.673,2.271-2.339-.013-.251-.251-.377-.707-.3-.553.085-8.468,2.054-13.227,3.073-1.724.375-2.592,1.617-2.539,2.292.023.3.221.47.628.389,1.447-.285,2.364-.294,2.4.17.085,2.307-8.74,23.152-10.058,26.251a8.228,8.228,0,0,1-1.939,2.962c-.532.43-2.1,1.024-2.873,1.6a.989.989,0,0,0-.4.919c.051.551.226,1.028.907.86.975-.245,7.5-2.311,11.79-3.3a3.62,3.62,0,0,0,2.009-2.552c-.019-.294-.245-.411-.719-.3Z" transform="translate(-508.313 -393.34)" fill="url(#linear-gradient-14)"/>
              <path id="Path_7712" data-name="Path 7712" d="M727.708,374.455c-.006-1.762-3.965-2.894-5.682-2.654-1.019.14-2.447.672-2.745,1.832-2.541,5.231-7.134,17.658-10.2,25.149,1.175-8.274,1.49-8.809,4.654-18.92.126-.394.53-.707.517-1.162-.047-1.777-4.007-2.818-5.708-2.537-1.011.166-2.418.736-2.686,1.913-.543,1.8-11.72,26.062-13.814,31.9.075,1.213,2.952,2.169,3.98,1.941.343-.077.679-.319.949-1.009,2.679-5.271,6.408-14.552,7.747-14.8a.293.293,0,0,1,.362.141,73.492,73.492,0,0,0-.577,8.047,2.292,2.292,0,0,0,.77,1.93c1.211.879,2.364,1.643,3.318,1.454.607-.121,1.115-.594,1.526-1.669a114.846,114.846,0,0,1,17.049-30.418,1.8,1.8,0,0,0,.547-1.136Z" transform="translate(-575.724 -371.401)" fill="url(#linear-gradient-15)"/>
              <path id="Path_7713" data-name="Path 7713" d="M851.613,372.585a4.851,4.851,0,0,0-4.91-2.52c-7.244.636-18.079,19.6-17.919,27.4.03,3.607,1.7,6.127,5.827,6.512a3.992,3.992,0,0,0,2.086.2c7.908-1.364,19.137-22.727,19.415-27.869.1-2.86-1.922-3.267-4.5-3.716Zm-1.881,5.714c-.151,3.684-8.83,21.448-13.959,22.318-1.139.177-1.7-.953-1.7-2.543-.055-5.14,9.313-21.222,14.37-21.665,1.1-.109,1.3,1.324,1.288,1.891Z" transform="translate(-683.364 -370.037)" fill="url(#linear-gradient-16)"/>
            </g>
          </g>
        </g>
      </g>
    </g>
  </g>
</svg>
