<?xml version="1.0" encoding="utf-8"?>
<!-- Generator: Adobe Illustrator 26.3.1, SVG Export Plug-In . SVG Version: 6.00 Build 0)  -->
<svg version="1.1" id="Layer_1" xmlns="http://www.w3.org/2000/svg" xmlns:xlink="http://www.w3.org/1999/xlink" x="0px" y="0px"
	 viewBox="0 0 37.2 37.2" style="enable-background:new 0 0 37.2 37.2;" xml:space="preserve">
<style type="text/css">
	.st0{fill:none;stroke:#8D8D8D;stroke-width:3;stroke-linecap:round;stroke-linejoin:round;}
</style>
<g id="Icon_feather-eye-off" transform="translate(0.621 0.621)">
	<path id="Path_34899" class="st0" d="M26.9,26.9c-2.6,2-5.7,3-8.9,3.1C7.5,30,1.5,18,1.5,18c1.9-3.5,4.5-6.5,7.6-8.9 M14.9,6.4
		C15.9,6.1,16.9,6,18,6c10.5,0,16.5,12,16.5,12c-0.9,1.7-2,3.3-3.2,4.8 M21.2,21.2c-1.7,1.8-4.5,1.9-6.4,0.2s-1.9-4.5-0.2-6.4
		c0.1-0.1,0.1-0.2,0.2-0.2"/>
	<path id="Path_34900" class="st0" d="M1.5,1.5l33,33"/>
</g>
</svg>
