<svg xmlns="http://www.w3.org/2000/svg" xmlns:xlink="http://www.w3.org/1999/xlink" width="239.868" height="65.235" viewBox="0 0 239.868 65.235">
  <defs>
    <linearGradient id="linear-gradient" x1="0.5" y1="0.003" x2="0.5" y2="8008.656" gradientUnits="objectBoundingBox">
      <stop offset="0.028" stop-color="#eedabc"/>
      <stop offset="0.042" stop-color="#eed9b1"/>
      <stop offset="0.102" stop-color="#f1d58c"/>
      <stop offset="0.162" stop-color="#f4d26e"/>
      <stop offset="0.22" stop-color="#f5d059"/>
      <stop offset="0.277" stop-color="#f6cf4c"/>
      <stop offset="0.33" stop-color="#f7cf48"/>
      <stop offset="0.806" stop-color="#ca4225"/>
      <stop offset="0.858" stop-color="#c63e24"/>
      <stop offset="0.898" stop-color="#bd3522"/>
      <stop offset="0.933" stop-color="#ad251e"/>
      <stop offset="0.966" stop-color="#960e19"/>
      <stop offset="0.982" stop-color="#880016"/>
    </linearGradient>
  </defs>
  <g id="Group_6353" data-name="Group 6353" transform="translate(-29.264 -29.263)">
    <path id="Path_7132" data-name="Path 7132" d="M65.909,107.162c-.482-.846-1.6-8.429-1.6-8.429a5.426,5.426,0,0,0-2-1.844c-2.242-.244-10.667-2.383-10.667-2.383l-2.155-5.783c-.5-.3-.979-.589-1.425-.854l2.656,7.3-4.991,7.173c-4.416-1.021-8.393-2.7-9.62-5.085-1.09-2.117-3.53-9.527-3.246-10.6s4.678-7.078,4.727-7.149a1.61,1.61,0,0,0-.2-.475c-.188-.327-.233-.4-.392-.725-.326.484-4.415,7.6-5.272,7.723a1.051,1.051,0,0,1-1.192-.756A30,30,0,0,1,35.15,69.481a15.784,15.784,0,0,1,.648-3.127,31.413,31.413,0,0,0,24.878,50.591q.242,0,.483,0a8.87,8.87,0,0,0,1.912-1.351q-1.186.094-2.4.1a30.249,30.249,0,0,1-6.663-.74c.462-2.285,1.253-3.69,1.565-3.75.632-.122,3.551-.122,5.132-.812,1.328-.58,4.306-1.877,4.685-1.938a9.3,9.3,0,0,1,1.834.316q.1-.413.154-.837C66.1,107.7,65.909,107.162,65.909,107.162ZM36.458,103.5a25.448,25.448,0,0,1,.652-3.407c.221-.35,2.716,1.2,4.175,1.818a32.58,32.58,0,0,0,4.476,1.325c.223.034,1.75,2.164,3.937,4.538a14.732,14.732,0,0,0,4.233,3.3,21.52,21.52,0,0,1-.988,3.613A30.186,30.186,0,0,1,36.458,103.5Z" transform="translate(0 -22.447)" fill="#3ca94a"/>
    <path id="Path_7133" data-name="Path 7133" d="M98.237,48.041a18.8,18.8,0,0,1-2.374-4.318,17.381,17.381,0,0,1-.717-2.276c-1.527-5.641-15.19-13.109-24.589-12.089,5.1,1.14-5.911,1-15.31,5.558,0,0,11.072.161,8.866,1.611-10.9-1.756-19.04,5.56-16.745,14.668,0,0,.568-5.984,2.786-6.1a10.435,10.435,0,0,0-.728,3.566A16.971,16.971,0,0,0,51.4,56.908a18.266,18.266,0,0,0,3.239,4.515,26.134,26.134,0,0,0,5.913,3.749c6.121,2.629,11.261,5.375,14.957,9.2C77.868,76.809,81.2,84.4,78.1,88.469c0,0,3.242,3.262-2.119,5.846,0,0,8.1-1.877,8.434-13.227.1-3.92-4.1-13.563-17.321-17.684-.28-.087-.547-.178-.808-.271-12.117-4.3-4.441-14.36-4.441-14.36s-3.874,8.2,5.685,11.192c.124.039.246.08.369.12,9.432,3.035,15.02,8.055,17.713,14.856a13.373,13.373,0,0,1,1.073,3.382,5.2,5.2,0,0,1,.1.592c.916,5.791-.857,9.585-2.683,12.883A30.069,30.069,0,0,0,96.059,82.66c5.478-6.3,3.688-12.633,3.688-12.633,2.312.223,3.092,3.652,3.092,3.652.57-5.435-2.872-8.66-3.528-9.66a12.132,12.132,0,0,0,4.95-3.576c1.679-2.2,2.148-6.118,2.148-6.118S102.763,49.876,98.237,48.041Zm-33.5-1.326c-.073.656-.257,1-.4.643-.513-1.231-6.668,0-6.668,0s4.36-1.641,3.231-2.616-6.463,1.846-6.463,1.846a24.857,24.857,0,0,1,5.1-4.464,3.4,3.4,0,0,1,1.364-.46C64.414,41.482,64.924,45.082,64.742,46.715Zm37.234,8.877c-1.51.351-2.1-.084-2.153.5-.071,1.39.689,1.019,2.348.639a1.594,1.594,0,0,1-.045,2.459,12.928,12.928,0,0,1-2.376,1.847l-2.638.234L98.3,59.5a10.012,10.012,0,0,0-10.917.716s.292,3.953,2.075,5.211,5.648-.353,5.719-.022a22.673,22.673,0,0,1-1.07,3.244c2.5,5.165-5.491,9.933-4.493,8.476.686-1,.665-2.6-1.105-4.914,0,0-2.229,3.424-1.148,1.64s-.651-3.642-1.376-4.327c-.335-.3-.692-.618-1.077-.941C79.7,64.217,80.2,60.634,80.2,60.634c-5.849-.993-12.98-6.879-9.129-13.964-4.315-3.625-.958-10.937,3.25-5.586,5.879-1.829,15.659-1.046,18.019,1.4s3.06,7.007,3.06,7.007c7.72,3.394,8.314,5.422,8.314,5.422A7.227,7.227,0,0,1,101.975,55.593Z" transform="translate(-10.72 0)" fill="#f39d05"/>
    <path id="Path_7134" data-name="Path 7134" d="M137.843,70.173s6.2,1.5,7.122,1.647.436,1.308-.387,1.259-1.826,1.744-2.924,1.405S137.843,70.173,137.843,70.173Z" transform="translate(-65.712 -24.759)" fill="#030504"/>
    <g id="Group_6349" data-name="Group 6349" transform="translate(107.242 41.25)">
      <path id="Path_7135" data-name="Path 7135" d="M236.027,76.793l-2.561,4.5h-6.689L237.08,64.1a11.36,11.36,0,0,1,1.722-2.263,7.825,7.825,0,0,1,1.551-1.21,3.954,3.954,0,0,1,1.224-.484,5.148,5.148,0,0,1,.712-.085h6.148V81.29h-5.892v-4.5Zm6.632-3.842v-8l-4.469,8Z" transform="translate(-226.777 -59.886)" fill="#030504"/>
      <path id="Path_7136" data-name="Path 7136" d="M294.45,75.3l-1.85,6.034h-6.347l6.4-21.2h10.787a8.718,8.718,0,0,1,2.633.4,5.439,5.439,0,0,1,2.235,1.366,4.273,4.273,0,0,1,.882,1.395,4.481,4.481,0,0,1,.313,1.651,11.492,11.492,0,0,1-.484,3.3,11.989,11.989,0,0,1-1.394,3.045,15.308,15.308,0,0,1-1.139,1.494,8.678,8.678,0,0,1-1.366,1.281,7.055,7.055,0,0,1-1.58.9,4.6,4.6,0,0,1-1.751.341Zm4.469-4.355a6.212,6.212,0,0,0,1.309-.114,3.2,3.2,0,0,0,.868-.313,2.3,2.3,0,0,0,.6-.47l.5-.555A5.23,5.23,0,0,0,303.2,67.9a4.978,4.978,0,0,0,.356-1.878,2.173,2.173,0,0,0-.128-.711,2.4,2.4,0,0,0-.356-.669,1.892,1.892,0,0,0-.541-.484,1.376,1.376,0,0,0-.711-.185h-3.957l-2.134,6.973Z" transform="translate(-262.772 -59.93)" fill="#030504"/>
      <path id="Path_7137" data-name="Path 7137" d="M365.1,70.824a45.4,45.4,0,0,1-2.192,6.219A6.3,6.3,0,0,1,360.8,79.6a7.311,7.311,0,0,1-3.045,1.281q-1.338.228-2.661.342t-2.661.114q-.968,0-2.021-.043a15.141,15.141,0,0,1-2.078-.228,9.979,9.979,0,0,1-1.921-.541,4.868,4.868,0,0,1-1.551-.968,3.814,3.814,0,0,1-.982-1.509,5.046,5.046,0,0,1-.213-2.177,24.674,24.674,0,0,1,.5-3.06q.356-1.579.826-3.145t1.01-3.06q.541-1.494,1.082-2.8a4.948,4.948,0,0,1,.953-1.452A6.5,6.5,0,0,1,349.886,61a11.987,11.987,0,0,1,2.974-1,20.958,20.958,0,0,1,4.326-.384q1.252,0,2.718.057a12.1,12.1,0,0,1,2.789.427,6.605,6.605,0,0,1,2.348,1.181,4.1,4.1,0,0,1,1.394,2.348v.769A55.432,55.432,0,0,1,365.1,70.824Zm-6.575-.285a41.8,41.8,0,0,0,1.252-4.853,1.245,1.245,0,0,0-.142-1.039,1.673,1.673,0,0,0-.783-.569,4.332,4.332,0,0,0-1.1-.242q-.6-.057-1.025-.057-.484,0-1.053.057a4.729,4.729,0,0,0-1.1.242,3.43,3.43,0,0,0-.953.512,1.89,1.89,0,0,0-.626.868q-.854,2.22-1.594,4.582t-1.252,4.782a1.925,1.925,0,0,0-.014,1.01,1.623,1.623,0,0,0,.441.74,1.91,1.91,0,0,0,.8.441,2.726,2.726,0,0,0,1.053.085q.541,0,1.238-.043a6.772,6.772,0,0,0,1.338-.214,3.175,3.175,0,0,0,1.124-.54,1.7,1.7,0,0,0,.626-1.025Q357.755,72.916,358.524,70.539Z" transform="translate(-297.501 -59.624)" fill="#030504"/>
      <path id="Path_7138" data-name="Path 7138" d="M402.9,76.219h8.368a12.563,12.563,0,0,0,1.622-.1,4.166,4.166,0,0,0,1.338-.384,1.472,1.472,0,0,0,.768-.882,1.321,1.321,0,0,0,.043-1.024,2.1,2.1,0,0,0-.783-.6q-.512.028-1.252.028t-1.58-.043q-.84-.043-1.708-.142a9.482,9.482,0,0,1-1.594-.313,5.768,5.768,0,0,1-1.266-.527,1.652,1.652,0,0,1-.74-.8q-.228-.512-.455-1.139a8.069,8.069,0,0,1-.356-1.338,6.515,6.515,0,0,1-.086-1.509,5.938,5.938,0,0,1,.327-1.622,8.162,8.162,0,0,0-1.437.726,4.341,4.341,0,0,0-1.068.953.235.235,0,0,1-.142.086.331.331,0,0,1-.313.014.175.175,0,0,1-.114-.242,33.841,33.841,0,0,1,1.878-3.188,10.107,10.107,0,0,1,2.163-2.348,8.681,8.681,0,0,1,2.9-1.452,14.254,14.254,0,0,1,4.156-.47h10.417L422.765,65l-9.136.028a6.913,6.913,0,0,0-1.722.4,1.736,1.736,0,0,0-1.01.94,1.536,1.536,0,0,0-.128,1.181,1.355,1.355,0,0,0,.726.726,1.725,1.725,0,0,0,.455.156,3.948,3.948,0,0,0,.541.057q.313.014.74.014h1.024a14.675,14.675,0,0,1,3.9.4,3.354,3.354,0,0,1,2.647,3.373,6.925,6.925,0,0,1-.427,2.633,13.633,13.633,0,0,1-1.523,3.2,6.143,6.143,0,0,1-2.576,2.234,8.173,8.173,0,0,1-2.619.669,38.139,38.139,0,0,1-4.184.185h-7.8Z" transform="translate(-332.625 -59.796)" fill="#030504"/>
      <path id="Path_7139" data-name="Path 7139" d="M475.959,65h-5.294l-4.9,16.2h-6.432L464.289,65a27.183,27.183,0,0,0-3.6.1,9.044,9.044,0,0,0-2.248.5,4.259,4.259,0,0,0-1.381.826,10.24,10.24,0,0,0-.968,1.053.322.322,0,0,1-.356.114q-.214-.057-.157-.256.939-1.793,1.85-3.188a9.745,9.745,0,0,1,2.12-2.348,8.366,8.366,0,0,1,2.875-1.437,14.486,14.486,0,0,1,4.141-.456v.057H477.5Z" transform="translate(-365.241 -59.796)" fill="#030504"/>
      <path id="Path_7140" data-name="Path 7140" d="M501.9,76.793l-2.561,4.5h-6.689l10.3-17.191a11.359,11.359,0,0,1,1.722-2.263,7.826,7.826,0,0,1,1.551-1.21,3.954,3.954,0,0,1,1.224-.484,5.152,5.152,0,0,1,.711-.085h6.148V81.29h-5.892v-4.5Zm6.632-3.842v-8l-4.469,8Z" transform="translate(-387.686 -59.886)" fill="#030504"/>
    </g>
    <path id="Path_7141" data-name="Path 7141" d="M67.1,46.705h0Z" transform="translate(-22.898 -10.556)" fill="url(#linear-gradient)"/>
    <path id="Path_7142" data-name="Path 7142" d="M72.6,60.018c-2.259.118-6.457,4.919-6.457,4.919s5.329-2.818,6.457-1.844-3.228,2.613-3.228,2.613,6.149-1.23,6.661,0S77.518,59.762,72.6,60.018Z" transform="translate(-22.319 -18.609)" fill="none"/>
    <path id="Path_7143" data-name="Path 7143" d="M84.244,65.064c.182-1.631-.328-5.229-3.837-5.046a3.4,3.4,0,0,0-1.363.46A14.956,14.956,0,0,1,84.244,65.064Z" transform="translate(-30.127 -18.608)" fill="none"/>
    <path id="Path_7144" data-name="Path 7144" d="M601.931,60.017h9.87l-4.087,16.195,3.8-.075L609.683,81.5l-14.212-.015,1.893-5.273h3.861L603.7,65.3h-3.53Z" transform="translate(-342.669 -18.612)" fill="#030504"/>
    <g id="Group_6352" data-name="Group 6352" transform="translate(107.316 68.586)">
      <path id="Path_7145" data-name="Path 7145" d="M496.114,138.7c.038.025.118.068.242.13a3.62,3.62,0,0,0,.465.186,5.5,5.5,0,0,0,.642.167,3.734,3.734,0,0,0,.754.075,2,2,0,0,0,.931-.186,1.208,1.208,0,0,0,.54-.605,3.4,3.4,0,0,0,.242-1.08q.056-.66.056-1.61v-6.72h3.63v6.72a20.58,20.58,0,0,1-.168,2.746,5.166,5.166,0,0,1-.726,2.113,3.654,3.654,0,0,1-1.629,1.359,7.09,7.09,0,0,1-2.876.484,4.932,4.932,0,0,1-2.867-.819Z" transform="translate(-389.392 -128.98)" fill="#3ca94a"/>
      <path id="Path_7146" data-name="Path 7146" d="M526.5,142.269a6.359,6.359,0,0,1-2.736-.577,6.762,6.762,0,0,1-2.1-1.517,6.876,6.876,0,0,1-1.359-2.15,6.66,6.66,0,0,1-.484-2.494,6.5,6.5,0,0,1,.5-2.513,6.68,6.68,0,0,1,1.406-2.132,6.853,6.853,0,0,1,2.141-1.471,6.606,6.606,0,0,1,2.709-.549,6.36,6.36,0,0,1,2.736.577,6.7,6.7,0,0,1,2.1,1.527,6.856,6.856,0,0,1,1.35,2.159,6.731,6.731,0,0,1,.475,2.476,6.418,6.418,0,0,1-.5,2.5,6.78,6.78,0,0,1-1.4,2.122,6.869,6.869,0,0,1-2.131,1.48A6.512,6.512,0,0,1,526.5,142.269Zm-3-6.7a4.49,4.49,0,0,0,.186,1.294,3.379,3.379,0,0,0,.559,1.107,2.815,2.815,0,0,0,.94.782,3.183,3.183,0,0,0,2.708-.009,2.742,2.742,0,0,0,.94-.8,3.449,3.449,0,0,0,.54-1.126,4.758,4.758,0,0,0,.177-1.284,4.5,4.5,0,0,0-.186-1.294,3.193,3.193,0,0,0-.568-1.1,2.866,2.866,0,0,0-.95-.763,3.21,3.21,0,0,0-2.68.009,2.778,2.778,0,0,0-.94.791,3.348,3.348,0,0,0-.549,1.117A4.663,4.663,0,0,0,523.507,135.568Z" transform="translate(-404.201 -128.866)" fill="#3ca94a"/>
      <path id="Path_7147" data-name="Path 7147" d="M597.419,142.269a6.359,6.359,0,0,1-2.736-.577,6.763,6.763,0,0,1-2.1-1.517,6.871,6.871,0,0,1-1.359-2.15,6.66,6.66,0,0,1-.484-2.494,6.5,6.5,0,0,1,.5-2.513,6.679,6.679,0,0,1,1.405-2.132,6.853,6.853,0,0,1,2.141-1.471,6.606,6.606,0,0,1,2.709-.549,6.36,6.36,0,0,1,2.736.577,6.7,6.7,0,0,1,2.1,1.527,6.855,6.855,0,0,1,1.35,2.159,6.731,6.731,0,0,1,.475,2.476,6.418,6.418,0,0,1-.5,2.5,6.78,6.78,0,0,1-1.4,2.122,6.869,6.869,0,0,1-2.131,1.48A6.513,6.513,0,0,1,597.419,142.269Zm-3-6.7a4.488,4.488,0,0,0,.186,1.294,3.379,3.379,0,0,0,.559,1.107,2.815,2.815,0,0,0,.94.782,3.183,3.183,0,0,0,2.708-.009,2.746,2.746,0,0,0,.94-.8,3.455,3.455,0,0,0,.54-1.126,4.758,4.758,0,0,0,.177-1.284,4.518,4.518,0,0,0-.186-1.294,3.2,3.2,0,0,0-.568-1.1,2.865,2.865,0,0,0-.95-.763,3.21,3.21,0,0,0-2.68.009,2.777,2.777,0,0,0-.94.791,3.346,3.346,0,0,0-.549,1.117A4.663,4.663,0,0,0,594.422,135.568Z" transform="translate(-447.119 -128.866)" fill="#3ca94a"/>
      <path id="Path_7148" data-name="Path 7148" d="M629.269,139.243a1.805,1.805,0,0,1,1.33.538,1.867,1.867,0,0,1,0,2.622,1.807,1.807,0,0,1-1.33.538,1.849,1.849,0,1,1,0-3.7Zm1.566-.736h-3.094v-9.452h3.094Z" transform="translate(-469.32 -128.98)" fill="#3ca94a"/>
      <path id="Path_7149" data-name="Path 7149" d="M587.982,144.709c.014.174.026.35.026.529v-.529Z" transform="translate(-445.452 -138.454)" fill="#3ca94a"/>
      <path id="Path_7150" data-name="Path 7150" d="M555.939,145.9a6.374,6.374,0,0,0,.1,1.094,8.7,8.7,0,0,1-.1-1.19C555.943,145.837,555.939,145.869,555.939,145.9Z" transform="translate(-426.06 -139.117)" fill="#3ca94a"/>
      <g id="Group_6350" data-name="Group 6350" transform="translate(0 0.019)">
        <path id="Path_7151" data-name="Path 7151" d="M236.44,139.026v3.184h-9.476v-13.3h9.308V132.1h-5.656v1.873h4.832v2.959h-4.832v2.1Z" transform="translate(-226.964 -128.913)" fill="#3ca94a"/>
        <path id="Path_7152" data-name="Path 7152" d="M258.935,135.674v6.536h-3.652v-13.3h2.846l5.338,6.761v-6.761h3.651v13.3h-2.9Z" transform="translate(-244.103 -128.913)" fill="#3ca94a"/>
        <path id="Path_7153" data-name="Path 7153" d="M299.944,132.1h-3.82V142.21h-3.652V132.1h-3.839v-3.184h11.311Z" transform="translate(-264.286 -128.913)" fill="#3ca94a"/>
        <path id="Path_7154" data-name="Path 7154" d="M320.651,142.21v-13.3h6.106a4.038,4.038,0,0,1,1.8.4,4.664,4.664,0,0,1,1.414,1.049,4.884,4.884,0,0,1,.927,1.48,4.431,4.431,0,0,1,.337,1.676,4.731,4.731,0,0,1-.505,2.163,4.414,4.414,0,0,1-1.4,1.639l2.809,4.888h-4.12l-2.341-4.083H324.3v4.083Zm3.652-7.266h2.3a.808.808,0,0,0,.627-.375,1.674,1.674,0,0,0,.291-1.049,1.508,1.508,0,0,0-.337-1.058.946.946,0,0,0-.674-.365H324.3Z" transform="translate(-283.663 -128.913)" fill="#3ca94a"/>
        <path id="Path_7155" data-name="Path 7155" d="M362.147,139.026v3.184h-9.476v-13.3h9.308V132.1h-5.656v1.873h4.832v2.959h-4.832v2.1Z" transform="translate(-303.042 -128.913)" fill="#3ca94a"/>
      </g>
      <path id="Path_7156" data-name="Path 7156" d="M565.76,133.273c-.024-.024-.085-.094-.182-.209a3.31,3.31,0,0,0-.328-.337,4.532,4.532,0,0,0-.974-.574,4.012,4.012,0,0,0-1.684-.3,3.951,3.951,0,0,0-1.093.137,3.384,3.384,0,0,0-.82.346,2.861,2.861,0,0,0-.582.455,2.509,2.509,0,0,0-.364.465,3.877,3.877,0,0,0-.482,1.111,4.585,4.585,0,0,0-.173,1.2,3.276,3.276,0,0,0,.018.382c.012.1.024.182.036.255a5.178,5.178,0,0,0,.228.847,3.107,3.107,0,0,0,.555.964,3.181,3.181,0,0,0,1.02.792,3.536,3.536,0,0,0,1.621.328c.084,0,.219-.009.4-.027a4.079,4.079,0,0,0,.619-.119,2.946,2.946,0,0,0,.7-.291,2.037,2.037,0,0,0,.629-.565,1.661,1.661,0,0,0,.236-.364c.049-.11.1-.243.164-.4h-3.843v-3l7.321.018v.583c0,.194-.007.394-.019.6q0,.236-.036.682a8.688,8.688,0,0,1-.51,2.24,5.816,5.816,0,0,1-.656,1.265,5.237,5.237,0,0,1-2.258,1.912,7.264,7.264,0,0,1-2.913.583,9.345,9.345,0,0,1-1.057-.073,6.091,6.091,0,0,1-1.329-.328,6.481,6.481,0,0,1-1.466-.774,6.909,6.909,0,0,1-1.466-1.411c-.122-.157-.261-.361-.419-.61a5.988,5.988,0,0,1-.455-.892,7.451,7.451,0,0,1-.373-1.165,6.19,6.19,0,0,1-.155-1.448q0-.309.055-.884a5.6,5.6,0,0,1,.309-1.3,6.685,6.685,0,0,1,.666-1.375,6.589,6.589,0,0,1,.956-1.184,7,7,0,0,1,1.2-.947,6.147,6.147,0,0,1,1.4-.646,7.178,7.178,0,0,1,.865-.227,6.709,6.709,0,0,1,1.375-.119q.273,0,.656.018a5.491,5.491,0,0,1,.856.119,8.342,8.342,0,0,1,1.02.291,7.094,7.094,0,0,1,1.129.52,7.172,7.172,0,0,1,1.038.7c.266.224.473.4.619.537Z" transform="translate(-425.898 -128.866)" fill="#3ca94a"/>
      <g id="Group_6351" data-name="Group 6351" transform="translate(70.031)">
        <path id="Path_7157" data-name="Path 7157" d="M407.979,135.779v6.5h-3.631v-13.22h2.831l5.307,6.721v-6.721h3.631v13.22H413.23Z" transform="translate(-404.348 -128.982)" fill="#3ca94a"/>
        <path id="Path_7158" data-name="Path 7158" d="M444.756,142.274a6.354,6.354,0,0,1-2.737-.577,6.762,6.762,0,0,1-2.1-1.518,6.839,6.839,0,0,1-1.359-2.15,6.645,6.645,0,0,1-.484-2.5,6.491,6.491,0,0,1,.5-2.513,6.66,6.66,0,0,1,1.406-2.132,6.839,6.839,0,0,1,2.141-1.471,6.6,6.6,0,0,1,2.71-.55,6.356,6.356,0,0,1,2.737.578,6.7,6.7,0,0,1,2.1,1.527,6.872,6.872,0,0,1,1.349,2.16,6.724,6.724,0,0,1,.475,2.477,6.4,6.4,0,0,1-.5,2.5,6.747,6.747,0,0,1-1.4,2.123,6.852,6.852,0,0,1-2.132,1.48A6.509,6.509,0,0,1,444.756,142.274Zm-3-6.7a4.513,4.513,0,0,0,.186,1.294,3.371,3.371,0,0,0,.559,1.108,2.812,2.812,0,0,0,.94.782,3.18,3.18,0,0,0,2.71-.009,2.762,2.762,0,0,0,.94-.8,3.445,3.445,0,0,0,.539-1.128,4.744,4.744,0,0,0,.177-1.285,4.506,4.506,0,0,0-.186-1.294,3.21,3.21,0,0,0-.568-1.1,3.066,3.066,0,0,0-3.631-.753,2.776,2.776,0,0,0-.94.791,3.36,3.36,0,0,0-.549,1.116A4.641,4.641,0,0,0,441.759,135.57Z" transform="translate(-424.758 -128.866)" fill="#3ca94a"/>
      </g>
    </g>
  </g>
</svg>
