<?xml version="1.0" encoding="UTF-8"?>
<!-- Generator: Adobe Illustrator 25.3.1, SVG Export Plug-In . SVG Version: 6.00 Build 0)  -->
<svg version="1.1" id="Camada_1" xmlns="http://www.w3.org/2000/svg" xmlns:xlink="http://www.w3.org/1999/xlink" x="0px" y="0px" width="799.5px" height="799.9px" viewBox="0 0 799.5 799.9" style="enable-background:new 0 0 799.5 799.9;" xml:space="preserve">
<style type="text/css">
	.st0{fill:#4DB539;}
	.st1{fill:#005F3F;}
	.st2{fill:#70B862;}
	.st3{fill:#329837;}
	.st4{fill:#3BA243;}
	.st5{fill:#1B8541;}
	.st6{fill:#329640;}
	.st7{fill:#2C903F;}
	.st8{fill:url(#SVGID_1_);}
	.st9{fill:url(#SVGID_2_);}
	.st10{fill:url(#SVGID_3_);}
	.st11{fill:url(#SVGID_4_);}
	.st12{fill:url(#SVGID_5_);}
	.st13{fill:#FFFFFF;}
</style>
<path class="st0" d="M518.5,67l-0.5,0.1L44.4,194c-2.9,0.8-5.7,1.8-8.4,3.1C6.6,211-1.6,251,22.6,275.2l150.7,150.7l61.4,61.3  c-25.9-26.5-13.8-71.2,22.1-80.8L475.1,348l-153-153c-26.4-26.4-14.3-71.5,21.8-81.2L518.5,67"/>
<path class="st1" d="M651.6,300.7L256.8,406.5c-36.1,9.7-48.2,54.8-21.7,81.2l289,289.1c26.4,26.4,71.5,14.3,81.2-21.8l105.9-394.8  C720.7,324,687.7,291,651.6,300.7"/>
<path class="st2" d="M173.3,425.9l61.5,61.5l-0.1-0.1L173.3,425.9"/>
<path class="st3" d="M475.1,348l-218.3,58.5c-35.9,9.6-48,54.4-22.1,80.8l0.1,0.1l134.5,134.5c9,9.1,21.3,14.3,34.1,14.2  c22.1,0.1,41.4-14.7,47.1-36l58.5-218.2L475.1,348"/>
<path class="st4" d="M696.6,413.9l-11.2,41.7c0-0.1,0-0.1,0-0.2L696.6,413.9 M742.1,8.8c-4.3,0-8.6,0.6-12.8,1.7l0,0L518.5,67  c4-1,8.1-1.6,12.3-1.6c30.6,0,55.2,29.4,46.7,61.1l-56,209l130.3-34.9c4.2-1.1,8.5-1.7,12.8-1.7c30.5,0,55,29.2,46.7,60.8  l77.7-289.9c7-25.8-8.1-52.4-33.9-59.4C750.8,9.4,746.5,8.8,742.1,8.8"/>
<path class="st5" d="M664.4,299c-4.3,0-8.6,0.6-12.8,1.7l-130.3,34.9l-12.4,46.3l95.4,95.4c9,9.1,21.3,14.2,34.1,14.2  c22,0.1,41.3-14.6,47-35.8l11.2-41.7l14.5-54.2C719.4,328.1,694.9,299,664.4,299"/>
<path class="st6" d="M530.7,65.4c-4.1,0-8.2,0.5-12.2,1.6l-174.6,46.8c-36.1,9.7-48.2,54.8-21.8,81.2l153,153l46.2-12.4l56-209  C585.9,94.8,561.4,65.4,530.7,65.4"/>
<polyline class="st7" points="521.3,335.6 475.1,348 508.9,381.8 521.3,335.6 "/>
<linearGradient id="SVGID_1_" gradientUnits="userSpaceOnUse" x1="0.3425" y1="568.5575" x2="0.3325" y2="568.5475" gradientTransform="matrix(1 0 0 -1 0 799.7)">
	<stop offset="0" style="stop-color:#F1B400"/>
	<stop offset="0.32" style="stop-color:#66BA00"/>
	<stop offset="0.56" style="stop-color:#00BF00"/>
	<stop offset="1" style="stop-color:#007F46"/>
</linearGradient>
<polygon class="st8" points="0.3,231.2 0.3,231.1 0.3,231.1 "/>
<linearGradient id="SVGID_2_" gradientUnits="userSpaceOnUse" x1="1.68" y1="542.85" x2="1.68" y2="542.85" gradientTransform="matrix(1 0 0 -1 0 799.7)">
	<stop offset="0" style="stop-color:#F1B400"/>
	<stop offset="0.32" style="stop-color:#66BA00"/>
	<stop offset="0.56" style="stop-color:#00BF00"/>
	<stop offset="1" style="stop-color:#007F46"/>
</linearGradient>
<path class="st9" d="M1.7,256.9L1.7,256.9L1.7,256.9z"/>
<linearGradient id="SVGID_3_" gradientUnits="userSpaceOnUse" x1="19.8923" y1="602.7784" x2="19.8723" y2="602.7485" gradientTransform="matrix(1 0 0 -1 0 799.7)">
	<stop offset="0" style="stop-color:#F1B400"/>
	<stop offset="0.32" style="stop-color:#66BA00"/>
	<stop offset="0.56" style="stop-color:#00BF00"/>
	<stop offset="1" style="stop-color:#007F46"/>
</linearGradient>
<polygon class="st10" points="19.9,197 19.9,196.9 19.9,196.9 "/>
<linearGradient id="SVGID_4_" gradientUnits="userSpaceOnUse" x1="730.94" y1="798.74" x2="730.94" y2="798.74" gradientTransform="matrix(1 0 0 -1 0 799.7)">
	<stop offset="0" style="stop-color:#F1B400"/>
	<stop offset="0.32" style="stop-color:#66BA00"/>
	<stop offset="0.56" style="stop-color:#00BF00"/>
	<stop offset="1" style="stop-color:#007F46"/>
</linearGradient>
<path class="st11" d="M730.9,1L730.9,1z"/>
<linearGradient id="SVGID_5_" gradientUnits="userSpaceOnUse" x1="633.2462" y1="871.6214" x2="233.1778" y2="178.6857" gradientTransform="matrix(1 0 0 -1 0 799.7)">
	<stop offset="0" style="stop-color:#F1B400"/>
	<stop offset="0.32" style="stop-color:#66BA00"/>
	<stop offset="0.56" style="stop-color:#00BF00"/>
	<stop offset="1" style="stop-color:#007F46"/>
</linearGradient>
<path class="st12" d="M799.5,57.5v-1l0,0c0-1.6-0.1-3.2-0.2-4.7c0-0.5-0.1-0.9-0.1-1.2c-0.2-1.4-0.4-2.9-0.7-4.4l0,0l-0.1-0.5v-0.1  v-0.1c-0.4-1.7-0.8-3.3-1.3-4.8l0,0c-0.2-0.5-0.3-0.9-0.4-1.2l0,0c-0.4-1.4-1-2.7-1.5-4.1l0,0L795,35l-0.1-0.1v-0.1  c-0.7-1.6-1.4-3-2.1-4.4l0-0.1l-0.5-0.9v-0.1c-0.7-1.2-1.5-2.5-2.3-3.8l0,0l-0.1-0.2l0-0.1l-0.1-0.1c-1-1.4-1.9-2.7-2.9-3.9  l-0.7-0.9v-0.1c-1-1.2-2.1-2.4-3.3-3.6l-0.1-0.1l-0.2-0.2l0,0c-1.1-1.1-2.2-2.1-3.3-3l-0.1-0.1l-0.7-0.6l-0.1-0.1  c-1.2-1-2.5-2-3.9-2.9l-0.1-0.1l-0.4-0.2l0,0c-1.3-0.8-2.5-1.6-3.7-2.3l-1-0.5h-0.1l0,0c-1.4-0.7-2.8-1.5-4.4-2.1h-0.1L764,4.2l0,0  c-1.4-0.6-2.7-1.1-4.1-1.5l-1-0.3l0,0h-0.1c-1.5-0.5-3.1-0.9-4.8-1.3H754L753.2,1l0,0c-1.4-0.3-2.9-0.5-4.3-0.7l-1.2-0.1  c-1.5-0.1-3.1-0.2-4.7-0.2h-0.7c-0.9,0-1.5,0-1.8,0.1s-0.9,0-1.7,0s-1.7,0.2-2.3,0.2c-0.2,0-0.8,0.1-1.6,0.2l0,0  c-1,0.1-1.9,0.3-2.6,0.4c-0.1,0-0.5,0.1-1.3,0.2c-1.3,0.3-2.6,0.6-3.9,0.9l-209,56l-476,127.5c-1.6,0.4-3.2,0.9-4.6,1.5  c-0.6,0.2-1,0.4-1.3,0.5c-1,0.4-1.9,0.8-2.9,1.2l0,0l-0.7,0.3l-0.4,0.2l-0.7,0.4l0,0c-1.7,0.9-3.4,1.8-5,2.8l-0.1,0.1l-0.7,0.5l0,0  c-1.7,1.1-3.4,2.3-4.9,3.6l0,0l-0.7,0.5c-1.6,1.3-3.1,2.7-4.5,4.2l-0.1,0.1l-0.4,0.4l0,0c-1.4,1.4-2.6,3-3.8,4.5l0,0l-0.1,0.1  l-0.1,0.1l-0.1,0.1c-1.2,1.6-2.3,3.4-3.4,5.1l0,0l-0.3,0.5l-0.1,0.1v0.1c-1,1.7-1.9,3.5-2.7,5.3l-0.3,0.7v0.1  c-0.8,1.8-1.4,3.6-2,5.5v0.1l-0.2,0.7v0c-0.6,1.9-1,3.8-1.4,5.7l-0.1,0.8c-0.4,2-0.6,4-0.7,6v0.1v0.5l0,0C0,238.9,0,240,0,241.2  c0,3,0.2,6.1,0.7,9.1l0,0l0.1,0.4v0v0.2c0.4,2,0.8,4,1.4,6l0.2,0.6l0.1,0.2c0.6,2,1.3,3.9,2.1,5.8l0.3,0.8v0  c0.9,1.9,1.8,3.8,2.9,5.6l0.4,0.7l0,0c1.1,1.9,2.4,3.7,3.7,5.4l0.1,0.1l0.3,0.4l0,0c1.4,1.8,3,3.5,4.6,5.2l179.1,179.5l31.9,31.9  l0,0l0.7,0.7l0,0l0.2,0.2l64.7,64.7l54.5,54.5l16.9,16.9l153,153c10.7,10.8,25.2,16.9,40.4,16.9h0.8c12.2-0.2,24-4.1,33.8-11.4  c10.4-7.7,17.8-18.7,21.1-31.2l86-320.9l10.9-40.7l9-33.5l0,0l77.7-289.9c0.3-1.3,0.7-2.6,0.9-3.9l0,0c0.2-0.8,0.2-1.2,0.2-1.3l0,0  c0.1-0.7,0.3-1.5,0.4-2.5c0.1-0.8,0.1-1.4,0.2-1.6l0,0c0.1-0.6,0.2-1.3,0.2-2.3s0-1.4,0.1-1.7s0-0.6,0-1.1L799.5,57.5z M780.7,65.5  l0.1-0.6l0,0L780.7,65.5z M781.5,59.5c0,0.3-0.1,0.9-0.2,1.6l0,0c-0.1,0.7-0.1,1-0.1,1.1c0,0.4-0.2,1-0.3,1.8l0,0  c0,0.3-0.1,0.6-0.1,0.7v0.2c-0.2,0.9-0.4,1.8-0.6,2.7l-77.8,289.9l-0.1,0.3l-0.1,0.3v0l-8.8,33l-10.9,40.7l-86,320.9  c-2.2,8.6-7.3,16.2-14.5,21.5c-6.8,5-15,7.8-23.4,7.9h-0.5c-10.5,0-20.5-4.2-27.8-11.6l-153-153l-16.9-16.9L306,546l-63.7-63.7l0,0  l-1.2-1.2l0,0l-32.6-32.6L28.9,268.9c-1.2-1.2-2.3-2.4-3.3-3.7v-0.1l-0.2-0.3c-0.9-1.2-1.8-2.4-2.5-3.7l0,0l-0.3-0.4  c-0.7-1.2-1.4-2.5-2-3.8l-0.3-0.6c-0.5-1.3-1-2.6-1.4-3.9l-0.1-0.5l0,0c-0.4-1.3-0.7-2.7-0.9-4.1v-0.3v-0.1  c-0.3-2.1-0.5-4.2-0.5-6.3c0-0.8,0-1.6,0.1-2.4v-0.4c0.1-1.3,0.3-2.7,0.5-4.1l0,0l0.1-0.5l0,0c0.3-1.3,0.6-2.7,1-4l0.2-0.6  c0.4-1.3,0.9-2.5,1.4-3.7l0.3-0.6c0.6-1.3,1.2-2.5,1.8-3.6l0.2-0.3l0.1-0.1c0.7-1.2,1.5-2.4,2.3-3.6l0.1-0.1  c0.9-1.1,1.8-2.2,2.8-3.3l0.1-0.1l0.2-0.2c0.9-1,1.9-2,3-2.9l0.5-0.4c1.1-0.9,2.2-1.7,3.4-2.4l0.6-0.4c1.2-0.7,2.5-1.4,3.7-2  l0.2-0.1l0.1-0.1l0.2-0.1l0.1-0.1h0.1c0.7-0.3,1.4-0.6,2.2-0.9c0.4-0.2,0.8-0.3,0.9-0.4c1.1-0.4,2.2-0.8,3.2-1l476-127.5l209-56  c0.9-0.2,1.8-0.4,2.7-0.6l0,0c0.1,0,0.4-0.1,0.9-0.1l1.8-0.3l1.1-0.1c0.7-0.1,1.2-0.1,1.6-0.2h1.1h1.1h0.3c1.1,0,2.3,0.1,3.5,0.2  l0.8,0.1c1,0.1,2.1,0.3,3,0.5l0,0l0.5,0.1c1,0.2,2.1,0.5,3.2,0.8l0.8,0.3c1,0.3,2,0.7,2.9,1.1h0.1l0.3,0.1c1,0.4,1.9,0.9,3,1.4  l0.7,0.4c1,0.6,1.9,1.1,2.7,1.7l0.1,0.1l0.2,0.1c0.8,0.6,1.7,1.2,2.6,2l0.7,0.6c0.9,0.8,1.7,1.5,2.4,2.2l0.1,0.1  c0.7,0.7,1.5,1.5,2.2,2.4l0.5,0.7c0.7,0.9,1.4,1.8,2,2.6v0.1l0,0l0.1,0.1c0.6,0.8,1.1,1.7,1.7,2.7l0.4,0.8c0.5,1,1,2,1.4,2.9  l0.1,0.2v0.1v0.1c0.4,0.9,0.7,1.9,1.1,2.9l0,0c0.1,0.4,0.2,0.6,0.3,0.8l0,0c0.3,1.1,0.6,2.2,0.8,3.2l0.1,0.3v0.1  c0.2,1,0.3,2,0.5,3.1c0,0.4,0.1,0.7,0.1,0.8c0.1,1.2,0.2,2.4,0.2,3.5v0.3c0,0.2,0,0.5,0,1.1S781.5,59.4,781.5,59.5L781.5,59.5z"/>
<polygon class="st13" points="379.8,193.5 395.6,252.8 457.1,236.3 457.1,597.6 518.5,597.6 518.5,219.9 518.5,173.4 518.5,156.4   "/>
<script xmlns=""/></svg>