<svg xmlns="http://www.w3.org/2000/svg" width="34.189" height="34.189" viewBox="0 0 34.189 34.189"><defs><style>.a{fill:#fff;}.b{fill:#f39d05;}</style></defs><g transform="translate(-1040.227 10.137)"><path class="a" d="M20.47,3.375A17.095,17.095,0,1,0,37.564,20.47,17.092,17.092,0,0,0,20.47,3.375Z" transform="translate(1036.852 -13.512)"/><path class="b" d="M20.47,3.375A17.095,17.095,0,1,0,37.564,20.47,17.092,17.092,0,0,0,20.47,3.375ZM24.8,26.658,20.47,22.327l-4.331,4.331A1.313,1.313,0,1,1,14.281,24.8l4.331-4.331-4.331-4.331a1.313,1.313,0,1,1,1.857-1.857l4.331,4.331L24.8,14.281a1.313,1.313,0,0,1,1.857,1.857L22.327,20.47,26.658,24.8a1.32,1.32,0,0,1,0,1.857A1.3,1.3,0,0,1,24.8,26.658Z" transform="translate(1036.852 -13.512)"/></g></svg>