<svg xmlns="http://www.w3.org/2000/svg" width="22.229" height="28" viewBox="0 0 22.229 28">
  <g id="phone" transform="translate(-651.771 -752)">
    <g id="Icon_feather-smartphone" data-name="Icon feather-smartphone" transform="translate(646.334 749.664)">
      <path id="Path_8666" data-name="Path 8666" d="M10.341,3h14.2c1.644.063,2.913,1.159,2.84,2.451V25.06c.073,1.292-1.2,2.388-2.84,2.451h-14.2C8.7,27.448,7.427,26.352,7.5,25.06V5.451C7.427,4.159,8.7,3.063,10.341,3Z" transform="translate(-1.459 1.08)" fill="none" stroke="#8d8d8d" stroke-linecap="round" stroke-linejoin="round" stroke-width="1.2"/>
      <g id="Group_88199" data-name="Group 88199" transform="translate(2.252)">
        <path id="Path_109164" data-name="Path 109164" d="M181.283,211.953a.322.322,0,0,0,.322-.322V211.1a.322.322,0,1,0-.645,0v.535A.322.322,0,0,0,181.283,211.953Zm0,0" transform="translate(-165.519 -201.402)" fill="#8d8d8d"/>
        <path id="Path_109165" data-name="Path 109165" d="M86.471,211.953a.322.322,0,0,0,.322-.322V211.1a.322.322,0,1,0-.645,0v.535A.322.322,0,0,0,86.471,211.953Zm0,0" transform="translate(-74.781 -201.402)" fill="#8d8d8d"/>
        <path id="Path_109166" data-name="Path 109166" d="M122.975,220.758a.905.905,0,0,0,.759-.409.322.322,0,0,0-.092-.446.329.329,0,0,0-.446.092.266.266,0,0,1-.22.119.26.26,0,0,1-.22-.119.322.322,0,0,0-.539.354A.906.906,0,0,0,122.975,220.758Zm0,0" transform="translate(-109.248 -210.088)" fill="#8d8d8d"/>
        <path id="Path_109172" data-name="Path 109172" d="M46.85,146.734h4.436a1.915,1.915,0,0,0,1.912-1.912v-3.617a1.914,1.914,0,0,0-1.912-1.912H46.85a1.914,1.914,0,0,0-1.912,1.912v3.617A1.914,1.914,0,0,0,46.85,146.734Zm-1.268-5.529a1.269,1.269,0,0,1,1.268-1.268h4.436a1.269,1.269,0,0,1,1.268,1.268v3.617a1.269,1.269,0,0,1-1.268,1.268H46.85a1.269,1.269,0,0,1-1.268-1.268Zm0,0" transform="translate(-35.341 -132.993)" fill="#8d8d8d"/>
      </g>
      <path id="Path_109173" data-name="Path 109173" d="M263.661,173.423h6.951a1.024,1.024,0,1,0,0-2.048h-.937a.322.322,0,0,0,0,.645h.937a.379.379,0,1,1,0,.758h-6.951a.379.379,0,1,1,0-.758h4.683a.322.322,0,0,0,0-.645h-4.683a1.024,1.024,0,1,0,0,2.048Zm0,0" transform="translate(-250.927 -155.697)" fill="#8d8d8d"/>
      <path id="Path_109174" data-name="Path 109174" d="M263.661,234.794h4.829a1.024,1.024,0,0,0,0-2.048h-4.829a1.024,1.024,0,1,0,0,2.048Zm0-1.4h4.829a.379.379,0,0,1,0,.758h-4.829a.379.379,0,1,1,0-.758Zm0,0" transform="translate(-249.927 -214.431)" fill="#8d8d8d"/>
      <path id="Path_109176" data-name="Path 109176" d="M233.651,356.859a.514.514,0,0,0-.514.514v2.055a.514.514,0,1,0,1.028,0v-2.055A.514.514,0,0,0,233.651,356.859Zm0,0" transform="translate(-223.471 -334.362)" fill="#8d8d8d"/>
      <path id="Path_109177" data-name="Path 109177" d="M233.651,356.859a.514.514,0,0,0-.514.514v2.055a.514.514,0,1,0,1.028,0v-2.055A.514.514,0,0,0,233.651,356.859Zm0,0" transform="translate(-221.802 -334.362)" fill="#8d8d8d"/>
      <path id="Path_109178" data-name="Path 109178" d="M233.651,356.859a.514.514,0,0,0-.514.514v2.055a.514.514,0,1,0,1.028,0v-2.055A.514.514,0,0,0,233.651,356.859Zm0,0" transform="translate(-220.133 -334.362)" fill="#8d8d8d"/>
      <path id="Path_109179" data-name="Path 109179" d="M233.651,356.859a.514.514,0,0,0-.514.514v2.055a.514.514,0,1,0,1.028,0v-2.055A.514.514,0,0,0,233.651,356.859Zm0,0" transform="translate(-218.464 -334.362)" fill="#8d8d8d"/>
      <path id="Path_109180" data-name="Path 109180" d="M233.651,356.859a.514.514,0,0,0-.514.514v2.055a.514.514,0,1,0,1.028,0v-2.055A.514.514,0,0,0,233.651,356.859Zm0,0" transform="translate(-216.795 -334.362)" fill="#8d8d8d"/>
      <path id="Path_109181" data-name="Path 109181" d="M233.651,356.859a.514.514,0,0,0-.514.514v2.055a.514.514,0,1,0,1.028,0v-2.055A.514.514,0,0,0,233.651,356.859Zm0,0" transform="translate(-215.126 -334.362)" fill="#8d8d8d"/>
      <path id="Path_109182" data-name="Path 109182" d="M233.651,356.859a.514.514,0,0,0-.514.514v2.055a.514.514,0,1,0,1.028,0v-2.055A.514.514,0,0,0,233.651,356.859Zm0,0" transform="translate(-213.457 -334.362)" fill="#8d8d8d"/>
      <path id="Path_109183" data-name="Path 109183" d="M233.651,356.859a.514.514,0,0,0-.514.514v2.055a.514.514,0,1,0,1.028,0v-2.055A.514.514,0,0,0,233.651,356.859Zm0,0" transform="translate(-211.788 -334.362)" fill="#8d8d8d"/>
    </g>
    <rect id="Rectangle_248" data-name="Rectangle 248" width="22" height="28" transform="translate(652 752)" fill="none"/>
  </g>
</svg>
