<svg xmlns="http://www.w3.org/2000/svg" width="22" height="28" viewBox="0 0 22 28">
  <g id="first-name" transform="translate(-653 -514)">
    <g id="Group_6429" data-name="Group 6429" transform="translate(1.163 0.716)">
      <g id="Icon_feather-user" data-name="Icon feather-user" transform="translate(655.968 515.195)">
        <path id="Path_8660" data-name="Path 8660" d="M19.467,27.55V25.867A3.367,3.367,0,0,0,16.1,22.5H9.367A3.367,3.367,0,0,0,6,25.867V27.55" transform="translate(-6 -12.4)" fill="none" stroke="#8d8d8d" stroke-linecap="round" stroke-linejoin="round" stroke-width="1.3"/>
        <path id="Path_8661" data-name="Path 8661" d="M18.734,7.867A3.367,3.367,0,1,1,15.367,4.5a3.367,3.367,0,0,1,3.367,3.367Z" transform="translate(-8.633 -4.5)" fill="none" stroke="#8d8d8d" stroke-linecap="round" stroke-linejoin="round" stroke-width="1.3"/>
      </g>
      <line id="Line_48" data-name="Line 48" x2="16.733" transform="translate(654.838 534.586)" fill="none" stroke="#8d8d8d" stroke-linecap="round" stroke-width="1.5"/>
      <line id="Line_49" data-name="Line 49" x2="10.459" transform="translate(657.975 538.77)" fill="none" stroke="#8d8d8d" stroke-linecap="round" stroke-width="1"/>
    </g>
    <path id="Path_8668" data-name="Path 8668" d="M0,0H22V28H0Z" transform="translate(653 514)" fill="none"/>
  </g>
</svg>
